<?xml version="1.0" encoding="utf-8"?>
<!-- Generator: Adobe Illustrator 25.0.0, SVG Export Plug-In . SVG Version: 6.00 Build 0)  -->
<svg version="1.1" xmlns="http://www.w3.org/2000/svg" xmlns:xlink="http://www.w3.org/1999/xlink" x="0px" y="0px"
	 viewBox="0 0 3710 3710" style="enable-background:new 0 0 3710 3710;" xml:space="preserve">
<style type="text/css">
	.st0{opacity:0.3;fill:url(#SVGID_1_);}
	.st1{fill:url(#SVGID_2_);}
	.st2{opacity:0.25;fill:#FFFFFF;}
	.st3{fill:url(#SVGID_3_);}
	.st4{fill:url(#SVGID_4_);}
	.st5{fill:url(#SVGID_5_);}
	.st6{opacity:0.6;fill:#FFFFFF;}
	.st7{opacity:0.58;fill:#FFFFFF;}
	.st8{fill:#FFFFFF;}
	.st9{fill:url(#SVGID_6_);}
	.st10{fill:url(#SVGID_7_);}
	.st11{fill:url(#SVGID_8_);}
	.st12{fill:url(#SVGID_9_);}
	.st13{fill:url(#SVGID_10_);}
	.st14{fill:url(#SVGID_11_);}
	.st15{fill:url(#SVGID_12_);}
	.st16{fill:url(#SVGID_13_);}
	.st17{fill:url(#SVGID_14_);}
	.st18{fill:url(#SVGID_15_);}
	.st19{fill:url(#SVGID_16_);}
	.st20{fill:url(#SVGID_17_);}
	.st21{fill:url(#SVGID_18_);}
	.st22{fill:url(#SVGID_19_);}
	.st23{fill:url(#SVGID_20_);}
	.st24{fill:url(#SVGID_21_);}
	.st25{fill:url(#SVGID_22_);}
	.st26{fill:url(#SVGID_23_);}
	.st27{fill:url(#SVGID_24_);}
	.st28{fill:url(#SVGID_25_);}
	.st29{fill:url(#SVGID_26_);}
	.st30{fill:url(#SVGID_27_);}
	.st31{fill:url(#SVGID_28_);}
	.st32{fill:url(#SVGID_29_);}
	.st33{fill:url(#SVGID_30_);}
	.st34{fill:url(#SVGID_31_);}
	.st35{fill:url(#SVGID_32_);}
	.st36{fill:url(#SVGID_33_);}
	.st37{fill:url(#SVGID_34_);}
	.st38{fill:url(#SVGID_35_);}
	.st39{fill:url(#SVGID_36_);}
	.st40{fill:url(#SVGID_37_);}
	.st41{fill:url(#SVGID_38_);}
	.st42{fill:url(#SVGID_39_);}
	.st43{fill:url(#SVGID_40_);}
	.st44{fill:url(#SVGID_41_);}
	.st45{fill:url(#SVGID_42_);}
	.st46{fill:#666694;}
	.st47{fill:url(#SVGID_43_);}
	.st48{fill:url(#SVGID_44_);}
	.st49{fill:url(#SVGID_45_);}
	.st50{fill:url(#SVGID_46_);}
	.st51{fill:url(#SVGID_47_);}
	.st52{fill:url(#SVGID_48_);}
	.st53{fill:url(#SVGID_49_);}
	.st54{fill:url(#SVGID_50_);}
	.st55{fill:url(#SVGID_51_);}
	.st56{fill:url(#SVGID_52_);}
	.st57{opacity:0.2;fill:url(#SVGID_53_);}
	.st58{fill:url(#SVGID_54_);}
	.st59{opacity:0.8;fill:#FFFFFF;}
	.st60{fill:url(#SVGID_55_);}
	.st61{opacity:0.47;}
	.st62{fill:url(#SVGID_56_);}
	.st63{fill:url(#SVGID_57_);}
	.st64{fill:url(#SVGID_58_);}
	.st65{fill:url(#SVGID_59_);}
	.st66{fill:url(#SVGID_60_);}
	.st67{fill:url(#SVGID_61_);}
</style>
<g id="Background">
</g>
<g id="Illustration">
	<g>
		<linearGradient id="SVGID_1_" gradientUnits="userSpaceOnUse" x1="3587.7512" y1="4031.9573" x2="1127.3618" y2="976.3081">
			<stop  offset="0" style="stop-color:#B37CFF"/>
			<stop  offset="1" style="stop-color:#F895E7"/>
		</linearGradient>
		<path class="st0" d="M2910.88,2826.92c-56.51,59.5-109.99,97.86-152.24,128.18c-496.62,356.33-1084.25,252.46-1209.14,227.1
			c-184.42-37.46-540.9-109.86-798.63-412.94c-389.92-458.54-329.21-1180.96-26.76-1657.84c55.32-87.23,347.56-571.37,941.52-649.01
			c359.46-46.99,778.47,47.78,1081.91,302C3384.49,1298.03,3339.15,2376.06,2910.88,2826.92z"/>
		<g>
			<g>
				
					<linearGradient id="SVGID_2_" gradientUnits="userSpaceOnUse" x1="1808.7468" y1="1756.4742" x2="2653.333" y2="1756.4742" gradientTransform="matrix(0.9973 0.0742 -0.0742 0.9973 -903.4147 -587.5778)">
					<stop  offset="0" style="stop-color:#CE1567"/>
					<stop  offset="1" style="stop-color:#7A1DBC"/>
				</linearGradient>
				<path class="st1" d="M1357.5,2185.42c0,0,40.71-360.73-117.2-472.27C1082.4,1601.61,771.19,1513,805.44,992.88
					c20.05-304.5,24.33-438.03,24.44-496.42c0.04-22.77,21.74-39.23,43.66-33.05c155.05,43.71,656.45,211.49,732.79,570.67
					C1696.83,1459.9,1357.5,2185.42,1357.5,2185.42z"/>
				<path class="st2" d="M982.66,618.66c159.38,169.75,335.27,460.75,417.68,743.44c9.69,46.24,41.24,145.56,43.53,317.24
					c2.93,143.27-18.11,292.53-45.77,390.11c-1.75,6.17-8.17,9.75-14.34,8c-10.61-3.01-8.14-14.48-8.08-14.11
					c36.58-167.66,46.4-379.52,14.01-574.34c-42.21-239.43-162.55-478.63-290.77-683.82l-13.27-20.26
					c-99.73-154.57-123.34-157.74-111.92-166.88C976.44,615.87,980.33,616.19,982.66,618.66z"/>
			</g>
			<g>
				<linearGradient id="SVGID_3_" gradientUnits="userSpaceOnUse" x1="1383.4286" y1="-665.892" x2="1283.3798" y2="134.5011">
					<stop  offset="0" style="stop-color:#A737D5"/>
					<stop  offset="1" style="stop-color:#EF497A"/>
				</linearGradient>
				<path class="st3" d="M1605.3,2724.84c25.19,14.72-223.16-349.17-269.36-895.57c-21.77-257.47,1.01-576.41-135-709.9
					c-113.2-111.1-528.54-76.53-664.68-61.81c-17.01,1.84-24.21,22.63-11.95,34.56c60.48,58.82,188.98,196.52,215.49,327.78
					c34.95,173.01,188.26,292.62,330.43,332.36c142.17,39.73,220.38,73.92,273.82,309.83
					C1397.48,2298.02,1533.72,2683.01,1605.3,2724.84z"/>
				<path class="st2" d="M719.98,1143.01c170.89,19.71,349.18,111.35,431.84,264.85l7.79,14.64
					c17.96,34.31,116.27,276.04,166.21,474.11c0.62,2.47-0.88,4.98-3.34,5.6c-4.19,1.06-5.92-3.6-5.55-3.17
					c-36.66-112.52-90.65-255.72-134.14-363.03c-46.5-117.03-79.23-196.38-198.78-278.83c-133.25-89.12-265.48-106.96-265.09-106.85
					c-2.01-0.36-3.36-2.27-3-4.29C716.26,1144.11,718.06,1142.79,719.98,1143.01z"/>
			</g>
		</g>
		<g>
			<linearGradient id="SVGID_4_" gradientUnits="userSpaceOnUse" x1="2092.1558" y1="1975.9489" x2="2867.4211" y2="415.418">
				<stop  offset="0" style="stop-color:#2B3582"/>
				<stop  offset="1" style="stop-color:#150E42"/>
			</linearGradient>
			<path class="st4" d="M1148.06,960.43c0-93.95,76.16-170.11,170.11-170.11h1446.59c79.81,0,145.61,62.54,149.67,142.25
				l106.78,2097.29c3.18,62.37-45.92,114.98-108.36,116.12l-1657.98,30.13c-58.67,1.07-106.81-46.2-106.81-104.89V960.43z"/>
			<g>
				<linearGradient id="SVGID_5_" gradientUnits="userSpaceOnUse" x1="1779.0322" y1="2576.3904" x2="3434.4653" y2="-933.1221">
					<stop  offset="0" style="stop-color:#53D8FF"/>
					<stop  offset="1" style="stop-color:#3840F7"/>
				</linearGradient>
				<path class="st5" d="M1266.57,822.61c-0.18-30.06,26.26-53.32,56.04-49.28c197.55,26.79,876.85,109.64,1438.5,66.53
					c25.61-1.97,47.84,17.44,49.2,43.09l111.96,2106.64c1.54,28.89-20.52,53.59-49.4,55.3
					c-236.22,13.98-1209.03,68.02-1556.02,31.67c-21.12-2.21-37.15-19.99-37.27-41.23L1266.57,822.61z"/>
				<path class="st6" d="M1289.84,875.4c-0.17-28.93,25.27-51.31,53.93-47.43c190.11,25.78,843.83,105.51,1384.33,64.02
					c24.65-1.89,46.04,16.78,47.35,41.47l107.75,2027.31c1.48,27.8-19.75,51.57-47.54,53.21
					c-227.32,13.45-1163.5,65.46-1497.42,30.48c-20.32-2.13-35.75-19.24-35.87-39.67L1289.84,875.4z"/>
				<path class="st7" d="M2566.01,1208.44H1541.68c-5.76,0-10.42-4.67-10.42-10.42v-193.54c0-5.76,4.67-10.42,10.42-10.42h1024.32
					c5.76,0,10.42,4.67,10.42,10.42v193.54C2576.43,1203.77,2571.77,1208.44,2566.01,1208.44z"/>
				<path class="st7" d="M2722.78,1991.33H1419.28c-3.24,0-5.86-2.62-5.86-5.86v-75.18c0-3.24,2.62-5.86,5.86-5.86h1303.51
					c3.24,0,5.86,2.62,5.86,5.86v75.18C2728.65,1988.7,2726.02,1991.33,2722.78,1991.33z"/>
				<path class="st7" d="M2724.37,2125.41H1417.7c-2.36,0-4.28-1.92-4.28-4.28v-78.35c0-2.36,1.92-4.28,4.28-4.28h1306.67
					c2.36,0,4.28,1.92,4.28,4.28v78.35C2728.65,2123.49,2726.73,2125.41,2724.37,2125.41z"/>
				<path class="st7" d="M2752.06,2891.01H1419.67c-2.85,0-5.16-2.31-5.16-5.16v-76.58c0-2.85,2.31-5.16,5.16-5.16h1332.39
					c2.85,0,5.16,2.31,5.16,5.16v76.58C2757.22,2888.7,2754.91,2891.01,2752.06,2891.01z"/>
				<path class="st2" d="M2695.66,1813.38H1444.95c-17.41,0-31.53-14.12-31.53-31.53v-468.3c0-17.41,14.12-31.53,31.53-31.53h1229.5
					c16.86,0,30.74,13.26,31.5,30.1l21.21,468.3C2727.97,1798.38,2713.63,1813.38,2695.66,1813.38z"/>
				<path class="st8" d="M2696.39,1818.38H1445.68c-20.14,0-36.53-16.39-36.53-36.53v-468.3c0-20.14,16.39-36.53,36.53-36.53h1229.5
					c19.58,0,35.61,15.32,36.5,34.88l21.21,468.3c0.46,10.06-3.12,19.61-10.08,26.89
					C2715.84,1814.37,2706.46,1818.38,2696.39,1818.38z M1445.68,1287.01c-14.63,0-26.53,11.9-26.53,26.53v468.3
					c0,14.63,11.9,26.53,26.53,26.53h1250.71c7.31,0,14.12-2.91,19.18-8.2c5.05-5.29,7.65-12.22,7.32-19.53l-21.21-468.3
					c-0.64-14.2-12.28-25.33-26.5-25.33H1445.68z"/>
				<path class="st2" d="M2715.65,2751.09H1454.5c-22.09,0-39.99-17.91-39.99-39.99v-451.38c0-22.09,17.91-39.99,39.99-39.99
					h1243.65c21.48,0,39.13,16.98,39.96,38.44l17.5,451.38C2756.49,2732.23,2738.34,2751.09,2715.65,2751.09z"/>
				<path class="st8" d="M2715.65,2756.1H1454.5c-24.81,0-44.99-20.19-44.99-44.99v-451.38c0-24.81,20.19-44.99,44.99-44.99h1243.65
					c24.27,0,44.02,19,44.96,43.25l17.5,451.38c0.48,12.34-3.97,24.04-12.54,32.94C2739.51,2751.2,2728,2756.1,2715.65,2756.1z
					 M1454.5,2224.73c-19.29,0-34.99,15.7-34.99,34.99v451.38c0,19.29,15.7,34.99,34.99,34.99h1261.15c9.6,0,18.56-3.81,25.22-10.73
					c6.66-6.92,10.12-16.02,9.75-25.61l-17.5-451.38c-0.73-18.86-16.09-33.64-34.96-33.64H1454.5z"/>
				
					<rect x="1802.37" y="1281.97" transform="matrix(0.9999 -0.0166 0.0166 0.9999 -25.461 30.2378)" class="st8" width="10.01" height="531.44"/>
				
					<rect x="2286.31" y="1281.91" transform="matrix(0.9996 -0.027 0.027 0.9996 -40.9364 62.4046)" class="st8" width="10" height="531.56"/>
				
					<rect x="2063.73" y="812.39" transform="matrix(3.515930e-03 -1 1 3.515930e-03 597.7289 3527.3044)" class="st8" width="10" height="1302.7"/>
				<rect x="1417.38" y="1645.25" class="st8" width="1302.68" height="10"/>
				
					<rect x="1540.57" y="2480.41" transform="matrix(0.0124 -0.9999 0.9999 0.0124 -701.2993 4260.79)" class="st8" width="531.41" height="10"/>
				<rect x="1417.38" y="2343.84" class="st8" width="1325.86" height="10"/>
				<rect x="1417.38" y="2466.34" class="st8" width="1329.17" height="10"/>
				
					<rect x="2078.32" y="1942.49" transform="matrix(0.0125 -0.9999 0.9999 0.0125 -553.8143 4661.9429)" class="st8" width="10" height="1337.72"/>
			</g>
			<linearGradient id="SVGID_6_" gradientUnits="userSpaceOnUse" x1="2292.575" y1="288.4402" x2="1627.1934" y2="1163.7341">
				<stop  offset="0" style="stop-color:#2B3582"/>
				<stop  offset="1" style="stop-color:#150E42"/>
			</linearGradient>
			<path class="st9" d="M2131.18,504.37c-52.25-36.35-97.69-35.63-129.67-26.19c-29.18,8.61-48.09,36.78-45.31,67.07l13.79,150.55
				l164.13,14.57C2134.12,710.37,2233.66,575.66,2131.18,504.37z M2059,625.83c-22.6,0-40.93-18.32-40.93-40.93
				c0-22.6,18.32-40.93,40.93-40.93c22.6,0,40.93,18.32,40.93,40.93C2099.93,607.51,2081.6,625.83,2059,625.83z"/>
			<path class="st8" d="M1986.39,632.47c-2.02,0-3.75-1.54-3.94-3.6l-2.2-23.98c-0.2-2.18,1.4-4.1,3.58-4.31
				c2.22-0.21,4.11,1.4,4.3,3.59l2.2,23.98c0.2,2.18-1.4,4.1-3.58,4.3C1986.63,632.46,1986.51,632.47,1986.39,632.47z
				 M1982.08,585.48c-2.02,0-3.75-1.54-3.94-3.6l-1.67-18.2c-2.65-28.86,15.51-55.73,43.17-63.89c19.59-5.78,39.77-6.61,59.99-2.46
				c2.14,0.44,3.52,2.53,3.08,4.68c-0.44,2.14-2.52,3.51-4.67,3.08c-18.93-3.88-37.82-3.11-56.16,2.3
				c-24.04,7.1-39.83,30.47-37.53,55.58l1.67,18.2c0.2,2.18-1.4,4.1-3.58,4.31C1982.32,585.48,1982.2,585.48,1982.08,585.48z"/>
			<linearGradient id="SVGID_7_" gradientUnits="userSpaceOnUse" x1="2365.5623" y1="343.9219" x2="1700.1799" y2="1219.2167">
				<stop  offset="0" style="stop-color:#2B3582"/>
				<stop  offset="1" style="stop-color:#150E42"/>
			</linearGradient>
			<path class="st10" d="M1745.98,793.09V717.4c0-26.13,21.66-47.06,47.77-46.16l521.87,17.88c23.16,0.79,41.92,19.07,43.3,42.21
				l4.36,72.73L1745.98,793.09z"/>
			<path class="st8" d="M1940.57,699.76h-22.44c-2.19,0-3.96-1.77-3.96-3.96c0-2.19,1.77-3.96,3.96-3.96h22.44
				c2.19,0,3.96,1.77,3.96,3.96C1944.53,697.99,1942.76,699.76,1940.57,699.76z"/>
			<path class="st8" d="M1774.22,769.33c-2.19,0-3.96-1.77-3.96-3.96v-30.62c0-23.66,19.25-42.91,42.91-42.91h82.51
				c2.19,0,3.96,1.77,3.96,3.96c0,2.19-1.77,3.96-3.96,3.96h-82.51c-19.29,0-34.99,15.7-34.99,34.98v30.62
				C1778.19,767.55,1776.41,769.33,1774.22,769.33z"/>
			<linearGradient id="SVGID_8_" gradientUnits="userSpaceOnUse" x1="2281.7126" y1="397.4626" x2="1822.2803" y2="1241.0736">
				<stop  offset="0" style="stop-color:#53D8FF"/>
				<stop  offset="1" style="stop-color:#3840F7"/>
			</linearGradient>
			<path class="st11" d="M1533.34,812.21c1.26-26.21,22.88-46.82,49.12-46.82l912.59-0.03c32.81,0,60.87,23.61,66.47,55.95
				l0.77,4.46c6.13,35.42-21.14,67.81-57.08,67.81h-936.26c-21.51,0-38.65-17.98-37.62-39.47L1533.34,812.21z"/>
		</g>
		<g>
			<g>
				<linearGradient id="SVGID_9_" gradientUnits="userSpaceOnUse" x1="1290.3844" y1="2326.5432" x2="867.7763" y2="3004.2383">
					<stop  offset="0" style="stop-color:#FDF53F"/>
					<stop  offset="1" style="stop-color:#D93C65"/>
				</linearGradient>
				<path class="st12" d="M1406.3,2646.29H837.82c-3.09,0-5.6-2.51-5.6-5.6v-88.45c0-3.09,2.51-5.6,5.6-5.6h568.48
					c3.09,0,5.6,2.51,5.6,5.6v88.45C1411.9,2643.78,1409.39,2646.29,1406.3,2646.29z"/>
			</g>
			<g>
				<linearGradient id="SVGID_10_" gradientUnits="userSpaceOnUse" x1="1290.3844" y1="2220.8784" x2="867.7763" y2="2898.5737">
					<stop  offset="0" style="stop-color:#FDF53F"/>
					<stop  offset="1" style="stop-color:#D93C65"/>
				</linearGradient>
				<path class="st13" d="M1406.3,2540.63H837.82c-3.09,0-5.6-2.51-5.6-5.6v-88.45c0-3.09,2.51-5.6,5.6-5.6h568.48
					c3.09,0,5.6,2.51,5.6,5.6v88.45C1411.9,2538.12,1409.39,2540.63,1406.3,2540.63z"/>
			</g>
			<g>
				<linearGradient id="SVGID_11_" gradientUnits="userSpaceOnUse" x1="1290.3844" y1="2433.9783" x2="867.7764" y2="3111.6736">
					<stop  offset="0" style="stop-color:#FDF53F"/>
					<stop  offset="1" style="stop-color:#D93C65"/>
				</linearGradient>
				<path class="st14" d="M1406.3,2753.73H837.82c-3.09,0-5.6-2.51-5.6-5.6v-88.45c0-3.09,2.51-5.6,5.6-5.6h568.48
					c3.09,0,5.6,2.51,5.6,5.6v88.45C1411.9,2751.22,1409.39,2753.73,1406.3,2753.73z"/>
			</g>
			<g>
				<linearGradient id="SVGID_12_" gradientUnits="userSpaceOnUse" x1="1290.3844" y1="2541.4133" x2="867.7764" y2="3219.1086">
					<stop  offset="0" style="stop-color:#FDF53F"/>
					<stop  offset="1" style="stop-color:#D93C65"/>
				</linearGradient>
				<path class="st15" d="M1406.3,2861.16H837.82c-3.09,0-5.6-2.51-5.6-5.6v-88.45c0-3.09,2.51-5.6,5.6-5.6h568.48
					c3.09,0,5.6,2.51,5.6,5.6v88.45C1411.9,2858.65,1409.39,2861.16,1406.3,2861.16z"/>
			</g>
			<g>
				<linearGradient id="SVGID_13_" gradientUnits="userSpaceOnUse" x1="1290.3846" y1="2648.8484" x2="867.776" y2="3326.5447">
					<stop  offset="0" style="stop-color:#FDF53F"/>
					<stop  offset="1" style="stop-color:#D93C65"/>
				</linearGradient>
				<path class="st16" d="M1406.3,2968.6H837.82c-3.09,0-5.6-2.51-5.6-5.6v-88.45c0-3.09,2.51-5.6,5.6-5.6h568.48
					c3.09,0,5.6,2.51,5.6,5.6V2963C1411.9,2966.09,1409.39,2968.6,1406.3,2968.6z"/>
			</g>
			<g>
				<linearGradient id="SVGID_14_" gradientUnits="userSpaceOnUse" x1="1290.3846" y1="2753.0549" x2="867.776" y2="3430.7512">
					<stop  offset="0" style="stop-color:#FDF53F"/>
					<stop  offset="1" style="stop-color:#D93C65"/>
				</linearGradient>
				<path class="st17" d="M1406.3,3072.8H837.82c-3.09,0-5.6-2.51-5.6-5.6v-88.45c0-3.09,2.51-5.6,5.6-5.6h568.48
					c3.09,0,5.6,2.51,5.6,5.6v88.45C1411.9,3070.3,1409.39,3072.8,1406.3,3072.8z"/>
			</g>
			<g>
				<linearGradient id="SVGID_15_" gradientUnits="userSpaceOnUse" x1="1290.3844" y1="2857.2622" x2="867.7763" y2="3534.9575">
					<stop  offset="0" style="stop-color:#FDF53F"/>
					<stop  offset="1" style="stop-color:#D93C65"/>
				</linearGradient>
				<path class="st18" d="M1406.3,3177.01H837.82c-3.09,0-5.6-2.51-5.6-5.6v-88.45c0-3.09,2.51-5.6,5.6-5.6h568.48
					c3.09,0,5.6,2.51,5.6,5.6v88.45C1411.9,3174.5,1409.39,3177.01,1406.3,3177.01z"/>
			</g>
		</g>
		<g>
			<g>
				<linearGradient id="SVGID_16_" gradientUnits="userSpaceOnUse" x1="1898.5565" y1="2542.5266" x2="1475.9485" y2="3220.2222">
					<stop  offset="0" style="stop-color:#FDF53F"/>
					<stop  offset="1" style="stop-color:#D93C65"/>
				</linearGradient>
				<path class="st19" d="M2014.47,2862.27h-568.48c-3.09,0-5.6-2.51-5.6-5.6v-88.45c0-3.09,2.51-5.6,5.6-5.6h568.48
					c3.09,0,5.6,2.51,5.6,5.6v88.45C2020.07,2859.77,2017.57,2862.27,2014.47,2862.27z"/>
			</g>
			<g>
				<linearGradient id="SVGID_17_" gradientUnits="userSpaceOnUse" x1="1898.5568" y1="2649.9619" x2="1475.9481" y2="3327.658">
					<stop  offset="0" style="stop-color:#FDF53F"/>
					<stop  offset="1" style="stop-color:#D93C65"/>
				</linearGradient>
				<path class="st20" d="M2014.47,2969.71h-568.48c-3.09,0-5.6-2.51-5.6-5.6v-88.45c0-3.09,2.51-5.6,5.6-5.6h568.48
					c3.09,0,5.6,2.51,5.6,5.6v88.45C2020.07,2967.2,2017.57,2969.71,2014.47,2969.71z"/>
			</g>
			<g>
				<linearGradient id="SVGID_18_" gradientUnits="userSpaceOnUse" x1="1898.5568" y1="2754.1682" x2="1475.9481" y2="3431.8645">
					<stop  offset="0" style="stop-color:#FDF53F"/>
					<stop  offset="1" style="stop-color:#D93C65"/>
				</linearGradient>
				<path class="st21" d="M2014.47,3073.92h-568.48c-3.09,0-5.6-2.51-5.6-5.6v-88.45c0-3.09,2.51-5.6,5.6-5.6h568.48
					c3.09,0,5.6,2.51,5.6,5.6v88.45C2020.07,3071.41,2017.57,3073.92,2014.47,3073.92z"/>
			</g>
			<g>
				<linearGradient id="SVGID_19_" gradientUnits="userSpaceOnUse" x1="1898.5565" y1="2858.3755" x2="1475.9484" y2="3536.0708">
					<stop  offset="0" style="stop-color:#FDF53F"/>
					<stop  offset="1" style="stop-color:#D93C65"/>
				</linearGradient>
				<path class="st22" d="M2014.47,3178.12h-568.48c-3.09,0-5.6-2.51-5.6-5.6v-88.45c0-3.09,2.51-5.6,5.6-5.6h568.48
					c3.09,0,5.6,2.51,5.6,5.6v88.45C2020.07,3175.62,2017.57,3178.12,2014.47,3178.12z"/>
			</g>
		</g>
		<g>
			<g>
				
					<linearGradient id="SVGID_20_" gradientUnits="userSpaceOnUse" x1="-749.0494" y1="2951.9634" x2="-1385.7877" y2="3827.4775" gradientTransform="matrix(-1 0 0 1 1856.4302 0)">
					<stop  offset="0" style="stop-color:#233894"/>
					<stop  offset="0.9964" style="stop-color:#DD397A"/>
				</linearGradient>
				<polygon class="st23" points="2216.27,3217.06 3211.58,3217.06 3211.58,2985.09 2216.27,2985.09 				"/>
				
					<linearGradient id="SVGID_21_" gradientUnits="userSpaceOnUse" x1="-284.5576" y1="2369.207" x2="-1170.3195" y2="3582.1145" gradientTransform="matrix(-1 0 0 1 1856.4302 0)">
					<stop  offset="0" style="stop-color:#233894"/>
					<stop  offset="0.9964" style="stop-color:#DD397A"/>
				</linearGradient>
				<path class="st24" d="M2203.91,3202.21h1020.66c4.27,0,7.73-3.46,7.73-7.73v-81.34H2198.74v83.91
					C2198.74,3199.9,2201.05,3202.21,2203.91,3202.21z"/>
				
					<linearGradient id="SVGID_22_" gradientUnits="userSpaceOnUse" x1="-347.0471" y1="2352.7986" x2="-1233.3289" y2="3566.418" gradientTransform="matrix(-1 0 0 1 1856.4302 0)">
					<stop  offset="0" style="stop-color:#233894"/>
					<stop  offset="0.9964" style="stop-color:#DD397A"/>
				</linearGradient>
				<path class="st25" d="M2206.41,3101.08h1016.32c5.28,0,9.57-4.28,9.57-9.57V3012H2198.74v81.41
					C2198.74,3097.64,2202.17,3101.08,2206.41,3101.08z"/>
				
					<linearGradient id="SVGID_23_" gradientUnits="userSpaceOnUse" x1="-772.6725" y1="1891.8846" x2="-865.7816" y2="3084.8499" gradientTransform="matrix(-1 0 0 1 1856.4302 0)">
					<stop  offset="0" style="stop-color:#233894"/>
					<stop  offset="0.9964" style="stop-color:#DD397A"/>
				</linearGradient>
				<path class="st26" d="M2198.74,3012H3232.3v-25.5c0-4.36-3.54-7.9-7.9-7.9H2206.74c-4.42,0-8,3.58-8,8V3012z"/>
			</g>
			<g>
				
					<linearGradient id="SVGID_24_" gradientUnits="userSpaceOnUse" x1="527.7639" y1="-2430.7649" x2="1423.1555" y2="-1370.5178" gradientTransform="matrix(-0.4373 -0.8993 -0.8993 0.4373 266.7716 4924.9434)">
					<stop  offset="0" style="stop-color:#233894"/>
					<stop  offset="0.9964" style="stop-color:#DD397A"/>
				</linearGradient>
				<path class="st27" d="M1290.33,3089.01c-33.49,16.29-45.3,61.03-26.38,99.93c18.92,38.91,61.41,57.25,94.9,40.96
					s45.3-61.03,26.38-99.93C1366.31,3091.06,1323.82,3072.72,1290.33,3089.01z"/>
				
					<linearGradient id="SVGID_25_" gradientUnits="userSpaceOnUse" x1="381.7973" y1="2805.5632" x2="317.3509" y2="3241.8142" gradientTransform="matrix(-0.9989 -0.0469 -0.0469 0.9989 1896.4362 301.738)">
					<stop  offset="0" style="stop-color:#2B3582"/>
					<stop  offset="1" style="stop-color:#150E42"/>
				</linearGradient>
				<path class="st28" d="M1345.03,3107.19l33.29,68.45c1.51,3.11,5.25,4.4,8.36,2.89l40.85-19.86c3.11-1.51,4.4-5.25,2.89-8.36
					l-33.29-68.45c-1.51-3.11-5.25-4.4-8.36-2.89l-40.85,19.86C1344.82,3100.34,1343.52,3104.09,1345.03,3107.19z"/>
				
					<linearGradient id="SVGID_26_" gradientUnits="userSpaceOnUse" x1="796.4636" y1="3032.8291" x2="-672.0921" y2="2317.6038" gradientTransform="matrix(-0.9989 -0.0469 -0.0469 0.9989 1896.4362 301.738)">
					<stop  offset="0" style="stop-color:#233894"/>
					<stop  offset="0.9964" style="stop-color:#DD397A"/>
				</linearGradient>
				<path class="st29" d="M1388.5,3072.13c6.15,31.58,20.17,59.78,41.49,84.86c11.52,13.55,29.99,19.62,48.37,15.93
					c175.69-35.28,543.92-262.86,901.52-461.68c23.7-13.18,40.08-28.12,28.91-51.09l-24.66-50.71c-11.1-22.82-37.66-9.97-62.58,0.27
					c-378.26,155.41-779.45,290.87-917.18,416.21C1391.14,3037.94,1385.25,3055.47,1388.5,3072.13z"/>
				
					<linearGradient id="SVGID_27_" gradientUnits="userSpaceOnUse" x1="-609.4321" y1="2311.1084" x2="-759.264" y2="2889.2625" gradientTransform="matrix(-0.9989 -0.0469 -0.0469 0.9989 1896.4362 301.738)">
					<stop  offset="0" style="stop-color:#2B3582"/>
					<stop  offset="1" style="stop-color:#150E42"/>
				</linearGradient>
				<path class="st30" d="M2327.25,2558.6l82.76,170.19c1.45,2.98,5.04,4.22,8.02,2.77l42.18-20.51c2.98-1.45,4.22-5.04,2.77-8.02
					l-82.76-170.19c-1.45-2.98-5.04-4.22-8.02-2.77l-42.18,20.51C2327.04,2552.03,2325.8,2555.62,2327.25,2558.6z"/>
				
					<linearGradient id="SVGID_28_" gradientUnits="userSpaceOnUse" x1="-910.5688" y1="2401.835" x2="-911.8969" y2="2678.0342" gradientTransform="matrix(-1 0 0 1 1856.4302 0)">
					<stop  offset="0" style="stop-color:#2B3582"/>
					<stop  offset="1" style="stop-color:#150E42"/>
				</linearGradient>
				<path class="st31" d="M2699.41,2386.72l82.76,170.19c1.45,2.98,5.04,4.22,8.02,2.77l42.18-20.51c2.98-1.45,4.22-5.04,2.77-8.02
					l-82.76-170.19c-1.45-2.98-5.04-4.22-8.02-2.77l-42.18,20.51C2699.2,2380.15,2697.96,2383.74,2699.41,2386.72z"/>
				
					<linearGradient id="SVGID_29_" gradientUnits="userSpaceOnUse" x1="5.8766" y1="1534.389" x2="-1693.1559" y2="2981.5964" gradientTransform="matrix(-0.9989 -0.0469 -0.0469 0.9989 1896.4362 301.738)">
					<stop  offset="0" style="stop-color:#233894"/>
					<stop  offset="0.9964" style="stop-color:#DD397A"/>
				</linearGradient>
				<polygon class="st32" points="2290.03,2389.46 2554.59,2933.5 2923.17,2754.27 2658.61,2210.23 				"/>
				
					<linearGradient id="SVGID_30_" gradientUnits="userSpaceOnUse" x1="807.9992" y1="-3284.4426" x2="631.8313" y2="-2159.5476" gradientTransform="matrix(-0.4373 -0.8993 -0.8993 0.4373 266.7716 4924.9434)">
					<stop  offset="0" style="stop-color:#233894"/>
					<stop  offset="0.9964" style="stop-color:#DD397A"/>
				</linearGradient>
				<polygon class="st33" points="2540.63,2904.81 2573.91,2973.23 2942.49,2794 2909.22,2725.58 				"/>
				
					<linearGradient id="SVGID_31_" gradientUnits="userSpaceOnUse" x1="-927.8073" y1="2056.6042" x2="-977.1983" y2="2542.2852" gradientTransform="matrix(-0.9989 -0.0469 -0.0469 0.9989 1896.4362 301.738)">
					<stop  offset="0" style="stop-color:#A737D5"/>
					<stop  offset="1" style="stop-color:#EF497A"/>
				</linearGradient>
				<path class="st34" d="M2558.88,2942.33l16.54,34c5.06,10.4,16.9,15.61,27.98,12.32c114.9-34.12,226.1-87.29,333.09-162.17
					c9.37-6.56,12.58-18.96,7.58-29.25l-16.6-34.15L2558.88,2942.33z"/>
				
					<linearGradient id="SVGID_32_" gradientUnits="userSpaceOnUse" x1="-479.708" y1="2341.8669" x2="-1221.6903" y2="2538.8704" gradientTransform="matrix(-0.9989 -0.0469 -0.0469 0.9989 1896.4362 301.738)">
					<stop  offset="0" style="stop-color:#233894"/>
					<stop  offset="0.9964" style="stop-color:#DD397A"/>
				</linearGradient>
				<path class="st35" d="M2522.02,2891.8l13.06,26.86c1.43,2.94,4.98,4.17,7.92,2.74l384.41-186.93c2.94-1.43,4.17-4.98,2.74-7.92
					l-13.06-26.86c-1.43-2.94-4.98-4.17-7.92-2.74l-384.41,186.93C2521.82,2885.31,2520.59,2888.85,2522.02,2891.8z"/>
				
					<linearGradient id="SVGID_33_" gradientUnits="userSpaceOnUse" x1="-904.4073" y1="2053.4377" x2="-954.4651" y2="2545.6743" gradientTransform="matrix(-0.9989 -0.0469 -0.0469 0.9989 1896.4362 301.738)">
					<stop  offset="0" style="stop-color:#A737D5"/>
					<stop  offset="1" style="stop-color:#EF497A"/>
				</linearGradient>
				<path class="st36" d="M2523.75,2895.35l9.6,19.75c1.05,2.16,3.66,3.07,5.82,2.01l387.23-188.3c2.16-1.05,3.07-3.66,2.01-5.82
					l-9.6-19.75c-1.05-2.16-3.66-3.07-5.82-2.01l-387.23,188.3C2523.6,2890.58,2522.7,2893.19,2523.75,2895.35z"/>
				
					<linearGradient id="SVGID_34_" gradientUnits="userSpaceOnUse" x1="7580.1919" y1="-3278.9048" x2="7404.0239" y2="-2154.0093" gradientTransform="matrix(0.4373 0.8993 -0.8993 0.4373 -3667.3142 -3164.8772)">
					<stop  offset="0" style="stop-color:#233894"/>
					<stop  offset="0.9964" style="stop-color:#DD397A"/>
				</linearGradient>
				<polygon class="st37" points="2287.88,2385.05 2254.61,2316.63 2623.19,2137.39 2656.46,2205.81 				"/>
				
					<linearGradient id="SVGID_35_" gradientUnits="userSpaceOnUse" x1="-850.4444" y1="1602.1036" x2="-570.5643" y2="1997.2288" gradientTransform="matrix(-0.9989 -0.0469 -0.0469 0.9989 1896.4362 301.738)">
					<stop  offset="0" style="stop-color:#A737D5"/>
					<stop  offset="1" style="stop-color:#EF497A"/>
				</linearGradient>
				<path class="st38" d="M2269.64,2347.53l-16.54-34c-5.06-10.4-1.85-22.93,7.59-29.62c97.79-69.3,208.28-123.94,333.24-161.86
					c10.94-3.32,22.69,1.81,27.69,12.09l16.6,34.15L2269.64,2347.53z"/>
				
					<linearGradient id="SVGID_36_" gradientUnits="userSpaceOnUse" x1="-587.149" y1="1708.1918" x2="-728.1243" y2="2127.4326" gradientTransform="matrix(-0.9989 -0.0469 -0.0469 0.9989 1896.4362 301.738)">
					<stop  offset="0" style="stop-color:#233894"/>
					<stop  offset="0.9964" style="stop-color:#DD397A"/>
				</linearGradient>
				<path class="st39" d="M2286.63,2407.72l-13.06-26.86c-1.43-2.94-0.21-6.49,2.74-7.92l384.41-186.93
					c2.94-1.43,6.49-0.21,7.92,2.74l13.06,26.86c1.43,2.94,0.21,6.49-2.74,7.92l-384.41,186.93
					C2291.61,2411.89,2288.06,2410.67,2286.63,2407.72z"/>
				
					<linearGradient id="SVGID_37_" gradientUnits="userSpaceOnUse" x1="-906.8446" y1="1638.5869" x2="-624.9821" y2="2036.5106" gradientTransform="matrix(-0.9989 -0.0469 -0.0469 0.9989 1896.4362 301.738)">
					<stop  offset="0" style="stop-color:#A737D5"/>
					<stop  offset="1" style="stop-color:#EF497A"/>
				</linearGradient>
				<path class="st40" d="M2284.9,2404.17l-9.6-19.75c-1.05-2.16-0.15-4.77,2.01-5.82l387.23-188.3c2.16-1.05,4.77-0.15,5.82,2.01
					l9.6,19.75c1.05,2.16,0.15,4.77-2.01,5.82l-387.23,188.3C2288.56,2407.23,2285.95,2406.33,2284.9,2404.17z"/>
			</g>
		</g>
		<g>
			<g>
				<g>
					
						<linearGradient id="SVGID_38_" gradientUnits="userSpaceOnUse" x1="-2013.8647" y1="3170.7566" x2="-1893.4531" y2="3170.7566" gradientTransform="matrix(1 0 0 1 2600.7053 0)">
						<stop  offset="0" style="stop-color:#2B3582"/>
						<stop  offset="1" style="stop-color:#150E42"/>
					</linearGradient>
					<path class="st41" d="M603.6,3128.33c0,0-13.38,21.09-16.75,80.14c-0.31,5.5,4.04,10.19,9.56,10.19h104.65
						c4.21,0,7.22-4.13,5.87-8.12c-6.13-18.15-24.67-62.4-66.04-87.68L603.6,3128.33z"/>
					
						<linearGradient id="SVGID_39_" gradientUnits="userSpaceOnUse" x1="-2001.6495" y1="3114.8027" x2="-1952.8153" y2="3114.8027" gradientTransform="matrix(1 0 0 1 2600.7053 0)">
						<stop  offset="0" style="stop-color:#F9B776"/>
						<stop  offset="1" style="stop-color:#F47960"/>
					</linearGradient>
					<path class="st42" d="M599.06,3088.31l5.92,49.63c0.51,4.28,3.87,7.71,8.15,8.2c5.72,0.66,14.04,1.12,22.13-0.21
						c7.35-1.21,12.64-7.76,12.64-15.21v-47.92L599.06,3088.31z"/>
					
						<linearGradient id="SVGID_40_" gradientUnits="userSpaceOnUse" x1="-1757.796" y1="3168.8313" x2="-1568.8652" y2="3168.8313" gradientTransform="matrix(1 0 0 1 2600.7053 0)">
						<stop  offset="0" style="stop-color:#2B3582"/>
						<stop  offset="1" style="stop-color:#150E42"/>
					</linearGradient>
					<path class="st43" d="M862.52,3122.86c0,0-20.03,31.13-19.6,73.87c0.1,10.07,8.53,18.08,18.59,18.08h162.53
						c7.61,0,10.7-9.78,4.47-14.15c-30.75-21.6-91.2-61.94-134.92-77.8H862.52z"/>
					
						<linearGradient id="SVGID_41_" gradientUnits="userSpaceOnUse" x1="-1754.9257" y1="3093.1182" x2="-1706.3596" y2="3093.1182" gradientTransform="matrix(1 0 0 1 2600.7053 0)">
						<stop  offset="0" style="stop-color:#F9B776"/>
						<stop  offset="1" style="stop-color:#F47960"/>
					</linearGradient>
					<path class="st44" d="M845.78,3069.26l12.62,61.29c1.41,6.86,8.12,11.47,14.95,9.94c4.15-0.93,9.05-2.7,14.29-5.98
						c4.98-3.11,7.5-9.03,6.48-14.81l-13.06-74.26L845.78,3069.26z"/>
					
						<linearGradient id="SVGID_42_" gradientUnits="userSpaceOnUse" x1="-2031.9928" y1="2662.3271" x2="-1700.9044" y2="2662.3271" gradientTransform="matrix(1 0 0 1 2600.7053 0)">
						<stop  offset="0" style="stop-color:#2B3582"/>
						<stop  offset="1" style="stop-color:#150E42"/>
					</linearGradient>
					<path class="st45" d="M622.24,2217.06c0,0-43.9,38.7-52.16,85.26c-8.26,46.56,23.41,803.33,23.41,803.33s43.89,7.3,66.52-6.41
						c0,0,26.84-491.14,47.24-604.63c0,0,106.98,508.76,136.62,600.68c0,0,42.29,5.14,55.93-2.9c0,0-28.02-659.49-63.24-776.74
						L622.24,2217.06z"/>
					<path class="st46" d="M705.97,2478.29c0.37,0,0.75-0.05,1.12-0.14c2.35-0.61,3.76-3.02,3.15-5.37l-18.65-71.52
						c-0.28-1.07-0.95-2-1.88-2.6l-40.28-25.84c-2.06-1.32-4.78-0.72-6.08,1.33c-1.31,2.05-0.72,4.77,1.32,6.09l38.84,24.91
						l18.21,69.86C702.23,2476.98,704.02,2478.29,705.97,2478.29z"/>
					
						<linearGradient id="SVGID_43_" gradientUnits="userSpaceOnUse" x1="67.0689" y1="1299.6659" x2="-543.0967" y2="2623.011" gradientTransform="matrix(1 0 0 1 1195.8167 0)">
						<stop  offset="0" style="stop-color:#53D8FF"/>
						<stop  offset="1" style="stop-color:#3840F7"/>
					</linearGradient>
					<path class="st47" d="M1055.43,1779.78c-184.79-15.34-233.09,22.9-233.09,22.9l88.8,140.19c0,0,181.57-3.59,311.68-103.86
						c-24.35-26.22-41.26-55.2-52.11-77.77C1137.17,1775.18,1098.53,1783.36,1055.43,1779.78z"/>
					
						<linearGradient id="SVGID_44_" gradientUnits="userSpaceOnUse" x1="-1429.9893" y1="1671.056" x2="-1249.4954" y2="1671.056" gradientTransform="matrix(1 0 0 1 2600.7053 0)">
						<stop  offset="0" style="stop-color:#F9B776"/>
						<stop  offset="1" style="stop-color:#F47960"/>
					</linearGradient>
					<path class="st48" d="M1344.8,1508.54c-0.25-5.92-8.27-7.53-10.79-2.17l-23.58,50.32c-4.56,9.72-6.02,20.61-4.18,31.19
						l8.27,29.29c2.47,14.28-1.26,28.91-10.31,40.23c-21.67,27.09-67.81,76.55-133.5,103.85c10.85,22.57,27.76,51.55,52.11,77.77
						c47.74-36.79,88.56-86.59,110.92-154.02c10.72-3.29,17.87-13.38,17.45-24.58L1344.8,1508.54z"/>
					
						<linearGradient id="SVGID_45_" gradientUnits="userSpaceOnUse" x1="-121.221" y1="1912.698" x2="-1476.2642" y2="2982.4705" gradientTransform="matrix(1 0 0 1 1195.8167 0)">
						<stop  offset="0" style="stop-color:#53D8FF"/>
						<stop  offset="1" style="stop-color:#3840F7"/>
					</linearGradient>
					<path class="st49" d="M1116.25,1861.06c-65.05-70.1-188.96-101.77-260.7-114.78c-31.43-5.7-62.41,11.79-73.55,41.73
						c-32.28,86.79-120.09,312.57-137.11,351.38c-13.96,31.84-28.54,62.93-37.81,82.37c-5.53,11.61-0.7,25.51,10.89,31.1
						c60.36,29.09,168.97,62.01,213,74.85c9.69,2.82,19.33-4.45,19.33-14.53c0-8.56,2.33-16.95,6.73-24.29l166.76-277.89
						c103.94,115.25,194.96,125.78,264.88,100.56c-11.76-36.34-19.45-72.74-23.14-109.21
						C1162.23,1984.64,1116.25,1861.06,1116.25,1861.06z"/>
					
						<linearGradient id="SVGID_46_" gradientUnits="userSpaceOnUse" x1="-977.4493" y1="1661.9554" x2="-1418.8607" y2="2211.1135" gradientTransform="matrix(1 0 0 1 2600.7053 0)">
						<stop  offset="0" style="stop-color:#F9B776"/>
						<stop  offset="1" style="stop-color:#F47960"/>
					</linearGradient>
					<path class="st50" d="M1465.35,1962.62l-33.77-19.74c-60.35,41.45-124.75,66.54-166.05,59.47
						c3.69,36.47,11.38,72.88,23.14,109.21C1380.79,2078.32,1465.35,1962.62,1465.35,1962.62z"/>
					
						<linearGradient id="SVGID_47_" gradientUnits="userSpaceOnUse" x1="-989.3929" y1="1837.4976" x2="-1241.3792" y2="2150.9927" gradientTransform="matrix(1 0 0 1 2600.7053 0)">
						<stop  offset="0" style="stop-color:#F9B776"/>
						<stop  offset="1" style="stop-color:#F47960"/>
					</linearGradient>
					<path class="st51" d="M1625.73,1969.72c-21-11.43-83.32-21.26-83.32-21.26s-71.63-41.91-92.25-50.16
						c-17.13-6.85-24.5,18.76-26.5,27.64c-0.41,1.81-0.6,2.93-0.6,2.93l2.65,17.03l72.36,32.16c15.49,6.88,32.58,9.36,49.39,7.16
						l77.26-10.11c1.24-0.16,2.24-1.11,2.46-2.34C1627.42,1971.56,1626.83,1970.32,1625.73,1969.72z"/>
					
						<linearGradient id="SVGID_48_" gradientUnits="userSpaceOnUse" x1="-1460.0403" y1="1417.1802" x2="-1837.7549" y2="2111.1936" gradientTransform="matrix(1 0 0 1 2600.7053 0)">
						<stop  offset="0" style="stop-color:#F9B776"/>
						<stop  offset="1" style="stop-color:#F47960"/>
					</linearGradient>
					<path class="st52" d="M954.23,1617.55l-55.41,135.22c0,0,63.67,44.07,114.9,39.88l27.66-121.59L954.23,1617.55z"/>
					<g>
						
							<linearGradient id="SVGID_49_" gradientUnits="userSpaceOnUse" x1="-1351.7108" y1="2685.4434" x2="-1518.639" y2="2906.2759" gradientTransform="matrix(0.817 -0.5767 0.5767 0.817 577.2775 -1428.4956)">
							<stop  offset="0" style="stop-color:#F9B776"/>
							<stop  offset="1" style="stop-color:#F47960"/>
						</linearGradient>
						<path class="st53" d="M1047.83,1525.36c1.27,1.8,40.09,142.04,40.09,142.04l-80.55,20.46l-56.54-127.45
							C950.84,1560.41,1026.59,1495.26,1047.83,1525.36z"/>
						<linearGradient id="SVGID_50_" gradientUnits="userSpaceOnUse" x1="1035.8083" y1="1318.9496" x2="970.7866" y2="1979.1738">
							<stop  offset="0" style="stop-color:#2B3582"/>
							<stop  offset="1" style="stop-color:#150E42"/>
						</linearGradient>
						<path class="st54" d="M981.17,1579.78l24.51,69.42c0.31,0.89,0.74,1.71,1.28,2.49c3.33,4.73,15.96,20.14,30.95,6.26
							c13.6-12.6,26.2-23.9,37.83-25.95c5.22-0.92,10.29,2.27,11.7,7.38c3.52,12.74,10.93,41.6,13.54,67.66
							c0.53,5.29-3.12,10.07-8.34,11.06c-15.73,2.99-49.09,8.36-76.93,6.4c-3.77-0.27-7.09-2.53-8.67-5.97
							c-7.67-16.77-31.19-67.65-39.93-80.81c-8.21-12.36-28.33-12.01-36.77-11.26c-2.77,0.24-5.49-0.65-7.58-2.48
							c-7.38-6.47-21.43-22.99-1.67-42.77c4.14-4.14,4.03-10.82-0.24-14.83c-8.49-7.98-17.57-22.13-3.42-39.69
							c14.37-17.84,33.35-15,44.97-10.76c4.7,1.72,9.83-0.27,12.38-4.57c1.45-2.45,3.99-4.3,8.39-3.92
							c5.93,0.51,10.91-4.44,10.81-10.39c-0.21-11.43,3.89-25.87,23.71-32.04c35.19-10.95,57.13,23.04,59.3,48.41
							c2.17,25.36-36.65,35.07-59.48,33.36c-17.36-1.3-30.24,15.9-35.42,24.22C980.46,1573.62,980.13,1576.85,981.17,1579.78z"/>
						
							<linearGradient id="SVGID_51_" gradientUnits="userSpaceOnUse" x1="-1596.196" y1="2860.3257" x2="-1462.3051" y2="2722.957" gradientTransform="matrix(0.817 -0.5767 0.5767 0.817 577.2775 -1428.4956)">
							<stop  offset="0" style="stop-color:#F9B776"/>
							<stop  offset="1" style="stop-color:#F47960"/>
						</linearGradient>
						<path class="st55" d="M976.28,1662.89c0,0-5.68-44.03-24-46.19c-18.32-2.16-36.15,12.9-17.94,37.61
							C957,1685.06,976.28,1662.89,976.28,1662.89z"/>
					</g>
				</g>
			</g>
			<g>
				
					<linearGradient id="SVGID_52_" gradientUnits="userSpaceOnUse" x1="230.6807" y1="1103.1295" x2="-1379.8652" y2="2708.6741" gradientTransform="matrix(-1 0 0 1 1629.1962 0)">
					<stop  offset="0" style="stop-color:#2C759E"/>
					<stop  offset="1" style="stop-color:#051042"/>
				</linearGradient>
				<path class="st56" d="M2467.77,1298.99l6.26,536.33l0.96,83.04c0.38,10.83-8.19,20.01-19.02,20.39l-1065.51,37.61
					c-10.83,0.38-20.03-8.17-20.41-19l-4.13-82.93l-26.35-529.07c-0.38-10.83,11.64-32.42,35.07-31.65l1040.39-63.71
					c13.58-0.82,26.92,3.94,36.89,13.21C2461.88,1272.47,2467.61,1285.4,2467.77,1298.99z"/>
				
					<linearGradient id="SVGID_53_" gradientUnits="userSpaceOnUse" x1="-182.2701" y1="1073.1792" x2="-467.3669" y2="2553.6802" gradientTransform="matrix(-1 0 0 1 1629.1962 0)">
					<stop  offset="0" style="stop-color:#9CFFFB"/>
					<stop  offset="1" style="stop-color:#9BFFFA"/>
				</linearGradient>
				<path class="st57" d="M2448.34,1902.53c0.36,10.1-7.8,18.67-18.12,19.03L1415.2,1957.4c-10.32,0.36-19.06-7.6-19.42-17.71
					l-28.62-571.13c-0.36-10.1,11.1-30.26,33.42-29.56l991.1-60.16c12.94-0.79,25.64,3.66,35.13,12.29
					c9.49,8.63,14.94,20.7,15.08,33.39L2448.34,1902.53z"/>
				<path class="st8" d="M2316.07,1931.27c-1.65,0-3.02-1.31-3.08-2.97c-0.06-1.7,1.27-3.13,2.97-3.19l113.63-4.01
					c13.79-0.49,26.84-14.57,26.35-28.43l-12.27-347.53c-0.06-1.7,1.27-3.13,2.97-3.19c1.76-0.11,3.13,1.27,3.19,2.97l12.27,347.53
					c0.61,17.28-15.08,34.19-32.29,34.8l-113.63,4.01C2316.15,1931.27,2316.11,1931.27,2316.07,1931.27z"/>
				<path class="st8" d="M1375.55,1585.93c-1.65,0-3.02-1.31-3.08-2.97l-7.35-208.31c-0.37-10.55,3.3-21.33,10.07-29.59
					c7.15-8.72,16.84-13.72,27.28-14.09l90.26-3.19c1.77-0.08,3.13,1.27,3.19,2.97c0.06,1.7-1.27,3.13-2.97,3.19l-90.26,3.19
					c-8.65,0.31-16.72,4.51-22.73,11.84c-5.83,7.12-9,16.4-8.68,25.47l7.35,208.31c0.06,1.7-1.27,3.13-2.97,3.19
					C1375.62,1585.93,1375.58,1585.93,1375.55,1585.93z"/>
				<g>
					
						<linearGradient id="SVGID_54_" gradientUnits="userSpaceOnUse" x1="933.3275" y1="1791.5486" x2="495.6651" y2="1958.0929" gradientTransform="matrix(0.9994 -0.0353 0.0353 0.9994 929.7158 -306.2733)">
						<stop  offset="0" style="stop-color:#E92556"/>
						<stop  offset="1" style="stop-color:#F9C342"/>
					</linearGradient>
					<path class="st58" d="M1631.52,1557.5c-0.38-10.89-9.52-19.4-20.41-19.02l-131.61,4.65c-10.89,0.38-19.4,9.52-19.02,20.41
						l3.53,100.1c0.38,10.89,9.52,19.4,20.41,19.02l131.61-4.65c10.89-0.38,19.4-9.52,19.02-20.41L1631.52,1557.5z"/>
					<g>
						<path class="st59" d="M1522.92,1639.31c-4.86,0-8.89-3.86-9.06-8.75l-1.17-33.03c-0.18-5,3.74-9.21,8.74-9.39l37.53-1.33
							c4.96-0.22,9.21,3.75,9.39,8.75l1.17,33.03c0.18,5-3.75,9.21-8.75,9.39l-37.53,1.33
							C1523.13,1639.31,1523.02,1639.31,1522.92,1639.31z M1559.28,1592.96c-0.03,0-0.07,0-0.1,0l-37.53,1.33
							c-1.6,0.06-2.86,1.41-2.81,3.01l1.17,33.03c0.03,0.78,0.36,1.5,0.92,2.03c0.57,0.53,1.29,0.79,2.09,0.78l37.53-1.33
							c1.6-0.06,2.86-1.41,2.81-3.01l-1.17-33.03v0C1562.14,1594.2,1560.84,1592.96,1559.28,1592.96z"/>
						<g>
							<path class="st8" d="M1462.02,1609.92c-1.65,0-3.02-1.31-3.08-2.97c-0.06-1.7,1.27-3.13,2.97-3.19l54.01-1.91
								c1.73-0.05,3.13,1.27,3.19,2.97c0.06,1.7-1.27,3.13-2.97,3.19l-54.01,1.91C1462.09,1609.91,1462.05,1609.92,1462.02,1609.92z
								"/>
							<path class="st8" d="M1462.49,1623.42c-1.65,0-3.02-1.31-3.08-2.97c-0.06-1.7,1.27-3.13,2.97-3.19l54.01-1.91
								c1.79-0.05,3.13,1.27,3.19,2.97c0.06,1.7-1.27,3.13-2.97,3.19l-54.01,1.91C1462.57,1623.42,1462.53,1623.42,1462.49,1623.42z
								"/>
						</g>
						<g>
							<path class="st8" d="M1574.54,1605.94c-1.65,0-3.02-1.31-3.08-2.97c-0.06-1.7,1.27-3.13,2.97-3.19l58.51-2.06
								c1.79-0.06,3.13,1.27,3.19,2.97c0.06,1.7-1.27,3.13-2.97,3.19l-58.51,2.06C1574.61,1605.94,1574.57,1605.94,1574.54,1605.94z
								"/>
							<path class="st8" d="M1575.02,1619.45c-1.65,0-3.02-1.31-3.08-2.97c-0.06-1.7,1.27-3.13,2.97-3.19l58.51-2.07
								c1.77-0.06,3.13,1.27,3.19,2.97c0.06,1.7-1.27,3.13-2.97,3.19l-58.51,2.07C1575.09,1619.44,1575.05,1619.45,1575.02,1619.45z
								"/>
						</g>
						<g>
							<g>
								<path class="st8" d="M1527.85,1594.28c-1.35,0-2.59-0.9-2.97-2.26l-13.33-48.57c-0.45-1.64,0.51-3.34,2.15-3.79
									c1.64-0.45,3.34,0.51,3.79,2.15l13.33,48.57c0.45,1.64-0.51,3.34-2.15,3.79
									C1528.39,1594.25,1528.12,1594.28,1527.85,1594.28z"/>
								<path class="st8" d="M1559.22,1593.18c-0.21,0-0.42-0.02-0.63-0.07c-1.67-0.35-2.73-1.98-2.39-3.64l10.3-49.41
									c0.35-1.67,1.98-2.73,3.64-2.39c1.67,0.35,2.73,1.98,2.39,3.64l-10.3,49.41
									C1561.93,1592.18,1560.65,1593.18,1559.22,1593.18z"/>
							</g>
							<g>
								<path class="st8" d="M1519.48,1686.21c-0.2,0-0.4-0.02-0.61-0.06c-1.67-0.33-2.75-1.96-2.42-3.62l9.87-49.39
									c0.33-1.67,1.96-2.75,3.62-2.42c1.67,0.33,2.75,1.96,2.42,3.62l-9.87,49.39C1522.21,1685.2,1520.92,1686.21,1519.48,1686.21
									z"/>
								<path class="st8" d="M1574.47,1684.27c-1.34,0-2.58-0.89-2.96-2.24l-13.76-48.56c-0.46-1.64,0.49-3.34,2.12-3.8
									c1.64-0.46,3.34,0.49,3.8,2.12l13.76,48.56c0.46,1.64-0.49,3.34-2.12,3.8C1575.03,1684.23,1574.75,1684.27,1574.47,1684.27z
									"/>
							</g>
						</g>
					</g>
				</g>
				<linearGradient id="SVGID_55_" gradientUnits="userSpaceOnUse" x1="1556.6614" y1="1334.4651" x2="1741.7244" y2="799.2831">
					<stop  offset="0" style="stop-color:#53D8FF"/>
					<stop  offset="1" style="stop-color:#3840F7"/>
				</linearGradient>
				<path class="st60" d="M1626.35,1410.86c0.46,12.93-9.65,23.78-22.58,24.23l-146.72,5.18c-12.93,0.46-23.78-9.65-24.23-22.58
					l-0.1-2.69c-0.46-12.93,9.65-23.78,22.58-24.23l146.72-5.18c12.93-0.46,23.78,9.65,24.23,22.58L1626.35,1410.86z"/>
				<g class="st61">
					<linearGradient id="SVGID_56_" gradientUnits="userSpaceOnUse" x1="1458.4797" y1="2316.25" x2="1668.5516" y2="1035.8141">
						<stop  offset="0" style="stop-color:#53D8FF"/>
						<stop  offset="1" style="stop-color:#3840F7"/>
					</linearGradient>
					<path class="st62" d="M1652.28,1762.52c0.44,12.34-9.21,22.69-21.55,23.12l-162.37,5.73c-12.34,0.44-22.69-9.21-23.12-21.55
						l-0.01-0.34c-0.44-12.34,9.21-22.69,21.55-23.12l162.37-5.73c12.34-0.44,22.69,9.21,23.12,21.55L1652.28,1762.52z"/>
					<linearGradient id="SVGID_57_" gradientUnits="userSpaceOnUse" x1="1685.0706" y1="2353.425" x2="1895.1425" y2="1072.989">
						<stop  offset="0" style="stop-color:#53D8FF"/>
						<stop  offset="1" style="stop-color:#3840F7"/>
					</linearGradient>
					<path class="st63" d="M1886.33,1754.26c0.44,12.34-9.21,22.69-21.55,23.12l-162.37,5.73c-12.34,0.44-22.69-9.21-23.12-21.55
						l-0.01-0.34c-0.44-12.34,9.21-22.69,21.55-23.12l162.37-5.73c12.34-0.44,22.69,9.21,23.12,21.55L1886.33,1754.26z"/>
					<linearGradient id="SVGID_58_" gradientUnits="userSpaceOnUse" x1="1911.6614" y1="2390.6001" x2="2121.7332" y2="1110.1639">
						<stop  offset="0" style="stop-color:#53D8FF"/>
						<stop  offset="1" style="stop-color:#3840F7"/>
					</linearGradient>
					<path class="st64" d="M2120.37,1746c0.44,12.34-9.21,22.69-21.55,23.12l-162.37,5.73c-12.34,0.44-22.69-9.21-23.12-21.55
						l-0.01-0.34c-0.44-12.34,9.21-22.69,21.55-23.12l162.37-5.73c12.34-0.44,22.69,9.21,23.12,21.55L2120.37,1746z"/>
					<linearGradient id="SVGID_59_" gradientUnits="userSpaceOnUse" x1="2142.6099" y1="2428.4897" x2="2352.6816" y2="1148.0537">
						<stop  offset="0" style="stop-color:#53D8FF"/>
						<stop  offset="1" style="stop-color:#3840F7"/>
					</linearGradient>
					<path class="st65" d="M2358.92,1737.57c0.44,12.34-9.21,22.69-21.55,23.12l-162.37,5.73c-12.34,0.44-22.69-9.21-23.12-21.55
						l-0.01-0.34c-0.44-12.34,9.21-22.69,21.55-23.12l162.37-5.73c12.34-0.44,22.69,9.21,23.12,21.55L2358.92,1737.57z"/>
				</g>
				<g class="st61">
					<linearGradient id="SVGID_60_" gradientUnits="userSpaceOnUse" x1="1471.2141" y1="1861.9272" x2="1808.8195" y2="1861.9272">
						<stop  offset="0" style="stop-color:#9CFFFB"/>
						<stop  offset="1" style="stop-color:#9BFFFA"/>
					</linearGradient>
					<path class="st66" d="M1808.81,1856.21c0.35,9.81-7.32,18.04-17.13,18.39l-302.05,10.66c-9.81,0.35-18.04-7.32-18.39-17.13
						l-0.02-0.49c-0.35-9.81,7.32-18.04,17.13-18.39l302.05-10.66c9.81-0.35,18.04,7.32,18.39,17.13L1808.81,1856.21z"/>
					<linearGradient id="SVGID_61_" gradientUnits="userSpaceOnUse" x1="2168.5317" y1="1831.3164" x2="2335.1038" y2="1831.3164">
						<stop  offset="0" style="stop-color:#9CFFFB"/>
						<stop  offset="1" style="stop-color:#9BFFFA"/>
					</linearGradient>
					<path class="st67" d="M2335.09,1828.62c0.35,9.81-7.32,18.04-17.13,18.39l-131.02,4.63c-9.81,0.35-18.04-7.32-18.39-17.13
						l-0.02-0.49c-0.35-9.81,7.32-18.04,17.13-18.39l131.02-4.63c9.81-0.35,18.04,7.32,18.39,17.13L2335.09,1828.62z"/>
				</g>
			</g>
		</g>
	</g>
</g>
</svg>
