<?xml version="1.0" encoding="utf-8"?>
<!-- Generator: Adobe Illustrator 25.0.0, SVG Export Plug-In . SVG Version: 6.00 Build 0)  -->
<svg version="1.1" xmlns="http://www.w3.org/2000/svg" xmlns:xlink="http://www.w3.org/1999/xlink" x="0px" y="0px"
	 viewBox="0 0 3710 3710" style="enable-background:new 0 0 3710 3710;" xml:space="preserve">
<style type="text/css">
	.st0{fill:#E8EEF7;}
	.st1{clip-path:url(#SVGID_3_);}
	.st2{fill:#FFFFFF;}
	.st3{clip-path:url(#SVGID_6_);}
	.st4{clip-path:url(#SVGID_9_);}
	.st5{clip-path:url(#SVGID_13_);}
	.st6{clip-path:url(#SVGID_14_);}
	.st7{fill:#97A6B7;}
	.st8{fill:#D8DEE8;}
	.st9{opacity:0.3;}
	.st10{fill:#F4F7FA;}
	.st11{opacity:0.3;fill:#97A6B7;}
	.st12{opacity:0.3;fill:#FFFFFF;}
	.st13{fill:#AABBCC;}
	.st14{fill:url(#SVGID_16_);}
	.st15{fill:url(#SVGID_17_);}
	.st16{fill:url(#SVGID_18_);}
	.st17{fill:url(#SVGID_19_);}
	.st18{fill:url(#SVGID_20_);}
	.st19{fill:url(#SVGID_21_);}
	.st20{fill:url(#SVGID_22_);}
	.st21{fill:url(#SVGID_23_);}
	.st22{fill:url(#SVGID_24_);}
	.st23{fill:#26264F;}
	.st24{fill:url(#SVGID_25_);}
	.st25{fill:url(#SVGID_26_);}
	.st26{fill:url(#SVGID_27_);}
	.st27{fill:url(#SVGID_28_);}
	.st28{fill:url(#SVGID_29_);}
	.st29{fill:url(#SVGID_30_);}
	.st30{fill:url(#SVGID_31_);}
	.st31{fill:url(#SVGID_32_);}
	.st32{fill:url(#SVGID_33_);}
	.st33{fill:url(#SVGID_34_);}
	.st34{fill:url(#SVGID_35_);}
	.st35{fill:url(#SVGID_36_);}
	.st36{opacity:0.3;fill:url(#SVGID_37_);}
	.st37{fill:url(#SVGID_38_);}
	.st38{fill:url(#SVGID_39_);}
	.st39{fill:url(#SVGID_40_);}
	.st40{fill:url(#SVGID_41_);}
	.st41{opacity:0.3;fill:url(#SVGID_42_);}
</style>
<g id="Background">
</g>
<g id="Illustration">
	<g>
		<g>
			<path class="st0" d="M1923.65,861.99l-37.76,2.55c-4.33-16.85-10.03-33.13-17.09-48.65l31.33-21.03
				c8.55-5.74,10.74-17.35,4.91-25.93l-36.54-53.76c-5.85-8.61-17.54-10.95-26.12-5.22l-31.75,21.19
				c-12.06-12.35-25.15-23.68-39.17-33.83l16.74-34.37c4.51-9.27,0.56-20.53-8.83-25.15l-58.83-28.95
				c-9.42-4.64-20.75-0.88-25.29,8.41l-16.86,34.49c-16.49-4.8-33.55-8.16-51.01-10.1l-2.93-38.67
				c-0.79-10.38-9.93-18.3-20.42-17.68l-65.76,3.88c-10.54,0.62-18.44,9.57-17.65,19.98l2.94,38.79
				c-17.12,4.05-33.67,9.47-49.45,16.27l-22.18-32.34c-5.98-8.72-17.95-11.12-26.73-5.35l-55.04,36.14
				c-8.82,5.79-11.1,17.57-5.09,26.3l22.25,32.34c-12.64,11.94-24.18,24.97-34.53,38.91l-35.61-17.2
				c-9.64-4.66-21.23-0.8-25.88,8.61l-29.13,58.94c-4.67,9.44-0.61,20.85,9.06,25.49l35.35,16.96c-4.82,16.57-8.13,33.72-9.96,51.27
				l-39.14,2.64c-10.71,0.72-18.76,9.82-17.96,20.33l4.98,65.68c0.8,10.5,10.13,18.4,20.84,17.65l38.82-2.73
				c4.38,17.23,10.2,33.84,17.42,49.67l-31.93,21.31c-8.87,5.92-11.16,17.77-5.12,26.47l37.73,54.33
				c6.03,8.68,18.08,10.9,26.92,4.97l31.68-21.26c12.43,12.59,25.97,24.06,40.43,34.31l-16.56,33.87
				c-4.63,9.47-0.59,20.81,9.01,25.33l59.92,28.22c9.56,4.5,21.05,0.49,25.65-8.96l16.34-33.56c16.91,4.68,34.39,7.84,52.24,9.52
				l2.81,37.09c0.79,10.41,9.97,18.18,20.49,17.35l65.66-5.18c10.48-0.83,18.33-9.91,17.54-20.3l-2.81-36.98
				c17.27-4.39,33.92-10.16,49.75-17.33l20.96,30.46c5.89,8.57,17.67,10.74,26.29,4.86l53.85-36.72c8.59-5.86,10.8-17.54,4.94-26.1
				l-21.02-30.65c12.45-12.15,23.81-25.33,33.93-39.44l33.6,16.13c9.35,4.49,20.57,0.57,25.06-8.75l28.04-58.21
				c4.48-9.3,0.55-20.48-8.77-24.99l-33.67-16.26c4.58-16.42,7.71-33.39,9.36-50.75l37.45-2.64c10.31-0.73,18.02-9.66,17.24-19.95
				l-4.89-64.38C1942.94,869.08,1933.96,861.29,1923.65,861.99z M1583.26,746.31c105.83-6.72,197.58,72.52,205.51,176.95
				c7.92,104.43-70.91,195.43-176.65,203.29c-106.39,7.91-199.6-71.22-207.61-176.8C1396.49,844.17,1476.78,753.07,1583.26,746.31z"
				/>
			<path class="st0" d="M2327.2,742.95l-17.16,1.16c-1.97-7.66-4.56-15.06-7.77-22.11l14.24-9.56c3.88-2.61,4.88-7.88,2.23-11.79
				l-16.61-24.43c-2.66-3.91-7.97-4.98-11.87-2.37l-14.43,9.63c-5.48-5.61-11.43-10.76-17.8-15.38l7.61-15.62
				c2.05-4.21,0.26-9.33-4.01-11.43l-26.74-13.16c-4.28-2.11-9.43-0.4-11.49,3.82l-7.66,15.67c-7.49-2.18-15.25-3.71-23.18-4.59
				l-1.33-17.58c-0.36-4.72-4.51-8.32-9.28-8.03l-29.89,1.76c-4.79,0.28-8.38,4.35-8.02,9.08l1.34,17.63
				c-7.78,1.84-15.3,4.3-22.47,7.39l-10.08-14.7c-2.72-3.96-8.16-5.05-12.15-2.43l-25.01,16.43c-4.01,2.63-5.04,7.99-2.31,11.95
				l10.11,14.7c-5.74,5.43-10.99,11.35-15.69,17.68l-16.18-7.82c-4.38-2.12-9.65-0.37-11.76,3.91l-13.24,26.79
				c-2.12,4.29-0.28,9.48,4.12,11.58l16.06,7.71c-2.19,7.53-3.69,15.33-4.52,23.3l-17.79,1.2c-4.87,0.33-8.53,4.46-8.16,9.24
				l2.27,29.85c0.36,4.77,4.6,8.36,9.47,8.02l17.64-1.24c1.99,7.83,4.63,15.38,7.92,22.58l-14.51,9.69
				c-4.03,2.69-5.07,8.08-2.33,12.03l17.15,24.69c2.74,3.94,8.22,4.95,12.23,2.26l14.4-9.66c5.65,5.72,11.8,10.94,18.37,15.59
				l-7.53,15.39c-2.1,4.3-0.27,9.46,4.09,11.51l27.23,12.83c4.35,2.05,9.56,0.22,11.66-4.07l7.43-15.25
				c7.68,2.13,15.63,3.56,23.74,4.33l1.28,16.86c0.36,4.73,4.53,8.26,9.31,7.89l29.84-2.35c4.76-0.38,8.33-4.51,7.97-9.22
				l-1.28-16.81c7.85-1.99,15.42-4.62,22.61-7.88l9.53,13.85c2.68,3.89,8.03,4.88,11.95,2.21L2281.2,899
				c3.91-2.66,4.91-7.97,2.24-11.86l-9.55-13.93c5.66-5.52,10.82-11.51,15.42-17.92l15.27,7.33c4.25,2.04,9.35,0.26,11.39-3.98
				l12.74-26.46c2.04-4.23,0.25-9.31-3.99-11.36l-15.3-7.39c2.08-7.46,3.5-15.17,4.25-23.07l17.02-1.2
				c4.68-0.33,8.19-4.39,7.84-9.07l-2.22-29.26C2335.96,746.17,2331.88,742.63,2327.2,742.95z M2172.49,690.37
				c48.1-3.05,89.8,32.96,93.4,80.42c3.6,47.46-32.23,88.82-80.29,92.39c-48.35,3.6-90.71-32.37-94.35-80.35
				C2087.61,734.85,2124.1,693.45,2172.49,690.37z"/>
		</g>
		<g>
			<g>
				<g>
					<defs>
						<path id="SVGID_1_" d="M1540.15,2718.81c32.77-127.98,61.9-321.97-1.19-531c-72.44-240.03-200.25-280.51-329.42-533.64
							c-184.38-361.34-21.6-642.78-194.44-745.47c-84.29-50.08-211.03-41.7-285.48,19.15
							c-212.39,173.61-105.29,861.22,266.38,1107.61c168.09,111.44,306.73,87.67,437.28,237.66
							C1548.65,2405.64,1552.57,2590.33,1540.15,2718.81z"/>
					</defs>
					<linearGradient id="SVGID_2_" gradientUnits="userSpaceOnUse" x1="1446.7656" y1="1310.4701" x2="1056.3289" y2="1939.1876">
						<stop  offset="0" style="stop-color:#FF9085"/>
						<stop  offset="1" style="stop-color:#FB6FBB"/>
					</linearGradient>
					<use xlink:href="#SVGID_1_"  style="overflow:visible;fill:url(#SVGID_2_);"/>
					<clipPath id="SVGID_3_">
						<use xlink:href="#SVGID_1_"  style="overflow:visible;"/>
					</clipPath>
					<g class="st1">
						<g>
							<path class="st2" d="M1544.24,2402.02l4.01-1.31c-16.97-51.99-38.53-102.78-64.07-150.94
								c-58.73-110.74-119.24-169.68-195.84-244.28c-49.75-48.46-106.14-103.38-172.35-183.05
								C992.15,1673.43,953.31,1620.81,916,1534.52c-73.9-170.87-74.77-328.42-68.71-407.12c8.6-111.65,38.71-219.36,89.49-320.12
								l-3.76-1.9c-51.04,101.26-81.29,209.49-89.93,321.69c-6.09,79.09-5.22,237.42,69.04,409.12
								c37.53,86.77,76.48,139.56,200.62,288.94c66.35,79.84,122.83,134.84,172.65,183.37c76.34,74.35,136.64,133.08,195.05,243.24
								C1505.88,2299.69,1527.34,2350.25,1544.24,2402.02z"/>
						</g>
						<g>
							<path class="st2" d="M873.53,1414.13l-0.17-3.46c-6.28-128.97,70.53-217.83,136.07-269.67
								c71.16-56.28,144.71-82.29,145.44-82.54l-1.39-3.98c-0.74,0.26-74.96,26.5-146.67,83.22
								c-65.71,51.97-142.62,140.79-137.82,269.63c-14.08-7.09-73.05-38.9-128.35-99.79c-58.09-63.96-123.89-174.05-107.54-335.31
								l-4.19-0.42c-16.51,162.88,50.02,274.08,108.73,338.69c63.59,69.97,132.05,101.89,132.73,102.2L873.53,1414.13z"/>
						</g>
						<g>
							<path class="st2" d="M932.93,1825.44c85.36-8.42,146.82-40.94,147.92-41.54l1.56-0.84l-0.56-1.68
								c-79.6-237.91,73.38-372.83,74.94-374.16l-2.75-3.2c-0.39,0.34-39.82,34.65-68.69,98.19
								c-26.51,58.34-49.33,153.97-8.07,278.79c-19.04,9.63-206.99,99.28-377.79-16.32l-2.36,3.49
								C778.44,1823.21,863.58,1832.28,932.93,1825.44z"/>
						</g>
						<g>
							<path class="st2" d="M1097.81,2057.84c115.45-11.39,171.01-67.44,171.8-68.27l1.04-1.09l-0.7-1.34
								c-64.63-124.75-0.32-340.27,0.34-342.43l-4.03-1.23c-0.66,2.17-64.98,217.75-0.76,344.2
								c-12.18,11.5-128.08,112.68-361.61,44.55l-1.18,4.05C980.44,2058.96,1045.32,2063.02,1097.81,2057.84z"/>
						</g>
					</g>
				</g>
			</g>
			<g>
				<g>
					<defs>
						<path id="SVGID_4_" d="M2339.05,2698.17c-71.16-76.03-168.34-204.06-178.43-369.83c-17.6-289.2,249.68-367.74,312.52-732.11
							c50.69-293.88-96.44-397.8,12.97-643.64c18.31-41.15,112.16-262.97,280.88-279.68c95.07-9.42,171.69,50.37,186.08,61.59
							c217.39,169.63,223.11,658.53,38.09,1007.36c-106.3,200.42-179.42,206.9-401.97,506.42
							C2458.42,2424.28,2382.23,2589.39,2339.05,2698.17z"/>
					</defs>
					<linearGradient id="SVGID_5_" gradientUnits="userSpaceOnUse" x1="2870.3577" y1="972.627" x2="2334.321" y2="2571.9529">
						<stop  offset="3.597120e-03" style="stop-color:#E38DDD"/>
						<stop  offset="1" style="stop-color:#9571F6"/>
					</linearGradient>
					<use xlink:href="#SVGID_4_"  style="overflow:visible;fill:url(#SVGID_5_);"/>
					<clipPath id="SVGID_6_">
						<use xlink:href="#SVGID_4_"  style="overflow:visible;"/>
					</clipPath>
					<g class="st3">
						<g>
							<path class="st2" d="M2382.65,2817.63l-3.44,1.38c-93.78-232.62-104.71-423.67-32.47-567.84
								c35.36-70.57,77.35-106.02,121.81-143.56c47.82-40.37,97.26-82.12,139.37-171.92c40.92-87.28,38.86-143.64,36.25-215
								c-2.35-64.18-5.27-144.06,22.65-271.69c24.47-111.86,53.76-176.12,79.61-232.82c28-61.42,50.11-109.93,55.59-196.27
								c8.95-141.02-33.74-285.68-126.87-429.98l3.11-2.01c93.57,144.98,136.45,290.4,127.45,432.23
								c-5.52,87.01-27.76,135.8-55.92,197.57c-25.77,56.53-54.98,120.6-79.36,232.08c-27.82,127.16-24.9,206.78-22.56,270.76
								c2.63,71.86,4.71,128.62-36.59,216.71c-42.45,90.54-92.21,132.55-140.33,173.18c-44.16,37.28-85.87,72.5-120.89,142.39
								C2278.32,2396,2289.28,2586.03,2382.65,2817.63z"/>
						</g>
						<g>
							<path class="st2" d="M2735.79,1244.58l-0.66-2.39c-0.96-3.48-98.48-348.19-281.14-395.69l0.93-3.59
								c96.66,25.13,168.69,132.19,212.1,217.56c42.6,83.8,66.73,163.68,70.99,178.34c158.17-99.49,234.46-235.36,270.63-332.03
								c39.39-105.26,41.04-188.03,41.05-188.86l3.7,0.06c-0.01,0.83-1.65,84.13-41.23,189.96
								c-36.53,97.67-113.76,235.14-274.28,335.32L2735.79,1244.58z"/>
						</g>
						<g>
							<path class="st2" d="M2906.12,1480.01c-15.98,9.94-31.45,18.82-46.17,26.71c-115.62,62.04-210.97,78.75-211.92,78.91
								l-1.57,0.27l-0.5-1.51c-57.82-175.07-234.22-361.38-235.99-363.24l2.68-2.56c1.78,1.86,177.71,187.69,236.32,363.1
								c12.8-2.43,102.33-20.85,209.35-78.3c106.18-56.99,251.81-165.18,342.58-356.87l3.35,1.58
								C3125.6,1314.2,3005.99,1417.88,2906.12,1480.01z"/>
						</g>
						<g>
							<path class="st2" d="M2997.58,1917.23c-264.31,164.43-483.21,156.6-485.54,156.5l-1.95-0.09l0.19-1.94
								c20.81-211.93-174-409.14-175.97-411.1l2.62-2.63c1.97,1.98,196.8,199.21,177.23,412.11c23.9,0.43,262.11-0.55,535.36-191.56
								l2.13,3.04C3033.45,1894.26,3015.4,1906.14,2997.58,1917.23z"/>
						</g>
					</g>
				</g>
			</g>
			<g>
				<g>
					<defs>
						<path id="SVGID_7_" d="M1998.58,2654.6c38.51-58.89,104.34-148.01,205.62-234.92c180.15-154.58,292.65-147.86,346.94-270.22
							c56.19-126.65-37.78-193.74,32.33-338.01c5.9-12.13,82.28-164.21,203.98-165.56c85.14-0.94,146.75,72.4,175.66,106.81
							c112.19,133.55,172.08,379.93,52.53,559.02c-113.34,169.79-330.63,193.63-399.79,200.75
							c-121.33,12.5-163.87-20.25-285.93-4.21C2181.5,2527.76,2068.91,2599.25,1998.58,2654.6z"/>
					</defs>
					<linearGradient id="SVGID_8_" gradientUnits="userSpaceOnUse" x1="3047.9333" y1="1846.0234" x2="1548.0846" y2="3078.0437">
						<stop  offset="0" style="stop-color:#FF9085"/>
						<stop  offset="1" style="stop-color:#FB6FBB"/>
					</linearGradient>
					<use xlink:href="#SVGID_7_"  style="overflow:visible;fill:url(#SVGID_8_);"/>
					<clipPath id="SVGID_9_">
						<use xlink:href="#SVGID_7_"  style="overflow:visible;"/>
					</clipPath>
					<g class="st4">
						<defs>
							<path id="SVGID_10_" d="M1968.15,2706.12l-3.12-2c93.15-145.14,202.75-238.87,325.43-278.53
								c53.69-17.35,95.08-19.89,135.12-22.35c50.04-3.07,97.3-5.98,166.05-35.87c123.71-53.8,214.52-137.89,255.7-236.78
								c63.79-153.15,15.01-349.93-124.27-501.3l2.73-2.51c140.25,152.44,189.3,350.75,124.96,505.24
								c-41.56,99.77-133.05,184.56-257.64,238.75c-69.33,30.16-116.92,33.08-167.3,36.17c-39.8,2.45-80.96,4.97-134.2,22.18
								C2169.68,2468.49,2060.83,2561.73,1968.15,2706.12z"/>
						</defs>
						<defs>
							<path id="SVGID_11_" d="M2871.83,2040.49l-0.82-2.73c-33.29-110.2-129.12-166.54-203.65-194.41
								c-80.96-30.27-155-34.43-155.74-34.47l0.19-3.7c0.74,0.04,75.27,4.21,156.75,34.66c74.72,27.92,170.64,84.22,205.13,194.07
								c19.93-18.13,171.23-162.15,126.15-314.01l3.55-1.06c48.66,163.95-127.63,318.24-129.41,319.78L2871.83,2040.49z"/>
						</defs>
						<defs>
							<path id="SVGID_12_" d="M2911.74,2304.87c-25.3,8.85-48.79,14.69-69.77,18.49c-92.46,16.74-157.41-1.64-158.06-1.83
								l-1.74-0.5l0.47-1.75c29.32-110.64-17.66-201.35-62.23-257.96c-48.41-61.49-104.53-97.21-105.1-97.56l1.97-3.14
								c0.57,0.36,57.16,36.36,105.97,98.32c44.89,56.99,92.18,148.15,63.43,259.5c10.88,2.75,71.55,16.36,154.82,1.24
								c84.59-15.36,210.47-64.33,329.84-210.47l2.87,2.35C3083.64,2222.45,2989.24,2277.75,2911.74,2304.87z"/>
						</defs>
						<use xlink:href="#SVGID_10_"  style="overflow:visible;fill:#FFFFFF;"/>
						<use xlink:href="#SVGID_11_"  style="overflow:visible;fill:#FFFFFF;"/>
						<use xlink:href="#SVGID_12_"  style="overflow:visible;fill:#FFFFFF;"/>
						<clipPath id="SVGID_13_">
							<use xlink:href="#SVGID_10_"  style="overflow:visible;"/>
						</clipPath>
						<clipPath id="SVGID_14_" class="st5">
							<use xlink:href="#SVGID_11_"  style="overflow:visible;"/>
						</clipPath>
						<clipPath id="SVGID_15_" class="st6">
							<use xlink:href="#SVGID_12_"  style="overflow:visible;"/>
						</clipPath>
					</g>
				</g>
			</g>
		</g>
		<g>
			<path class="st7" d="M2668.79,1078.32l-5.28,1792.26c-0.26,87.86-71.03,164.19-159.38,168.76l-1257.75,65.07
				c-93.71,4.85-170.07-66.44-170.07-157.38V1091.6c0-86.12,67.73-157.15,154.02-165.76c5.52-0.55,11.13-0.74,16.78-0.77
				l1262.62-6.03C2598.41,918.62,2669.05,989.82,2668.79,1078.32z"/>
			<path class="st8" d="M2761.69,1077.37l-5.51,1790.69c-0.27,87.79-67.24,163.85-155.42,168.41l-1255.16,64.88
				c-93.52,4.83-173.56-66.18-173.55-157.05l0.25-1853.68c0.01-86.04,69.51-157.01,155.63-165.61c5.51-0.55,13.03-0.75,18.67-0.78
				l1260.07-6.03C2695.19,917.78,2761.97,988.95,2761.69,1077.37z"/>
			<g class="st9">
				<path class="st7" d="M2761.7,1074.83l-1.38,450.09l-1588.08,29.04l0.06-465.97c0.01-83.98,66.34-152.31,149.53-163.55
					c7.45-1.03,17.03-0.17,24.77-0.2l1260.07-6.03C2695.19,917.78,2761.97,986.4,2761.7,1074.83z"/>
				<path class="st7" d="M2760.74,1386.59l-0.57,187.02c-159.57,47.96-450.07,83.57-778.42,90.47c-143.36,3.01-281,0.29-404.59-7.23
					c-163.42-9.96-300.38-28.28-404.93-52.48l0.03-193.61c39.28-9.56,75.44-18.46,118.44-26.76
					c93.78-18.11,207.26-33.06,332.01-43.7c112.1-9.58,234.48-15.64,361.46-17.36c164.58-2.23,318.59,3.07,451.88,14.28
					c10.4,0.85,20.79,1.78,30.93,2.71c32.05,2.97,62.89,6.29,92.24,9.96c10.4,1.28,20.64,2.61,30.67,4
					c23.08,3.16,42.94,6.54,63.98,10.11C2694.29,1370.83,2730.18,1378.38,2760.74,1386.59z"/>
			</g>
			<path class="st2" d="M2681.01,1428.89c-0.08,26.71-21.77,48.73-48.49,49.19l-1304.41,22.43c-28.31,0.49-51.29-21.44-51.28-48.98
				l0.1-312.1c0.01-27.57,23.01-50.12,51.35-50.36l1305.37-10.88c26.73-0.22,48.32,21.28,48.24,48.02L2681.01,1428.89z"/>
			<path class="st10" d="M2650.34,1422.63c-0.05,16.88-13.77,30.79-30.65,31.07l-1297.42,21.6c-17.88,0.3-32.39-13.56-32.38-30.95
				l0.11-310.76c0.01-17.41,14.53-31.65,32.43-31.8l1298.29-11.18c16.9-0.15,30.55,13.44,30.5,30.34L2650.34,1422.63z"/>
			<g>
				<g>
					<g class="st9">
						<path class="st7" d="M2465.77,1242.18c-0.02,8.33-6.82,13.74-15.18,13.81l-0.7,0.01c-8.37,0.07-15.14-5.11-15.12-13.45
							l0.15-61.94c0.02-8.34,6.82-14.6,15.19-14.69l0.7-0.01c8.37-0.09,15.13,6.04,15.11,14.37L2465.77,1242.18z"/>
						<path class="st7" d="M2589.33,1240.96c-0.02,8.31-6.78,13.96-15.1,14.03l-0.7,0.01c-8.32,0.07-15.05-5.35-15.03-13.66
							l0.17-61.95c0.02-8.32,6.79-14.74,15.11-14.83l0.7-0.01c8.32-0.09,15.04,6.2,15.02,14.52L2589.33,1240.96z"/>
					</g>
					<g>
						<path class="st11" d="M2465.43,1380.86c-0.02,8.33-6.81,16.66-15.18,16.69l-0.7,0c-8.37,0.03-15.13-7.9-15.11-16.24
							l0.15-63.72c0.02-8.34,6.82-16.5,15.19-16.55l0.7,0c8.36-0.06,15.12,7.81,15.1,16.14L2465.43,1380.86z"/>
						<path class="st11" d="M2588.96,1379.74c-0.02,8.31-6.78,10.88-15.1,17.38l-0.7,0c-8.32,0.03-15.05-8.61-15.03-16.92
							l0.17-66.74c0.02-8.32,6.79-19.64,15.11-19.7l0.7,0c8.32-0.06,15.04,10.98,15.02,19.29L2588.96,1379.74z"/>
					</g>
				</g>
				<g>
					<path class="st11" d="M2558.84,1273.25c0,8.32-7,15.2-15.33,15.3l-59.4,0.84c-8.36,0.11-11.99-6.53-11.99-14.87v-0.7
						c0-8.34,3.61-15.18,11.96-15.28l61.13-0.82c8.33-0.1,13.63,6.51,13.63,14.82V1273.25z"/>
					<g>
						<path class="st11" d="M2558.84,1143.81c0,8.32-6.83,15.18-15.16,15.27l-59.5,0.64c-8.36,0.08-12.07-6.59-12.07-14.93v-0.7
							c0-8.34,3.77-15.15,12.13-15.23l61.05-0.63c8.33-0.08,13.54,6.56,13.54,14.88V1143.81z"/>
						<path class="st11" d="M2558.84,1408.79c0,8.31-7.18,15.21-15.51,15.34l-62.64,0.98c-8.35,0.13-15.23-6.53-15.23-14.86v-0.7
							c0-8.33,6.76-15.14,15.11-15.27l62.87-0.98c8.33-0.13,15.4,6.48,15.4,14.79V1408.79z"/>
					</g>
				</g>
			</g>
			<path class="st12" d="M2079.3,2949.14c-5.18,29.21-13.72,58.58-26.53,86.12c-4.55,9.78-9.7,19.96-15.35,30.34l-691.81,35.76
				c-93.52,4.83-173.56-66.18-173.55-157.05l0.25-1856.31c0.01-83.98,66.34-153.73,149.53-164.96c2.02,0.59,5.03,1.24,7.08,1.88
				c87.9,27.55,184.1,79.11,241.75,175.68c36.1,60.4,57.58,138.53,52.77,239.69c-1.22,26.15-4.09,53.87-9.01,83.23
				c-2.87,17.06-5.73,34.49-8.65,52.25c-3.64,22.18-7.23,44.86-10.72,67.93c-5.55,36.92-10.66,74.8-14.78,113.08
				c-3.93,36.69-6.91,73.77-8.41,110.77c-0.27,7.14-0.52,14.31-0.68,21.45c-0.58,23.14-0.52,46.19,0.32,69.06
				c0.55,15.66,1.47,31.21,2.76,46.64c7.33,86.83,27.15,169.83,66.92,242.58c30.11,55.03,75.49,97.7,123.24,137.37
				c12.61,10.46,25.38,20.73,38.08,30.97c43.61,35.13,85.25,71.58,122.36,112.24c0.92,1,1.83,2.02,2.72,3.02
				c17.98,19.94,34.87,40.9,50.38,63.25c17.25,24.83,31.71,50.98,43.83,78.19c4.68,10.45,9,21.1,13,31.86
				c6.91,18.47,12.85,37.42,18.03,56.72c2.33,8.66,4.61,17.45,6.78,26.34c0.1,0.33,0.21,0.68,0.26,1.04
				c8.77,35.28,16.34,72.11,21.01,109.44C2087.16,2848.15,2088.08,2899.5,2079.3,2949.14z"/>
			<g>
				<g>
					<g>
						<path class="st7" d="M1574.56,1877.84c-0.02,18.42-15.32,33.74-34.2,34.24l-229.11,6c-19.08,0.5-34.56-14.12-34.55-32.65
							l0.03-84.64c0.01-18.54,15.5-33.93,34.58-34.37l229.17-5.25c18.88-0.43,34.17,14.15,34.15,32.58L1574.56,1877.84z"/>
						<path class="st7" d="M1951.05,1868.25c-0.03,18.27-15.1,33.47-33.67,33.95l-225.37,5.9c-18.77,0.49-33.98-14.01-33.96-32.39
							l0.09-83.95c0.02-18.39,15.27-33.65,34.04-34.08l225.44-5.17c18.58-0.43,33.6,14.04,33.57,32.32L1951.05,1868.25z"/>
						<path class="st7" d="M2308.99,1859.14c-0.04,18.12-14.88,33.2-33.17,33.68l-221.85,5.81c-18.48,0.48-33.44-13.91-33.41-32.15
							l0.14-83.29c0.03-18.25,15.05-33.38,33.53-33.8l221.91-5.08c18.29-0.42,33.07,13.94,33.03,32.07L2308.99,1859.14z"/>
						<path class="st7" d="M2673.65,1849.86c-0.05,17.98-14.67,32.93-32.66,33.4l-218.3,5.71c-18.18,0.48-32.89-13.8-32.85-31.89
							l0.2-82.62c0.04-18.1,14.83-33.11,33.01-33.53l218.36-5c18-0.41,32.53,13.83,32.48,31.82L2673.65,1849.86z"/>
					</g>
					<g>
						<path class="st7" d="M1574.32,2147.85c-0.02,18.4-15.31,33.8-34.18,34.4l-228.99,7.33c-19.07,0.61-34.54-13.9-34.53-32.42
							l0.03-84.56c0.01-18.52,15.49-33.98,34.57-34.53l229.05-6.59c18.87-0.54,34.15,13.94,34.13,32.34L1574.32,2147.85z"/>
						<path class="st7" d="M1950.62,2136.07c-0.03,18.25-15.09,33.52-33.65,34.12l-225.26,7.21c-18.76,0.6-33.97-13.8-33.95-32.16
							l0.09-83.87c0.02-18.37,15.26-33.7,34.02-34.24l225.33-6.48c18.57-0.53,33.59,13.83,33.56,32.09L1950.62,2136.07z"/>
						<path class="st7" d="M2308.4,2124.87c-0.04,18.11-14.88,33.26-33.15,33.84l-221.75,7.1c-18.47,0.59-33.42-13.7-33.39-31.92
							l0.14-83.21c0.03-18.23,15.04-33.43,33.51-33.97l221.81-6.38c18.28-0.53,33.05,13.73,33.01,31.84L2308.4,2124.87z"/>
						<path class="st7" d="M2672.88,2113.46c-0.05,17.96-14.66,32.99-32.64,33.56l-218.19,6.99c-18.17,0.58-32.88-13.6-32.83-31.67
							l0.2-82.54c0.04-18.08,14.82-33.16,33-33.69l218.25-6.28c17.99-0.52,32.51,13.63,32.46,31.6L2672.88,2113.46z"/>
					</g>
					<g>
						<path class="st7" d="M1574.09,2411.33c-0.02,18.38-15.31,33.85-34.17,34.57l-228.88,8.64c-19.06,0.72-34.52-13.69-34.52-32.19
							l0.03-84.48c0.01-18.5,15.48-34.04,34.55-34.7l228.94-7.89c18.87-0.65,34.13,13.73,34.12,32.12L1574.09,2411.33z"/>
						<path class="st7" d="M1950.21,2397.41c-0.03,18.23-15.08,33.57-33.64,34.27l-225.16,8.49c-18.75,0.71-33.95-13.59-33.93-31.94
							l0.09-83.78c0.02-18.35,15.25-33.76,34.01-34.4l225.22-7.76c18.56-0.64,33.57,13.63,33.54,31.86L1950.21,2397.41z"/>
						<path class="st7" d="M2307.82,2384.17c-0.04,18.09-14.87,33.31-33.13,34l-221.64,8.36c-18.46,0.7-33.41-13.49-33.38-31.7
							l0.14-83.13c0.03-18.21,15.03-33.49,33.5-34.12l221.7-7.64c18.27-0.63,33.04,13.53,33,31.62L2307.82,2384.17z"/>
						<path class="st7" d="M2672.13,2370.69c-0.05,17.94-14.65,33.04-32.63,33.72l-218.09,8.23c-18.16,0.69-32.86-13.4-32.82-31.45
							l0.2-82.46c0.04-18.06,14.82-33.21,32.98-33.84l218.15-7.52c17.98-0.62,32.5,13.43,32.45,31.38L2672.13,2370.69z"/>
					</g>
					<path class="st7" d="M1573.86,2668.28c-0.02,18.36-15.3,33.91-34.15,34.72l-228.77,9.9c-19.05,0.82-34.51-13.49-34.5-31.97
						l0.03-84.39c0.01-18.49,15.47-34.09,34.53-34.86l228.83-9.16c18.86-0.75,34.12,13.53,34.1,31.89L1573.86,2668.28z"/>
					<path class="st7" d="M1949.81,2652.27c-0.03,18.21-15.07,33.63-33.62,34.43l-225.05,9.74c-18.74,0.81-33.93-13.39-33.91-31.72
						l0.09-83.7c0.02-18.34,15.24-33.81,33.99-34.56l225.11-9.01c18.55-0.74,33.55,13.43,33.53,31.65L1949.81,2652.27z"/>
					<path class="st7" d="M2307.25,2637.06c-0.04,18.07-14.86,33.36-33.12,34.15l-221.54,9.59c-18.45,0.8-33.39-13.29-33.36-31.48
						l0.14-83.05c0.03-18.19,15.03-33.54,33.48-34.28l221.6-8.87c18.26-0.73,33.02,13.33,32.98,31.41L2307.25,2637.06z"/>
					<path class="st7" d="M1573.62,2943.76c-0.02,18.34-15.29,33.96-34.13,34.89l-228.65,11.26c-19.04,0.94-34.49-13.27-34.48-31.73
						l0.03-84.31c0.01-18.47,15.46-34.15,34.51-35.03l228.72-10.52c18.85-0.87,34.1,13.31,34.08,31.66L1573.62,2943.76z"/>
					<path class="st7" d="M1949.38,2925.52c-0.03,18.19-15.07,33.68-33.6,34.6l-224.94,11.08c-18.73,0.92-33.92-13.17-33.9-31.48
						l0.09-83.62c0.02-18.32,15.24-33.87,33.98-34.73l225-10.35c18.54-0.85,33.54,13.21,33.51,31.41L1949.38,2925.52z"/>
					<path class="st7" d="M2306.64,2908.18c-0.04,18.05-14.86,33.42-33.1,34.31l-221.43,10.91c-18.44,0.91-33.38-13.08-33.34-31.25
						l0.14-82.97c0.03-18.17,15.02-33.6,33.47-34.44l221.49-10.19c18.25-0.84,33.01,13.12,32.97,31.18L2306.64,2908.18z"/>
					<path class="st7" d="M2638.11,2508.56l-218.06,8.73c-18.16,0.73-31.82,20.87-31.87,38.92l-0.11,46.41l-0.09,38.75l-0.42,174.93
						l-0.12,51.46l-0.08,33.61c-0.04,18.02,13.52,34.86,31.67,33.97l217.9-10.73c17.96-0.88,33.65-19.06,33.71-36.97l0.1-33.4
						l0.15-51.14l0.51-173.84l0.11-38.51l0.13-46.12C2671.68,2526.69,2656.08,2507.84,2638.11,2508.56z"/>
				</g>
				<g>
					<g>
						<path class="st13" d="M1587.42,1877.51c-0.02,18.41-15.31,33.73-34.18,34.23l-228.98,5.99c-19.07,0.5-34.54-14.12-34.53-32.64
							l0.03-84.62c0.01-18.54,15.49-33.92,34.56-34.36l229.04-5.25c18.87-0.43,34.15,14.15,34.13,32.57L1587.42,1877.51z"/>
						<path class="st13" d="M1951.05,1868.25c-0.03,18.27-15.1,33.47-33.67,33.95l-225.37,5.9c-18.77,0.49-33.98-14.01-33.96-32.39
							l0.09-83.95c0.02-18.39,15.27-33.65,34.04-34.08l225.44-5.17c18.58-0.43,33.6,14.04,33.57,32.32L1951.05,1868.25z"/>
						<path class="st13" d="M2321.45,1858.83c-0.04,18.12-14.88,33.19-33.15,33.67l-221.73,5.8c-18.47,0.48-33.42-13.9-33.39-32.14
							l0.14-83.27c0.03-18.24,15.04-33.37,33.51-33.79l221.79-5.08c18.28-0.42,33.05,13.94,33.01,32.06L2321.45,1858.83z"/>
						<path class="st13" d="M2685.91,1849.55c-0.05,17.97-14.66,32.92-32.64,33.4l-218.18,5.71c-18.17,0.48-32.87-13.8-32.83-31.89
							l0.2-82.6c0.04-18.09,14.82-33.1,33-33.52l218.24-5c17.99-0.41,32.51,13.83,32.46,31.81L2685.91,1849.55z"/>
					</g>
					<g>
						<path class="st13" d="M1587.18,2147.45c-0.02,18.39-15.31,33.79-34.17,34.39l-228.86,7.33c-19.06,0.61-34.52-13.9-34.51-32.41
							l0.03-84.53c0.01-18.52,15.48-33.97,34.55-34.52l228.93-6.58c18.86-0.54,34.13,13.93,34.11,32.33L1587.18,2147.45z"/>
						<path class="st13" d="M1950.62,2136.07c-0.03,18.25-15.09,33.52-33.65,34.12l-225.26,7.21c-18.76,0.6-33.97-13.8-33.95-32.16
							l0.09-83.87c0.02-18.37,15.26-33.7,34.02-34.24l225.33-6.48c18.57-0.53,33.59,13.83,33.56,32.09L1950.62,2136.07z"/>
						<path class="st13" d="M2320.85,2124.48c-0.04,18.1-14.87,33.25-33.13,33.83l-221.63,7.1c-18.46,0.59-33.4-13.69-33.37-31.91
							l0.14-83.19c0.03-18.22,15.03-33.43,33.5-33.96l221.69-6.38c18.27-0.53,33.03,13.73,32.99,31.84L2320.85,2124.48z"/>
						<path class="st13" d="M2685.14,2113.08c-0.05,17.96-14.65,32.98-32.63,33.55l-218.08,6.98
							c-18.16,0.58-32.86-13.59-32.81-31.66l0.2-82.52c0.04-18.08,14.82-33.15,32.98-33.68l218.13-6.27
							c17.98-0.52,32.5,13.63,32.44,31.59L2685.14,2113.08z"/>
					</g>
					<g>
						<path class="st13" d="M1586.94,2410.85c-0.02,18.37-15.3,33.84-34.15,34.56l-228.75,8.63c-19.05,0.72-34.5-13.69-34.5-32.18
							l0.03-84.45c0.01-18.5,15.47-34.03,34.53-34.69l228.82-7.89c18.85-0.65,34.11,13.73,34.1,32.11L1586.94,2410.85z"/>
						<path class="st13" d="M1950.21,2397.41c-0.03,18.23-15.08,33.57-33.64,34.27l-225.16,8.49
							c-18.75,0.71-33.95-13.59-33.93-31.94l0.09-83.78c0.02-18.35,15.25-33.76,34.01-34.4l225.22-7.76
							c18.56-0.64,33.57,13.63,33.54,31.86L1950.21,2397.41z"/>
						<path class="st13" d="M2320.26,2383.71c-0.04,18.08-14.86,33.3-33.12,33.99l-221.52,8.36c-18.45,0.7-33.39-13.49-33.36-31.69
							l0.14-83.11c0.03-18.2,15.03-33.48,33.48-34.12l221.58-7.64c18.26-0.63,33.02,13.53,32.98,31.62L2320.26,2383.71z"/>
						<path class="st13" d="M2684.38,2370.24c-0.05,17.94-14.65,33.03-32.61,33.71l-217.97,8.22c-18.15,0.68-32.84-13.39-32.8-31.44
							l0.2-82.44c0.04-18.06,14.81-33.21,32.97-33.83l218.03-7.52c17.97-0.62,32.48,13.43,32.43,31.37L2684.38,2370.24z"/>
					</g>
					<path class="st13" d="M1586.71,2667.73c-0.02,18.36-15.29,33.9-34.13,34.71l-228.64,9.9c-19.04,0.82-34.49-13.48-34.48-31.96
						l0.03-84.37c0.01-18.48,15.46-34.08,34.51-34.85l228.71-9.16c18.85-0.75,34.1,13.52,34.08,31.89L1586.71,2667.73z"/>
					<path class="st13" d="M1949.81,2652.27c-0.03,18.21-15.07,33.63-33.62,34.43l-225.05,9.74c-18.74,0.81-33.93-13.39-33.91-31.72
						l0.09-83.7c0.02-18.34,15.24-33.81,33.99-34.56l225.11-9.01c18.55-0.74,33.55,13.43,33.53,31.65L1949.81,2652.27z"/>
					<path class="st13" d="M2319.69,2636.53c-0.04,18.07-14.86,33.35-33.1,34.14l-221.42,9.59c-18.44,0.8-33.37-13.29-33.34-31.47
						l0.14-83.03c0.03-18.19,15.02-33.53,33.47-34.27l221.48-8.87c18.25-0.73,33,13.33,32.96,31.4L2319.69,2636.53z"/>
					<path class="st13" d="M1586.46,2943.13c-0.02,18.34-15.28,33.95-34.12,34.88l-228.53,11.26
						c-19.03,0.94-34.47-13.26-34.46-31.72l0.03-84.28c0.01-18.46,15.46-34.14,34.5-35.02l228.59-10.52
						c18.84-0.87,34.08,13.3,34.06,31.65L1586.46,2943.13z"/>
					<path class="st13" d="M1949.38,2925.52c-0.03,18.19-15.07,33.68-33.6,34.6l-224.94,11.08c-18.73,0.92-33.92-13.17-33.9-31.48
						l0.09-83.62c0.02-18.32,15.24-33.87,33.98-34.73l225-10.35c18.54-0.85,33.54,13.21,33.51,31.41L1949.38,2925.52z"/>
					<path class="st13" d="M2319.08,2907.58c-0.04,18.05-14.85,33.41-33.09,34.3l-221.31,10.9c-18.43,0.91-33.36-13.08-33.33-31.24
						l0.14-82.94c0.03-18.17,15.01-33.59,33.45-34.43l221.37-10.18c18.24-0.84,32.99,13.12,32.95,31.17L2319.08,2907.58z"/>
					<path class="st13" d="M2650.81,2508.05l-217.94,8.73c-18.15,0.73-32.25,20.88-32.3,38.92l-0.11,46.39l-0.09,38.74l-0.42,174.88
						l-0.12,51.44l-0.08,33.6c-0.04,18.02,13.96,34.83,32.1,33.94l217.78-10.73c17.95-0.88,33.19-19.03,33.25-36.93l0.1-33.4
						l0.15-51.12l0.51-173.8l0.11-38.5l0.14-46.1C2683.92,2526.19,2668.77,2507.33,2650.81,2508.05z"/>
				</g>
			</g>
		</g>
		<g>
			<g>
				
					<linearGradient id="SVGID_16_" gradientUnits="userSpaceOnUse" x1="1688.0311" y1="-2195.0686" x2="2054.2197" y2="-3369.0249" gradientTransform="matrix(1 0 0 1 0 4737.6899)">
					<stop  offset="0" style="stop-color:#311944"/>
					<stop  offset="1" style="stop-color:#893976"/>
				</linearGradient>
				<path class="st14" d="M942.02,2660.96c-39.23,1.35-78.78-9.55-110.97-33.52c-71.29-53.07-78.96-149.52-17.03-214.75
					l712.84-762.1c29.61-31.18,72.42-48.34,117.25-47.12c44.62,1.22,86.86,20.54,115.88,52.89l303.07,337.96l670.36-727.48
					c51.51-56.64,140.74-60.09,199.21-8.27c58.11,51.5,64.32,138.6,13.95,195.11l-772.46,849.68
					c-27.81,31.2-68.3,49.42-111.06,49.87c-42.95,0.46-83.97-17.05-112.34-48.06l-306.6-335.07l-575.52,634.54
					C1035.62,2640.11,989.05,2659.34,942.02,2660.96z"/>
				<g>
					
						<linearGradient id="SVGID_17_" gradientUnits="userSpaceOnUse" x1="2465.6011" y1="-2087.7168" x2="2803.5759" y2="-3171.2234" gradientTransform="matrix(1 0 0 1 0 4737.6899)">
						<stop  offset="0" style="stop-color:#311944"/>
						<stop  offset="1" style="stop-color:#893976"/>
					</linearGradient>
					<polygon class="st15" points="3039.59,1523.43 2663.63,1193.64 3150.35,1030.22 3184.34,1030.22 3074.46,1519.51 					"/>
				</g>
			</g>
			<g>
				
					<linearGradient id="SVGID_18_" gradientUnits="userSpaceOnUse" x1="1722.0192" y1="-2195.0686" x2="2088.2078" y2="-3369.0251" gradientTransform="matrix(1 0 0 1 0 4737.6899)">
					<stop  offset="0" style="stop-color:#FCB148"/>
					<stop  offset="0.0521" style="stop-color:#FDBA46"/>
					<stop  offset="0.1424" style="stop-color:#FFC244"/>
					<stop  offset="0.3183" style="stop-color:#FFC444"/>
					<stop  offset="0.4849" style="stop-color:#FDB946"/>
					<stop  offset="0.7754" style="stop-color:#F99C4D"/>
					<stop  offset="0.8658" style="stop-color:#F8924F"/>
					<stop  offset="1" style="stop-color:#F8924F"/>
				</linearGradient>
				<path class="st16" d="M976,2660.96c-39.23,1.35-78.78-9.55-110.96-33.52c-71.29-53.07-78.96-149.52-17.03-214.75l712.84-762.1
					c29.62-31.18,72.42-48.34,117.24-47.12c44.62,1.22,86.86,20.54,115.88,52.89l303.07,337.96l670.37-727.48
					c51.51-56.64,140.74-60.09,199.21-8.27c58.11,51.5,64.32,138.6,13.95,195.11l-772.46,849.68
					c-27.81,31.2-68.3,49.42-111.06,49.87c-42.95,0.46-83.97-17.05-112.34-48.06l-306.6-335.07l-575.52,634.54
					C1069.61,2640.11,1023.04,2659.34,976,2660.96z"/>
				<g>
					
						<linearGradient id="SVGID_19_" gradientUnits="userSpaceOnUse" x1="2491.5669" y1="-2115.9297" x2="2822.886" y2="-3178.0991" gradientTransform="matrix(1 0 0 1 0 4737.6899)">
						<stop  offset="0" style="stop-color:#FCB148"/>
						<stop  offset="0.0521" style="stop-color:#FDBA46"/>
						<stop  offset="0.1424" style="stop-color:#FFC244"/>
						<stop  offset="0.3183" style="stop-color:#FFC444"/>
						<stop  offset="0.4849" style="stop-color:#FDB946"/>
						<stop  offset="0.7754" style="stop-color:#F99C4D"/>
						<stop  offset="0.8658" style="stop-color:#F8924F"/>
						<stop  offset="1" style="stop-color:#F8924F"/>
					</linearGradient>
					<polygon class="st17" points="3073.58,1523.43 2697.62,1193.64 3184.34,1030.22 					"/>
				</g>
			</g>
		</g>
		<g>
			
				<linearGradient id="SVGID_20_" gradientUnits="userSpaceOnUse" x1="6658.8462" y1="1563.2075" x2="6344.5151" y2="3070.271" gradientTransform="matrix(1 0 0 1 -5492.7432 0)">
				<stop  offset="0" style="stop-color:#AA80F9"/>
				<stop  offset="0.9964" style="stop-color:#6165D7"/>
			</linearGradient>
			<path class="st18" d="M1236.27,1995.27c27.35-29.2-48.36-138.89-88.88-186.95c-35.4-41.99-71.78-85.15-116.46-79.69
				c-39.23,4.8-77.4,46.17-79.69,85.82C945.09,1921.1,1197.39,2036.77,1236.27,1995.27z"/>
			
				<linearGradient id="SVGID_21_" gradientUnits="userSpaceOnUse" x1="-4188.4326" y1="3295.3054" x2="-4094.2959" y2="3295.3054" gradientTransform="matrix(-0.9996 0.0289 0.0289 0.9996 -3287.0679 -31.2392)">
				<stop  offset="0" style="stop-color:#444B8C"/>
				<stop  offset="0.9964" style="stop-color:#26264F"/>
			</linearGradient>
			<path class="st19" d="M907.92,3122.44c-5.15,4.18-6.09,14.63-6.71,21.46c-0.28,3.05-0.42,4.58-0.07,5.66
				c2.49,7.86,17.73,8.69,41.64,11.13c37.78,3.86,49.02,6.83,51.98,1.21c2.77-5.27-3.93-13.9-4.69-14.85
				c-4.06-5.11-9.04-6.97-18.68-10.14c-17.82-5.87-29.87-9.08-33.51-10.05C915.1,3120.78,911.3,3119.7,907.92,3122.44z"/>
			
				<linearGradient id="SVGID_22_" gradientUnits="userSpaceOnUse" x1="63.2509" y1="3111.9963" x2="96.9999" y2="3111.9963" gradientTransform="matrix(-1 0 0 1 997.4183 0)">
				<stop  offset="0" style="stop-color:#FFC444"/>
				<stop  offset="0.9964" style="stop-color:#F36F56"/>
			</linearGradient>
			<path class="st20" d="M930.39,3087.93l3.78,43.05c-1.07,2.08-13.87,8.31-24.03,2.97l-9.71-42.32L930.39,3087.93z"/>
			
				<linearGradient id="SVGID_23_" gradientUnits="userSpaceOnUse" x1="-3527.9375" y1="4521.8457" x2="-3427.9231" y2="4521.8457" gradientTransform="matrix(-0.9642 0.2651 0.2651 0.9642 -3299.8931 -308.9189)">
				<stop  offset="0" style="stop-color:#444B8C"/>
				<stop  offset="0.9964" style="stop-color:#26264F"/>
			</linearGradient>
			<path class="st21" d="M1207.55,3116.91c-6.17,6.81-7.58,19.36-2.21,25.54c5.27,6.08,13.2,1.52,35.69,2.19
				c24.09,0.72,30.38,6.41,46.75,1.89c6.61-1.83,18.29-6.26,18.07-10.98c-0.16-3.32-6.1-5.04-25.96-11.69
				c-28.19-9.44-28.07-9.96-34.06-10.95C1230.79,3110.42,1215.69,3107.92,1207.55,3116.91z"/>
			
				<linearGradient id="SVGID_24_" gradientUnits="userSpaceOnUse" x1="-237.645" y1="3100.854" x2="-195.9621" y2="3100.854" gradientTransform="matrix(-1 0 0 1 997.4183 0)">
				<stop  offset="0" style="stop-color:#FFC444"/>
				<stop  offset="0.9964" style="stop-color:#F36F56"/>
			</linearGradient>
			<path class="st22" d="M1222.98,3077.62l12.08,40.19c-0.91,2.16-13.2,9.35-23.74,4.79l-17.94-39.01L1222.98,3077.62z"/>
			<path class="st23" d="M1115.62,2197.36c1.73,135.07,10.95,286.95,33.07,451.96c21.86,163.08,52.49,310.43,85.91,440.01
				c-15.42,4.15-30.83,8.3-46.25,12.44c-39.11-36.47-88.45-93.88-112.26-175c-14.78-50.35-9.85-76.23-19.22-138.16
				c-14.92-98.61-45.15-150.27-76.39-229.79c-28.07-71.46-61.26-176.32-79.05-316.5C972.82,2227.33,1044.22,2212.34,1115.62,2197.36
				z"/>
			<path class="st23" d="M976.47,2184.47c-9.44,171.79-17.2,346.78-23.08,524.87c-4.41,133.64-7.65,265.58-9.81,395.79
				c-15.75,1.94-31.49,3.89-47.24,5.83c-15.22-28.33-35.43-71.64-49.27-127.16c-16.82-67.42-12.92-107.46-20.3-177.34
				c-8.27-78.37-20.29-95.45-41.58-194.32c-43.21-200.65-64.82-300.97-16.61-363.38C784.23,2228.51,833.28,2177.69,976.47,2184.47z"
				/>
			
				<linearGradient id="SVGID_25_" gradientUnits="userSpaceOnUse" x1="6550.0083" y1="1540.5067" x2="6235.6777" y2="3047.5669" gradientTransform="matrix(1 0 0 1 -5492.7432 0)">
				<stop  offset="0" style="stop-color:#AA80F9"/>
				<stop  offset="0.9964" style="stop-color:#6165D7"/>
			</linearGradient>
			<path class="st24" d="M746.97,1752.71c36.88-10.37,90.93-22.5,157.12-26.24c94.41-5.34,141.61-8,175.06,14.48
				c77.26,51.92,17.44,171.77,49.07,468.85c4.52,42.42,5.53,85.15,8.8,127.69c5.42,70.43,6.65,74.26,1.75,81.39
				c-30.73,44.76-145.39-22.75-313.44,3.93c-94.03,14.93-136.67,49.33-162.44,24.52c-30.04-28.93-4.27-106.75,17.91-173.75
				c25.46-76.9,41.19-77.89,55.65-135.8c15.11-60.53,5.97-91.7,3.62-187.15C738.93,1904.95,739.17,1836.98,746.97,1752.71z"/>
			<g>
				
					<linearGradient id="SVGID_26_" gradientUnits="userSpaceOnUse" x1="6279.686" y1="2829.3994" x2="6398.9819" y2="2262.7471" gradientTransform="matrix(1 0 0 1 -5492.7432 0)">
					<stop  offset="0" style="stop-color:#AA80F9"/>
					<stop  offset="0.9964" style="stop-color:#6165D7"/>
				</linearGradient>
				<path class="st25" d="M975.49,2310.43c-43.92-3.44-72.42,21.4-110.33,2.04c-51.99-26.54-68.7-109.1-65.38-167.54
					c5.03-88.79,55.73-112.19,46.99-169.59c-4.73-31.04-26.89-72.25-106.45-114.35c-1.06,35.43-0.86,65.63-0.27,89.63
					c2.35,95.45,11.49,126.62-3.62,187.15c-14.45,57.91-30.18,58.9-55.65,135.8c-22.18,66.99-47.95,144.81-17.91,173.75
					c25.76,24.81,68.41-9.59,162.44-24.52c144.8-22.99,249.91,23.89,295.89,8.68C1065.64,2339.67,1015.24,2313.54,975.49,2310.43z"
					/>
			</g>
			
				<linearGradient id="SVGID_27_" gradientUnits="userSpaceOnUse" x1="6334.6797" y1="1495.5955" x2="6020.3491" y2="3002.6562" gradientTransform="matrix(1 0 0 1 -5492.7432 0)">
				<stop  offset="0" style="stop-color:#AA80F9"/>
				<stop  offset="0.9964" style="stop-color:#6165D7"/>
			</linearGradient>
			<path class="st26" d="M806.88,1758.8c-31.37-25.78-94.45,3.4-111.31,11.2c-94.03,43.49-178.45,160.7-157.53,284.56
				c3.14,18.58,17.68,105.46,91.26,147.56c66.38,37.99,156.02,28.22,227.84-25.58c9.81-8.71,19.63-17.42,29.45-26.13
				c9.66-10.44,19.31-20.87,28.97-31.31c-15.18-12.63-40.97-30.84-77.19-42.53c-47.75-15.41-82.52,12.24-104.68-8.78
				c-15.29-14.51-15.33-40.13-11.55-55.66c7.61-31.3,35.2-40.1,58.23-62.32C834.47,1897.61,844.44,1789.66,806.88,1758.8z"/>
			<g>
				
					<linearGradient id="SVGID_28_" gradientUnits="userSpaceOnUse" x1="6602.6631" y1="2336.9827" x2="6551.7988" y2="2192.8662" gradientTransform="matrix(1 0 0 1 -5492.7432 0)">
					<stop  offset="0" style="stop-color:#311944"/>
					<stop  offset="1" style="stop-color:#893976"/>
				</linearGradient>
				<polygon class="st27" points="1257.7,2163.15 837.22,2156.87 949.03,2210.83 1258.77,2190.56 				"/>
				
					<linearGradient id="SVGID_29_" gradientUnits="userSpaceOnUse" x1="6380.4585" y1="2128.1799" x2="6399.1089" y2="2257.0371" gradientTransform="matrix(1 0 0 1 -5492.7432 0)">
					<stop  offset="0" style="stop-color:#311944"/>
					<stop  offset="1" style="stop-color:#893976"/>
				</linearGradient>
				<path class="st28" d="M822.38,2168.04L822.38,2168.04c0,7.87,4.92,14.9,12.32,17.59l134.36,52.67l0.61-36.52l-132.45-44.92
					C829.79,2154.73,822.38,2160.31,822.38,2168.04z"/>
			</g>
			
				<linearGradient id="SVGID_30_" gradientUnits="userSpaceOnUse" x1="5.1747" y1="2148.407" x2="110.5814" y2="2148.407" gradientTransform="matrix(-1 0 0 1 997.4183 0)">
				<stop  offset="0" style="stop-color:#FFC444"/>
				<stop  offset="0.9964" style="stop-color:#F36F56"/>
			</linearGradient>
			<path class="st29" d="M887.13,2143.17c-2.58-0.58,12.57-30.77,24.47-27.28c11.89,3.48,70.07,37.2,75.36,51.08
				c5.29,13.88,5.29,13.88,5.29,13.88s-25.38,1.98-41.12-3.3C935.39,2172.26,908.11,2147.84,887.13,2143.17z"/>
			<g>
				
					<linearGradient id="SVGID_31_" gradientUnits="userSpaceOnUse" x1="84.5451" y1="1693.9775" x2="80.8094" y2="1953.6235" gradientTransform="matrix(-1 0 0 1 997.4183 0)">
					<stop  offset="0" style="stop-color:#FFC444"/>
					<stop  offset="0.9964" style="stop-color:#F36F56"/>
				</linearGradient>
				<path class="st30" d="M911.13,1623.32c0.23,27.99-2.89,50.18-5.84,65.39c-3.38,17.42-5.82,21.92-8.93,25.57
					c-4.68,5.5-11.78,10.11-51.89,20.05c-21.82,5.41-24.63,5.26-25.11,7.43c-2.35,10.57,57.16,46.57,118.64,37.9
					c37.63-5.31,71.87-26.78,69.76-38.05c-2.12-11.35-39.7-5.26-50.91-25.78c-7.79-14.28,0.94-34.55,11.27-51.34
					C958.12,1645.74,921.13,1642.06,911.13,1623.32z"/>
				<g>
					<path class="st23" d="M980.97,1634.39c8.88-11.8,9.43-32.39-0.8-45.41c-8.81-11.2-22.66-12.8-30.96-13.76
						c-24.04-2.78-54.37,7.26-64.92,29.39c-6.25,13.11,7.27,40.36,9.39,45.25c2.4,5.54,6.75,7.44,10.77,11.63
						c5.57,5.81,14.3,15.04,28.54,30.48c1.11-4.56,2.79-10.2,5.46-16.31c1.03-2.35,5.16-11.55,11.42-19.17
						C962.4,1641.21,972.55,1645.57,980.97,1634.39z"/>
					
						<linearGradient id="SVGID_32_" gradientUnits="userSpaceOnUse" x1="55.3046" y1="1635.8531" x2="69.5758" y2="1774.4211" gradientTransform="matrix(-1 0 0 1 997.4183 0)">
						<stop  offset="0" style="stop-color:#FFC444"/>
						<stop  offset="0.9964" style="stop-color:#F36F56"/>
					</linearGradient>
					<path class="st31" d="M912.67,1678.98c0,0,15.8,25.93,47.27,23.88c28.17-1.83,32.3-65.01,14.3-78.42
						c-6-4.47-18.03-6.33-27.8-3.59c-5.77,1.62-7.73,4.02-17.22,6.48c-8.75,2.27-11.22,1.3-13.86,3.52
						c-3.3,2.78-5.72,9.6-0.21,28.07c-5.38-5.44-11.83-7.53-16.4-5.37c-0.73,0.35-2.66,1.66-3.75,3.66
						C891.07,1664.42,897.66,1673.63,912.67,1678.98z"/>
					<path class="st23" d="M914.09,1627.07c1.36,1.01-2.79,6.08-3.1,13.26c-0.6,13.93,13.49,30.64,27.87,32.06
						c8.5,0.84,10.84-4.29,24.89-5.77c8.7-0.92,15.94,0.19,20.5,1.18c4.42,15.27,0.26,30.5-9.95,37.57
						c-10.99,7.61-25.03,2.99-30.9,1.06c-3.93-1.29-16.51-5.4-23.09-16.94c-6.85-12.02-0.13-19.27-7.99-27.41
						c-3.96-4.1-9.17-5.88-14.24-13.82c-1.38-2.16-2.3-4.07-2.86-5.35C902.5,1635.21,912.12,1625.61,914.09,1627.07z"/>
					<path class="st2" d="M958.59,1680.46c0,0,6.08-3.18,16.6-2.59c0.51,0.03,1.08-0.12,1.14-0.39c0.24-1-6.5-5.47-12.72-3.72
						c-4.41,1.24-7.85,5.42-7.25,6.48C956.61,1680.7,957.61,1680.64,958.59,1680.46z"/>
				</g>
			</g>
			<g>
				
					<linearGradient id="SVGID_33_" gradientUnits="userSpaceOnUse" x1="-2716.3821" y1="1927.678" x2="-2707.4133" y2="2059.0696" gradientTransform="matrix(-0.9999 0.013 0.013 0.9999 -1808.177 -191.3752)">
					<stop  offset="0" style="stop-color:#444B8C"/>
					<stop  offset="0.9964" style="stop-color:#26264F"/>
				</linearGradient>
				<path class="st32" d="M947.99,1778.13c-2.37,5.35-5.02,10.88-8.02,16.55c-1.3,2.47-2.62,4.87-3.94,7.21
					c-5.43,0.75-10.85,1.5-16.28,2.25c-3.47-7.91-6.94-15.82-10.41-23.73c5.39,0.71,12.03,1.15,19.6,0.69
					C936.36,1780.64,942.79,1779.44,947.99,1778.13z"/>
				
					<linearGradient id="SVGID_34_" gradientUnits="userSpaceOnUse" x1="-2742.1797" y1="2203.3762" x2="-2742.1797" y2="1882.0731" gradientTransform="matrix(-0.9999 0.013 0.013 0.9999 -1808.177 -191.3752)">
					<stop  offset="0" style="stop-color:#444B8C"/>
					<stop  offset="0.9964" style="stop-color:#26264F"/>
				</linearGradient>
				<path class="st33" d="M935.87,1800.37c0,0,18.67,182.73,76.16,211.28c-1.39,5.88,0.69,53.45,0.69,53.45
					s-53.45-15.34-56.47-14.24c-3.02,1.1-65.79-99.95-36.51-246.73L935.87,1800.37z"/>
			</g>
			<g>
				<g>
					
						<linearGradient id="SVGID_35_" gradientUnits="userSpaceOnUse" x1="6750.0063" y1="2139.4661" x2="6650.8389" y2="1998.6483" gradientTransform="matrix(1 0 0 1 -5492.7432 0)">
						<stop  offset="0" style="stop-color:#444B8C"/>
						<stop  offset="0.9964" style="stop-color:#26264F"/>
					</linearGradient>
					<path class="st34" d="M980.82,1945.58l-29.64,269.86c-1.02,9.31,12.01,23.18,21.37,22.74l434.79-26.69
						c7.15-0.34,13.09-5.6,14.3-12.65l54.57-260.64c1.63-9.48-15.42-19.28-25.04-19.01L995.55,1932
						C987.94,1932.22,981.65,1938.01,980.82,1945.58z"/>
					
						<linearGradient id="SVGID_36_" gradientUnits="userSpaceOnUse" x1="6559.7856" y1="2372.5171" x2="6776.8086" y2="1931.6891" gradientTransform="matrix(1 0 0 1 -5492.7432 0)">
						<stop  offset="0" style="stop-color:#311944"/>
						<stop  offset="1" style="stop-color:#893976"/>
					</linearGradient>
					<path class="st35" d="M990.76,1953.44l-29.64,269.86c-1.02,9.31,6.52,17.33,15.87,16.89l440.29-20.84
						c7.14-0.34,13.09-5.6,14.3-12.65l44.98-261.83c1.63-9.49-5.83-18.09-15.45-17.82l-455.64,12.81
						C997.88,1940.08,991.59,1945.88,990.76,1953.44z"/>
				</g>
				
					<linearGradient id="SVGID_37_" gradientUnits="userSpaceOnUse" x1="6453.7715" y1="2089.5789" x2="6930.541" y2="2089.5789" gradientTransform="matrix(1 0 0 1 -5492.7432 0)">
					<stop  offset="0" style="stop-color:#311944"/>
					<stop  offset="1" style="stop-color:#893976"/>
				</linearGradient>
				<path class="st36" d="M1249.3,2156.12c-38.44-16.29-24.88-47.37-70.27-86.09c-59.89-51.08-120.94-28.93-142.31-68.52
					c-6.65-12.33-9.83-31.52,1.76-62.57l-32.99,0.93c-7.61,0.21-13.89,6.01-14.72,13.57l-29.64,269.86
					c-1.02,9.31,6.52,17.33,15.87,16.89l440.29-20.84c7.14-0.34,13.09-5.6,14.3-12.65l6.21-36.13
					c-13.36-7.43-29.32-14.19-47.95-17.97C1325.25,2139.5,1293.56,2174.88,1249.3,2156.12z"/>
			</g>
			
				<linearGradient id="SVGID_38_" gradientUnits="userSpaceOnUse" x1="-447.7859" y1="2202.3252" x2="-376.6754" y2="2202.3252" gradientTransform="matrix(-1 0 0 1 997.4183 0)">
				<stop  offset="0" style="stop-color:#FFC444"/>
				<stop  offset="0.9964" style="stop-color:#F36F56"/>
			</linearGradient>
			<path class="st37" d="M1445.03,2181.61c0.72-2.17-0.8-4.41-3.09-4.53c-9.31-0.47-30.89-0.67-42.8,6.63
				c-15.48,9.48-35.49,26.78-18.64,35.51l15.74,8.15c0.72,0.37,1.51,0.49,2.3,0.32c5.59-1.23,29.13-6.45,31.7-7.75
				C1432.58,2218.76,1441.56,2192.13,1445.03,2181.61z"/>
		</g>
		<g>
			<linearGradient id="SVGID_39_" gradientUnits="userSpaceOnUse" x1="1882.9651" y1="3294.9919" x2="2499.3179" y2="2116.7441">
				<stop  offset="0" style="stop-color:#444B8C"/>
				<stop  offset="0.9964" style="stop-color:#26264F"/>
			</linearGradient>
			<path class="st38" d="M2579.37,2740.53c0,213.98-173.4,395.38-394.64,405.49c-229.77,10.5-422.64-166.46-422.64-395.63
				s192.87-410.79,422.64-405.83C2405.97,2349.34,2579.37,2526.55,2579.37,2740.53z"/>
			<linearGradient id="SVGID_40_" gradientUnits="userSpaceOnUse" x1="1505.6198" y1="4065.4512" x2="2121.9724" y2="2887.2036">
				<stop  offset="0" style="stop-color:#AA80F9"/>
				<stop  offset="0.9964" style="stop-color:#6165D7"/>
			</linearGradient>
			<path class="st39" d="M2605.06,2740.53c0,213.98-173.4,395.38-394.64,405.49c-229.77,10.5-422.64-166.46-422.64-395.63
				s192.87-410.79,422.64-405.83C2431.66,2349.34,2605.06,2526.55,2605.06,2740.53z"/>
			<linearGradient id="SVGID_41_" gradientUnits="userSpaceOnUse" x1="2413.0671" y1="2505.4197" x2="1340.2645" y2="3692.1848">
				<stop  offset="0" style="stop-color:#AA80F9"/>
				<stop  offset="0.9964" style="stop-color:#6165D7"/>
			</linearGradient>
			<path class="st40" d="M2580.64,2740.83c0,201.62-163.57,372.22-371.84,381.32c-215.82,9.43-396.6-157-396.6-372.05
				c0-215.05,180.78-385.84,396.6-381.62C2417.07,2372.56,2580.64,2539.21,2580.64,2740.83z"/>
			<g>
				<path class="st2" d="M2124.85,2760.15c16.75-21.74,25.13-54.25,25.13-97.54c0-41.41-8.52-73.26-25.55-95.57
					c-17.04-22.3-41.46-33.46-73.26-33.46c-64.94,0-97.4,43.01-97.4,129.02c0,42.16,8.47,74.39,25.41,96.7
					c16.94,22.3,40.94,33.46,71.99,33.46C2083.53,2792.76,2108.1,2781.89,2124.85,2760.15z M2051.73,2734.32
					c-9.41,0-16.23-5.88-20.47-17.65c-4.24-11.76-6.35-29.6-6.35-53.5c0-23.9,2.12-41.64,6.35-53.22
					c4.23-11.58,11.05-17.36,20.47-17.36c18.07,0,27.1,23.53,27.1,70.58C2078.83,2710.6,2069.8,2734.32,2051.73,2734.32z"/>
				<path class="st2" d="M2413.53,2731.92c-17.04-22.3-41.46-33.46-73.26-33.46c-64.94,0-97.4,43.01-97.4,129.02
					c0,41.97,8.47,74.11,25.41,96.42c16.94,22.3,40.94,33.46,71.99,33.46c32.37,0,56.93-10.87,73.69-32.61
					c16.75-21.74,25.13-54.16,25.13-97.26C2439.08,2786.08,2430.57,2754.22,2413.53,2731.92z M2340.83,2899.2
					c-9.41,0-16.23-5.88-20.47-17.65c-4.23-11.76-6.35-29.6-6.35-53.5c0-23.9,2.12-41.64,6.35-53.22
					c4.24-11.58,11.06-17.36,20.47-17.36c18.07,0,27.1,23.53,27.1,70.58C2367.94,2875.48,2358.9,2899.2,2340.83,2899.2z"/>
				<path class="st2" d="M2336.71,2543.81c-1.61-2.74-4.56-4.55-7.74-4.55h-41.86c-6.57,0-12.62,3.69-15.81,9.43l-216.41,390.18
					c-1.54,2.78-1.5,6.26,0.11,9.01c1.61,2.74,4.56,4.52,7.74,4.52h47.22c3.26,0,6.27-1.83,7.85-4.69l219.01-394.9
					C2338.37,2550.04,2338.32,2546.55,2336.71,2543.81z"/>
			</g>
			<g class="st9">
				<linearGradient id="SVGID_42_" gradientUnits="userSpaceOnUse" x1="1787.7845" y1="2755.1985" x2="2436.0967" y2="2755.1985">
					<stop  offset="0" style="stop-color:#AA80F9"/>
					<stop  offset="0.9964" style="stop-color:#6165D7"/>
				</linearGradient>
				<path class="st41" d="M2032.35,2573.26c-13.59-44.29-12.96-111.55,53.29-210.92c-170.92,49.24-297.86,204.23-297.86,389.64
					c0,229.17,192.87,406.13,422.64,395.63c84.72-3.87,162.29-32.79,225.67-78.68c-1.96-61.12-15.26-128.02-52.65-189.73
					C2280.63,2709.53,2074.98,2712.2,2032.35,2573.26z"/>
			</g>
		</g>
	</g>
</g>
</svg>
