<?xml version="1.0" encoding="utf-8"?>
<!-- Generator: Adobe Illustrator 25.0.0, SVG Export Plug-In . SVG Version: 6.00 Build 0)  -->
<svg version="1.1" xmlns="http://www.w3.org/2000/svg" xmlns:xlink="http://www.w3.org/1999/xlink" x="0px" y="0px"
	 viewBox="0 0 3710 3710" style="enable-background:new 0 0 3710 3710;" xml:space="preserve">
<style type="text/css">
	.st0{fill:#FFFFFF;}
	.st1{fill:#F4F7FA;}
	.st2{fill:url(#SVGID_1_);}
	.st3{clip-path:url(#SVGID_3_);}
	.st4{fill:#FCFDFE;}
	.st5{clip-path:url(#SVGID_5_);fill:url(#SVGID_6_);}
	.st6{clip-path:url(#SVGID_5_);}
	.st7{fill:url(#SVGID_7_);}
	.st8{fill:url(#SVGID_8_);}
	.st9{fill:url(#SVGID_9_);}
	.st10{opacity:0.3;}
	.st11{opacity:0.3;fill:url(#SVGID_10_);}
	.st12{clip-path:url(#SVGID_12_);}
	.st13{fill:url(#SVGID_13_);}
	.st14{opacity:0.4;fill:url(#SVGID_14_);}
	.st15{fill:url(#SVGID_15_);}
	.st16{fill:url(#SVGID_16_);}
	.st17{fill:url(#SVGID_17_);}
	.st18{fill:#FCB048;}
	.st19{fill:url(#SVGID_18_);}
	.st20{fill:url(#SVGID_19_);}
	.st21{fill:url(#SVGID_20_);}
	.st22{fill:url(#SVGID_21_);}
	.st23{fill:url(#SVGID_22_);}
	.st24{fill:url(#SVGID_23_);}
	.st25{fill:url(#SVGID_24_);}
	.st26{fill:url(#SVGID_25_);}
	.st27{fill:url(#SVGID_26_);}
	.st28{fill:url(#SVGID_27_);}
	.st29{fill:url(#SVGID_28_);}
	.st30{fill:url(#SVGID_29_);}
	.st31{fill:url(#SVGID_30_);}
	.st32{fill:url(#SVGID_31_);}
	.st33{fill:url(#SVGID_32_);}
	.st34{fill:url(#SVGID_33_);}
	.st35{fill:url(#SVGID_34_);}
	.st36{fill:url(#SVGID_35_);}
	.st37{fill:url(#SVGID_36_);}
	.st38{fill:url(#SVGID_37_);}
	.st39{fill:url(#SVGID_38_);}
	.st40{fill:url(#SVGID_39_);}
	.st41{fill:url(#SVGID_40_);}
	.st42{fill:url(#SVGID_41_);}
	.st43{fill:url(#SVGID_42_);}
	.st44{fill:url(#SVGID_43_);}
	.st45{fill:url(#SVGID_44_);}
	.st46{fill:url(#SVGID_45_);}
	.st47{fill:url(#SVGID_46_);}
	.st48{fill:url(#SVGID_47_);}
	.st49{fill:url(#SVGID_48_);}
	.st50{fill:url(#SVGID_49_);}
	.st51{fill:url(#SVGID_50_);}
</style>
<g id="Background">
	<g>
		<g>
			<rect class="st0" width="3710" height="3710"/>
		</g>
	</g>
</g>
<g id="Illustration">
	<g>
		<path class="st1" d="M2933.25,975.22c-348.23-476.65-944.43-506.42-981.3-508.13c-470.21-21.81-805.87,217.97-926.91,307.24
			c-87.86,64.8-209.8,156.31-323.63,317.21c-51.94,73.42-232.72,345.79-235.6,712.27c-4.47,569.73,424.35,940.52,502.2,1005.12
			c421.13,349.45,1157.66,523.45,1710.12,124.84C3326.98,2465.62,3320.39,1505.14,2933.25,975.22z"/>
		<g>
			<g>
				
					<linearGradient id="SVGID_1_" gradientUnits="userSpaceOnUse" x1="-4016.5146" y1="-3077.438" x2="-3544.3064" y2="-58.6704" gradientTransform="matrix(-0.6647 -0.7471 -0.7471 0.6647 -1588.8998 935.8854)">
					<stop  offset="3.597120e-03" style="stop-color:#E38DDD"/>
					<stop  offset="1" style="stop-color:#9571F6"/>
				</linearGradient>
				<path class="st2" d="M2201.23,2897.74c-16.31-5.71-46.76-32.52-51.82-42.78c-33.65-68.28-104.97-192.04-83.72-269.66
					c3.63-13.26,66.25-13.04,77.26-23.58c39.96-9.55,54.42-10.39,87.95-38.13c98.99-81.91-40.26-304.43,180.94-325.55
					c162.02-15.47,279.31,64.01,312.82-175.36s311.43-629.71,525.76-412.5c123,124.66-64.52,294.6-22.24,458.11
					c40.18,155.39-43.89,258.55-211.1,311.36c-167.21,52.82-101.13,134.55-85.95,277.35c18.22,171.53-234.7,147.79-350.54,126.87
					C2487.3,2767.03,2238.41,2787.06,2201.23,2897.74z"/>
				<g>
					<defs>
						<path id="SVGID_2_" d="M2031.99,2556.97c12.54,118.14,20.43,238.87,32.42,357.91c64.98,19.33,141.88,40.49,173.69-37.7
							c44.22-108.71,249.61-110.8,342.72-93.47c115.24,21.45,368.65,44.66,350.31-126.73c-15.27-142.68-81.25-224.55,85.95-277.33
							c167.2-52.79,251.24-155.97,211.09-311.37c-42.25-163.53,145.21-333.38,22.24-458.11
							c-214.28-217.34-492.36,173.38-525.7,412.42c-33.34,239.05-151.39,160.88-312.72,175.21
							c-220.26,19.56-84.47,247.78-180.03,323.77C2157.04,2581.14,2112.8,2558.02,2031.99,2556.97z"/>
					</defs>
					<clipPath id="SVGID_3_">
						<use xlink:href="#SVGID_2_"  style="overflow:visible;"/>
					</clipPath>
					<g class="st3">
						<path class="st4" d="M2108.19,2727.28l-0.86-3.43c275.95-69.05,523.3-220.76,715.31-438.75
							c182.7-207.41,312.88-470.42,376.47-760.61l3.46,0.76c-63.72,290.77-194.18,554.33-377.28,762.19
							C2632.81,2505.97,2384.84,2658.06,2108.19,2727.28z"/>
						<path class="st4" d="M2946.9,2727.38c-133.96-77.65-374.49-129.83-536.11-116.3l-0.3-3.52
							c162.27-13.59,403.69,38.81,538.18,116.77L2946.9,2727.38z"/>
						<path class="st4" d="M2215.67,2699.08l-1.78-3.06c72.93-42.34,121.65-119.92,144.82-230.58
							c16.98-81.14,20.08-177.84,9.22-287.43l3.52-0.35c10.9,109.95,7.78,207.01-9.28,288.5
							C2338.79,2577.85,2289.5,2656.21,2215.67,2699.08z"/>
						<path class="st4" d="M2850.16,2256.92l-1.93-2.96c133.31-86.85,300.56-82.27,417.41-63.13l-0.57,3.49
							C3148.86,2175.28,2982.53,2170.69,2850.16,2256.92z"/>
						<path class="st4" d="M3051.43,1953.35l-3.4-0.98c21.31-73.95,41.42-229.05-63.43-436.97l3.16-1.59
							c35.42,70.24,60.48,144.56,72.46,214.92C3074.01,1809.7,3071.05,1885.27,3051.43,1953.35z"/>
					</g>
				</g>
			</g>
		</g>
		<g>
			<g>
				<defs>
					<path id="SVGID_4_" d="M2649.57,2775.33c-86.93-12.78-173.78-27.57-260.46-44.34c-1.41,1.27-29.9-187.68,59.85-286.78
						c177.49-191.98,57.94-364.27,23.84-466.36c-54.58-143.96-26.6-318.94,131.96-286.16c154.48,28.23,177.91-289.8,151.25-534.8
						c-22.76-119.24,89.75-263.93,202.03-296.99c114.62-36.63,229,38.35,264.05,276.04c53.07,275.2-147.77,441.16-222.15,579.14
						c-73.18,135.45,97.05,245.04-39.96,365.05c-115.25,106.64-260.5,183.29-207.37,317.24
						C2807.2,2529.78,2794.13,2638.05,2649.57,2775.33z"/>
				</defs>
				<clipPath id="SVGID_5_">
					<use xlink:href="#SVGID_4_"  style="overflow:visible;"/>
				</clipPath>
				
					<linearGradient id="SVGID_6_" gradientUnits="userSpaceOnUse" x1="9.8339" y1="-1391.0179" x2="-614.3452" y2="382.9664" gradientTransform="matrix(-0.8674 -0.4976 -0.4976 0.8674 2274.7078 2110.0093)">
					<stop  offset="0" style="stop-color:#FF9085"/>
					<stop  offset="1" style="stop-color:#FB6FBB"/>
				</linearGradient>
				<path class="st5" d="M2649.57,2775.33c-86.93-12.78-173.78-27.57-260.46-44.34c-1.41,1.27-29.9-187.68,59.85-286.78
					c177.49-191.98,57.94-364.27,23.84-466.36c-54.03-143.86-25.61-299.63,120.8-301.94c162.39-5.73,191.83-274.52,162.4-519.03
					c-22.76-119.24,89.75-263.93,202.03-296.99c114.62-36.63,229,38.35,264.05,276.04c53.07,275.2-147.77,441.16-222.15,579.14
					c-73.18,135.45,97.05,245.04-39.96,365.05c-115.25,106.64-260.5,183.29-207.37,317.24
					C2807.2,2529.78,2794.13,2638.05,2649.57,2775.33z"/>
				<g class="st6">
					<path class="st4" d="M2533.32,2786.55l-3.53-0.06c-0.02-1.68,83.06-399.24,226.29-786.11
						c19.78-62.65,41.27-125.84,62.06-186.94c55.65-163.62,113.2-332.8,140.52-501.26c30.55-188.29,19.66-357.88-33.28-518.46
						l3.36-1.11c53.12,161.13,64.05,331.26,33.42,520.13c-27.38,168.75-84.97,338.08-140.67,501.83
						c-20.78,61.09-42.27,124.26-62.06,186.95C2615.08,2391.42,2533.54,2784.23,2533.32,2786.55z"/>
					<path class="st4" d="M2922.08,1497.25l-2.63-2.37c96.9-107.67,213.83-260.68,276.65-342.89
						c50.58-66.19,50.84-66.08,52.94-65.77l-0.27,1.75l0.72,1.58c-2.56,1.76-23.75,29.49-50.57,64.59
						C3136.06,1236.38,3019.08,1389.47,2922.08,1497.25z"/>
					<path class="st4" d="M2951.37,1349.56c-20.05-123.4-70.87-204.57-109.96-250.94c-43.18-51.2-82.96-73.53-87.03-74.02
						c0.01,0,0.39,0.04,0.84-0.25l-1.97-2.94c0.89-0.59,1.93-0.45,4.28,0.57c10.73,4.67,50.83,29.75,92.9,82.03
						c52.98,65.85,89.09,150.56,104.43,244.98L2951.37,1349.56z"/>
					<path class="st4" d="M2674.36,2253.48l-3.51-0.42c13.67-114.81-13.09-238.31-79.52-367.07
						c-34.65-67.15-78.84-132.94-131.34-195.53c-3.8-4.54-5.14-6.14-5.57-6.88l3.06-1.77c0.31,0.53,2.47,3.11,5.22,6.38
						c52.67,62.79,97,128.8,131.77,196.18C2661.24,2013.76,2688.12,2137.95,2674.36,2253.48z"/>
					<path class="st4" d="M2713.54,2132.6l-3.01-1.86c104.25-168.42,323.97-180.07,325.87-179.52l1.32,1.66l-1.21,1.74l-0.56-1.66
						l-0.15,1.73c-0.01,0-0.02,0-0.03,0C3032.29,1954.69,2816.11,1966.89,2713.54,2132.6z M3035.37,1951.26l0.57,1.67
						L3035.37,1951.26z"/>
					<path class="st4" d="M2547.83,2721.7l-3.54-0.13c1.84-49.99-16.03-135.2-111.6-257.26c-5.18-6.62-5.18-6.62-5.04-7.61l3.5,0.5
						l-1.75-0.25l1.62-0.67c0.27,0.5,2.21,2.98,4.45,5.84C2531.71,2585.03,2549.69,2671.12,2547.83,2721.7z"/>
					<path class="st4" d="M2569.91,2627.54l-3.4-0.98c11.02-38.03,54.39-112.53,221.04-184.26c2.3-0.99,3.78-1.63,4.31-1.9
						l1.62,3.15c-0.56,0.28-2.11,0.96-4.53,2C2623.63,2516.71,2580.76,2590.11,2569.91,2627.54z"/>
				</g>
			</g>
		</g>
		<g>
			<g>
				<linearGradient id="SVGID_7_" gradientUnits="userSpaceOnUse" x1="1143.5188" y1="3453.6021" x2="2827.5471" y2="234.3372">
					<stop  offset="0" style="stop-color:#444B8C"/>
					<stop  offset="0.9964" style="stop-color:#26264F"/>
				</linearGradient>
				<path class="st7" d="M3046.27,1938.69c0,584.66-473.78,1080.28-1078.24,1107.91c-627.78,28.7-1154.76-454.81-1154.76-1080.96
					S1340.25,843.26,1968.03,856.81C2572.49,869.85,3046.27,1354.03,3046.27,1938.69z"/>
				<linearGradient id="SVGID_8_" gradientUnits="userSpaceOnUse" x1="112.518" y1="5558.6875" x2="1796.5464" y2="2339.4231">
					<stop  offset="0" style="stop-color:#AA80F9"/>
					<stop  offset="0.9964" style="stop-color:#6165D7"/>
				</linearGradient>
				<path class="st8" d="M3116.46,1938.69c0,584.66-473.78,1080.28-1078.24,1107.91c-627.78,28.7-1154.76-454.81-1154.76-1080.96
					S1410.44,843.26,2038.22,856.81C2642.68,869.85,3116.46,1354.03,3116.46,1938.69z"/>
				<linearGradient id="SVGID_9_" gradientUnits="userSpaceOnUse" x1="2591.8889" y1="1296.295" x2="-339.2738" y2="4538.8315">
					<stop  offset="0" style="stop-color:#AA80F9"/>
					<stop  offset="0.9964" style="stop-color:#6165D7"/>
				</linearGradient>
				<path class="st9" d="M3049.74,1939.49c0,550.88-446.9,1016.99-1015.95,1041.86c-589.67,25.77-1083.6-428.96-1083.6-1016.52
					s493.94-1054.22,1083.6-1042.68C2602.84,933.29,3049.74,1388.61,3049.74,1939.49z"/>
				<g>
					<path class="st0" d="M1804.41,1992.28c45.76-59.4,68.65-148.23,68.65-266.52c0-113.13-23.27-200.18-69.81-261.12
						c-46.55-60.94-113.28-91.41-200.18-91.41c-177.42,0-266.13,117.52-266.13,352.53c0,115.2,23.14,203.26,69.42,264.2
						c46.29,60.94,111.85,91.41,196.7,91.41C1691.52,2081.38,1758.64,2051.68,1804.41,1992.28z M1604.62,1921.7
						c-25.72,0-44.36-16.07-55.92-48.21c-11.57-32.13-17.36-80.86-17.36-146.18c0-65.3,5.79-113.78,17.36-145.41
						c11.57-31.63,30.2-47.44,55.92-47.44c49.37,0,74.06,64.29,74.06,192.85C1678.68,1856.9,1653.99,1921.7,1604.62,1921.7z"/>
					<path class="st0" d="M2593.16,1915.14c-46.55-60.94-113.27-91.41-200.18-91.41c-177.42,0-266.13,117.52-266.13,352.53
						c0,114.68,23.15,202.49,69.43,263.43c46.28,60.94,111.85,91.41,196.7,91.41c88.45,0,155.56-29.7,201.33-89.1
						c45.76-59.4,68.66-147.97,68.66-265.74C2662.97,2063.13,2639.7,1976.08,2593.16,1915.14z M2394.53,2372.19
						c-25.72,0-44.36-16.07-55.93-48.21c-11.57-32.13-17.36-80.86-17.36-146.18c0-65.3,5.79-113.78,17.36-145.41
						c11.57-31.63,30.21-47.44,55.93-47.44c49.37,0,74.05,64.29,74.05,192.85C2468.58,2307.4,2443.9,2372.19,2394.53,2372.19z"/>
					<path class="st0" d="M2383.26,1401.19c-4.41-7.49-12.45-12.42-21.14-12.42h-114.38c-17.95,0-34.49,10.07-43.2,25.77
						l-591.27,1066.06c-4.22,7.6-4.1,17.12,0.31,24.61c4.41,7.49,12.45,12.34,21.14,12.34h129.02c8.92,0,17.13-5.01,21.46-12.8
						l598.38-1078.95C2387.79,1418.2,2387.67,1408.68,2383.26,1401.19z"/>
				</g>
				<g class="st10">
					<linearGradient id="SVGID_10_" gradientUnits="userSpaceOnUse" x1="883.4621" y1="1978.7526" x2="2654.8113" y2="1978.7526">
						<stop  offset="0" style="stop-color:#AA80F9"/>
						<stop  offset="0.9964" style="stop-color:#6165D7"/>
					</linearGradient>
					<path class="st11" d="M1551.67,1481.66c-37.12-121-35.42-304.77,145.61-576.28c-466.99,134.53-813.82,558.01-813.82,1064.58
						c0,626.15,526.98,1109.65,1154.76,1080.96c231.48-10.58,443.41-89.59,616.59-214.96c-5.37-166.99-41.7-349.78-143.86-518.38
						C2230.03,1853.98,1668.15,1861.28,1551.67,1481.66z"/>
				</g>
			</g>
			<g>
				<defs>
					<path id="SVGID_11_" d="M1849.59,426.7c-1051.7,0-1170.71,898.38-1170.71,898.38H377.24v81.64l592.96,815.5l724.54-946.67
						h-285.38l403.84-473.38c0,0,464.1,82.93,624.29,136.73c207.01,76.32,369.81,249.52,369.81,249.52S2645.64,426.7,1849.59,426.7z
						"/>
				</defs>
				<clipPath id="SVGID_12_">
					<use xlink:href="#SVGID_11_"  style="overflow:visible;"/>
				</clipPath>
				<g class="st12">
					<linearGradient id="SVGID_13_" gradientUnits="userSpaceOnUse" x1="1086.7512" y1="2071.6104" x2="2224.0095" y2="512.9946">
						<stop  offset="0" style="stop-color:#FCB148"/>
						<stop  offset="0.0521" style="stop-color:#FDBA46"/>
						<stop  offset="0.1424" style="stop-color:#FFC244"/>
						<stop  offset="0.3183" style="stop-color:#FFC444"/>
						<stop  offset="0.4849" style="stop-color:#FDB946"/>
						<stop  offset="0.7754" style="stop-color:#F99C4D"/>
						<stop  offset="0.8658" style="stop-color:#F8924F"/>
						<stop  offset="1" style="stop-color:#F8924F"/>
					</linearGradient>
					<path class="st13" d="M2785.09,1347.01v3.41c-31.38-40.8-87.59-97.48-121.25-130.31c-0.63-1.45-1.68-2.9-2.31-4.35
						c-18.78-42.9-44.12-89.33-77.2-135.68c-32.86-46.48-74.62-92.23-123.3-134.36c-5.83-5.46-12.57-10.29-18.8-15.45
						c-3.18-2.52-6.39-5.12-9.62-7.64l-4.72-3.84c-1.66-1.28-3.37-2.43-5.03-3.67c-6.68-4.82-13.36-9.69-20.09-14.6l-5.02-3.67
						l-5.29-3.41c-3.5-2.3-6.99-4.61-10.49-6.87c-13.8-9.52-28.69-17.76-43.21-26.46c-7.4-4.23-15.15-8.11-22.68-12.12
						c-3.72-2.01-7.53-4.06-11.34-6.02c-3.9-1.84-7.84-3.71-11.7-5.55c-62.22-29.92-130.09-51.56-199.7-63.47
						c-8.7-1.37-17.39-2.73-26.18-4.1c-8.74-1.15-17.62-1.88-26.31-2.86l-13.18-1.41l-13.22-0.68l-13.22-0.77
						c-4.39-0.21-8.74-0.64-13.18-0.55c-8.79-0.04-17.57-0.13-26.4-0.17c-2.15,0-4.48-0.13-6.5,0l-5.87,0.3l-11.74,0.6l-11.66,0.55
						c-1.03,0.04-1.75,0.04-3.09,0.13l-11.97,0.85l-16,1.07l-11.97,0.85l-2.02,0.13l-0.72,0.04c0,0.04-4.17,0,2.83,0.13l-25.87,3.63
						c-4.26,0.64-8.56,1.02-12.82,1.92l-12.68,2.43l-12.69,2.39l-6.32,1.2c-2.11,0.38-4.17,0.98-6.23,1.45
						c-8.29,2.01-16.58,3.97-24.83,6.02c-4.17,0.85-8.2,2.22-12.24,3.37l-12.1,3.63l-12.1,3.46l-11.83,4.14
						c-7.89,2.82-15.78,5.29-23.44,8.28c-7.62,3.07-15.28,6.15-22.86,9.26c-60.29,25.52-114.49,58.52-160.61,96.2l-8.7,6.91
						l-8.25,7.38c-5.47,4.87-11.12,9.52-16.32,14.51c-0.22,0.17-0.4,0.43-0.63,0.6c-10.13,9.99-20.4,19.38-29.5,29.71
						c-2.42,2.52-4.8,5.08-7.13,7.64l-3.59,3.76l-3.32,4.01c-4.44,5.21-8.83,10.46-13.22,15.62c-1.08,1.28-2.24,2.52-3.32,3.84
						l-3,4.01c-2.06,2.69-4.08,5.38-6.1,7.98c-3.94,5.38-8.25,10.33-11.79,15.88c-29.94,42.68-52.76,85.36-68.27,126.08
						c-15.65,40.63-24.92,78.75-30.26,112.42c-0.58,4.23-1.17,8.37-1.75,12.46c-0.49,4.05-1.34,8.02-1.52,11.99
						c-0.67,7.94-1.35,15.49-2.02,22.71c-0.45,7.34-0.45,14.38-0.76,21c-0.13,3.33-0.36,6.57-0.4,9.69c0.13,3.2,0.22,6.32,0.27,9.3
						c0.09,6.02,0.18,11.69,0.27,16.99c-0.04,1.49,0.23,2.26,0.32,3.29c0.13,0.98,0.27,1.96,0.4,2.9c0.18,1.88,0.45,1.62,0.63,3.33
						c0.13,1.45,0.31,2.13,0.45,2.13h295.09l-179.3,189.29l-416.84,434.07l-596.19-623.36h313.47c0.45,0,0.94-5.12,1.43-9.13
						c1.21-8.66,2.51-17.12,3.94-27.4c0.81-5.12,1.52-9.9,2.38-15.41c0.45-2.69,0.85-5.25,1.3-8.07c0.4-2.77,0.81-5.76,1.39-8.19
						c2.2-10.33,4.48-21.21,6.9-32.82c1.3-5.76,2.56-11.65,3.9-17.71c1.44-6.06,3.14-12.21,4.84-18.52
						c3.41-12.59,6.72-25.82,10.85-39.44c4.39-13.53,8.97-27.57,13.67-42.17c2.29-7.34,5.29-14.55,8.07-22.02
						c2.82-7.34,5.74-14.9,8.7-22.58c24.34-60.82,57.56-127.06,101.98-193.65c44.24-66.63,100.59-133,167.47-194.54
						c8.11-7.9,17.08-15.11,25.73-22.66c4.39-3.71,8.74-7.47,13.13-11.23l6.68-5.63l6.81-5.38c9.19-7.13,18.47-14.34,27.7-21.55
						l6.99-5.38l7.26-5.12c4.89-3.46,9.73-6.87,14.61-10.29c19.14-13.96,39.72-26.55,60.16-39.52c10.31-6.32,20.98-12.21,31.6-18.31
						c5.24-2.99,10.58-5.98,15.91-9.05c5.47-2.82,10.94-5.63,16.4-8.45c87.23-45.5,183.61-80.03,283.66-100.69
						c12.51-2.35,25.1-4.74,37.65-7.09c12.55-2.22,25.33-3.76,37.97-5.59l19.01-2.56l19.14-1.79l19.09-1.75
						c6.37-0.55,12.69-1.24,19.1-1.45c12.73-0.55,25.51-2.01,38.28-2.56c3.14-0.13,6.36-1.28,9.55-1.28h9.59l19.05,1.02l19.05,0.6
						c6.36,0,12.73,0.81,19.05,1.11l37.88,2.18c8.61,0.13,2.96,0.21,5.15,0.26l0.98,0.13l2.02,0.21l3.94,0.51l7.98,0.94l15.87,1.88
						l7.98,0.94l3.94,0.47l4.89,0.64l20.08,2.82l20.08,2.9l9.95,1.49c3.27,0.51,6.19,1.2,9.32,1.79
						c12.24,2.48,24.47,4.99,36.71,7.43c6.1,1.15,12.1,2.82,18.11,4.31l18.07,4.57l17.93,4.57l17.71,5.34
						c11.74,3.63,23.53,7.04,35.05,10.97c11.52,4.1,22.95,8.2,34.38,12.29c90.69,34.32,173.43,80.11,244.57,133.42
						c4.48,3.29,8.92,6.62,13.36,9.9c4.35,3.41,8.61,6.87,12.87,10.37c8.52,6.91,17.08,13.57,25.28,20.66
						c16.18,14.47,32.32,28.34,47.07,43.36c3.76,3.67,7.44,7.38,11.21,11.01l5.51,5.46l5.29,5.68c7.04,7.6,13.98,15.15,20.84,22.62
						l5.15,5.63l4.93,5.8c3.18,3.88,6.45,7.73,9.64,11.57c6.36,7.73,13.05,15.07,18.78,23.05c32.5,41.78,60.02,84.12,82.79,125.87
						c11.12,20.27,21.02,40.46,29.77,60.39c27.03,60.86,44.38,118.78,55.31,170.38c1.21,6.49,2.51,12.85,3.72,19.12
						c1.16,6.23,2.55,12.33,3.32,18.44c1.7,12.16,3.41,23.82,4.98,35.04c1.35,11.27,2.06,22.11,3.05,32.4
						c0.4,5.12,0.94,10.12,1.25,15.07c0.18,4.87,1.26,9.65,1.48,14.34C2783.52,1329.85,2785.09,1338.78,2785.09,1347.01z"/>
					<linearGradient id="SVGID_14_" gradientUnits="userSpaceOnUse" x1="2010.9781" y1="1322.234" x2="2431.3809" y2="746.0709">
						<stop  offset="0" style="stop-color:#FCB148"/>
						<stop  offset="0.0521" style="stop-color:#FDBA46"/>
						<stop  offset="0.1424" style="stop-color:#FFC244"/>
						<stop  offset="0.3183" style="stop-color:#FFC444"/>
						<stop  offset="0.4849" style="stop-color:#FDB946"/>
						<stop  offset="0.7754" style="stop-color:#F99C4D"/>
						<stop  offset="0.8658" style="stop-color:#F8924F"/>
						<stop  offset="1" style="stop-color:#F8924F"/>
					</linearGradient>
					<path class="st14" d="M2785.09,1347.01v3.41c-31.38-40.8-87.59-97.48-121.25-130.31c-0.63-1.45-1.68-2.9-2.31-4.35
						c-18.78-42.9-44.12-89.33-77.2-135.68c-32.86-46.48-74.62-92.23-123.3-134.36c-5.83-5.46-12.57-10.29-18.8-15.45
						c-3.18-2.52-6.39-5.12-9.62-7.64l-4.72-3.84c-1.66-1.28-3.37-2.43-5.03-3.67c-6.68-4.82-13.36-9.69-20.09-14.6l-5.02-3.67
						l-5.29-3.41c-3.5-2.3-6.99-4.61-10.49-6.87c-13.8-9.52-28.69-17.76-43.21-26.46c-7.4-4.23-15.15-8.11-22.68-12.12
						c-3.72-2.01-7.53-4.06-11.34-6.02c-3.9-1.84-7.84-3.71-11.7-5.55c-62.22-29.92-130.09-51.56-199.7-63.47
						c-8.7-1.37-17.39-2.73-26.18-4.1c-8.74-1.15-17.62-1.88-26.31-2.86l-13.18-1.41l-13.22-0.68l-13.22-0.77
						c-4.39-0.21-8.74-0.64-13.18-0.55c-8.79-0.04-17.57-0.13-26.4-0.17c-2.15,0-4.48-0.13-6.5,0l-5.87,0.3l-11.74,0.6l-11.66,0.55
						c-1.03,0.04-1.75,0.04-3.09,0.13l-11.97,0.85l-16,1.07l-11.97,0.85l-2.02,0.13l-0.72,0.04c0,0.04-4.17,0,2.83,0.13l-25.87,3.63
						c-4.26,0.64-8.56,1.02-12.82,1.92l-12.68,2.43l-12.69,2.39l-6.32,1.2c-2.11,0.38-4.17,0.98-6.23,1.45
						c-8.29,2.01-16.58,3.97-24.83,6.02c-4.17,0.85-8.2,2.22-12.24,3.37l-12.1,3.63l-12.1,3.46l-11.83,4.14
						c-7.89,2.82-15.78,5.29-23.44,8.28c-7.62,3.07-15.28,6.15-22.86,9.26c-60.29,25.52-114.49,58.52-160.61,96.2l-8.7,6.91
						l-8.25,7.38c-5.47,4.87-11.12,9.52-16.32,14.51c-0.22,0.17-0.4,0.43-0.63,0.6c132.46-156.17,347.04-257.63,589.19-257.63
						c248.11,0,467.27,106.49,598.79,269.15c11.12,20.27,21.02,40.46,29.77,60.39c27.03,60.86,44.38,118.78,55.31,170.38
						c1.21,6.49,2.51,12.85,3.72,19.12c1.16,6.23,2.55,12.33,3.32,18.44c1.7,12.16,3.41,23.82,4.98,35.04
						c1.35,11.27,2.06,22.11,3.05,32.4c0.4,5.12,0.94,10.12,1.25,15.07c0.18,4.87,1.26,9.65,1.48,14.34
						C2783.52,1329.85,2785.09,1338.78,2785.09,1347.01z"/>
				</g>
			</g>
		</g>
		<g>
			<g>
				<linearGradient id="SVGID_15_" gradientUnits="userSpaceOnUse" x1="522.4024" y1="3213.3059" x2="1467.7875" y2="3213.3059">
					<stop  offset="0" style="stop-color:#FCB148"/>
					<stop  offset="0.0521" style="stop-color:#FDBA46"/>
					<stop  offset="0.1424" style="stop-color:#FFC244"/>
					<stop  offset="0.3183" style="stop-color:#FFC444"/>
					<stop  offset="0.4849" style="stop-color:#FDB946"/>
					<stop  offset="0.7754" style="stop-color:#F99C4D"/>
					<stop  offset="0.8658" style="stop-color:#F8924F"/>
					<stop  offset="1" style="stop-color:#F8924F"/>
				</linearGradient>
				<path class="st15" d="M592.65,3141.08v91.13c0,29.45,183.96,53.32,410.88,53.32s410.88-23.87,410.88-53.32v-91.13H592.65z"/>
				<linearGradient id="SVGID_16_" gradientUnits="userSpaceOnUse" x1="999.4396" y1="3106.8118" x2="1049.2793" y2="3524.0422">
					<stop  offset="0" style="stop-color:#FFDB44"/>
					<stop  offset="1" style="stop-color:#FEEF06"/>
				</linearGradient>
				<path class="st16" d="M1414.41,3141.08c0,29.45-183.96,53.32-410.88,53.32s-410.88-23.87-410.88-53.32
					c0-29.45,183.96-53.32,410.88-53.32S1414.41,3111.63,1414.41,3141.08z"/>
				<linearGradient id="SVGID_17_" gradientUnits="userSpaceOnUse" x1="997.2725" y1="3088.2051" x2="1012.579" y2="3216.3438">
					<stop  offset="0" style="stop-color:#FFDB44"/>
					<stop  offset="1" style="stop-color:#FEEF06"/>
				</linearGradient>
				<path class="st17" d="M1003.53,3198.08c-200.97,0-411.12-19.2-411.12-56.22c0-2.03,0.73-5.61,2.76-5.61
					c2.03,0,1.16,2.8,1.16,4.83c0,23.48,167.23,49.64,407.2,49.64c239.97,0,407.2-26.16,407.2-49.64c0-2.03,0.35-3.94,2.38-3.94
					s1.54,2.71,1.54,4.75C1414.65,3178.91,1204.5,3198.08,1003.53,3198.08z"/>
				<g>
					<path class="st18" d="M964.71,3144.05c4.03-2.79,8.32-5.54,12.91-8.26c4.55-2.71,10.47-5.17,17.65-7.36
						c7.22-2.19,16.25-3.97,27.08-5.36c10.84-1.38,24.39-2.11,40.57-2.19c15.88-0.08,30.77,0.43,44.72,1.51
						c13.91,1.08,26.18,2.71,36.78,4.87c10.55,2.16,19.17,4.83,25.82,8.01c6.6,3.19,10.53,6.83,11.8,10.94l46.26,0.47
						c3.36,0.02,6.33,0.29,8.87,0.82c2.58,0.53,3.84,1.19,3.84,2l0.02,3.81l-59.48-0.57c-2.09,4.67-7.4,8.93-15.95,12.8
						c-8.5,3.88-19.37,7.23-32.61,10.06l-21.66-3.01c-1.94-0.3-3.53-0.67-4.78-1.13c-1.25-0.45-1.85-0.95-1.86-1.49
						c0-0.73,1.67-1.57,5.02-2.51c3.35-0.94,7.13-2.11,11.34-3.49c4.21-1.38,8.34-3.02,12.41-4.91c4.04-1.88,6.74-4.14,8.14-6.76
						l-140.39-1.39c-3.69,2.71-7.85,5.38-12.4,8c-4.59,2.62-10.65,4.98-18.21,7.07c-7.56,2.1-16.98,3.79-28.25,5.1
						c-11.31,1.3-25.47,2-42.59,2.08c-12.87,0.06-25.39-0.43-37.66-1.46c-12.27-1.04-23.17-2.59-32.69-4.66
						c-9.52-2.07-17.32-4.63-23.45-7.68c-6.08-3.05-9.5-6.55-10.21-10.51l-38.09-0.39c-3.36-0.02-6.33-0.28-9-0.79
						c-2.63-0.51-3.97-1.18-3.97-2.03l-0.02-3.81l52.07,0.5c2.3-4.01,7.02-7.51,14.24-10.49c7.21-2.98,16.02-5.63,26.43-7.95
						l17.44,2.4c5.3,0.74,7.93,1.61,7.93,2.61c0,0.54-1.07,1.21-3.26,2.01c-2.23,0.8-4.81,1.76-7.82,2.87
						c-2.96,1.11-5.88,2.42-8.67,3.91c-2.83,1.49-4.93,3.19-6.34,5.08L964.71,3144.05z M836.23,3149.24
						c1.05,2.5,3.38,4.65,6.92,6.46c3.54,1.81,7.93,3.3,13.23,4.47c5.3,1.17,11.24,2.02,17.83,2.57c6.63,0.55,13.56,0.8,20.79,0.77
						c8.43-0.04,15.79-0.41,22.07-1.09c6.24-0.69,11.74-1.62,16.51-2.8c4.73-1.18,8.9-2.54,12.42-4.1c3.52-1.56,6.65-3.25,9.49-5.07
						L836.23,3149.24z M1141.84,3145.83c-1.04-2.53-3.6-4.75-7.56-6.66c-3.97-1.9-9.06-3.51-15.22-4.8
						c-6.16-1.3-13.35-2.26-21.58-2.9c-8.18-0.63-17.22-0.93-27.12-0.88c-8.78,0.04-16.39,0.44-22.72,1.18
						c-6.32,0.74-11.83,1.74-16.51,3c-4.64,1.25-8.64,2.71-11.86,4.38c-3.26,1.67-6.31,3.46-9.1,5.36L1141.84,3145.83z"/>
				</g>
				
					<linearGradient id="SVGID_18_" gradientUnits="userSpaceOnUse" x1="657.5875" y1="924.929" x2="672.8398" y2="1052.6132" gradientTransform="matrix(-1 0 0 -1 1669.249 4127.8389)">
					<stop  offset="3.597120e-03" style="stop-color:#F36F56"/>
					<stop  offset="0.3059" style="stop-color:#F99C4C"/>
					<stop  offset="0.545" style="stop-color:#FDB946"/>
					<stop  offset="0.6817" style="stop-color:#FFC444"/>
					<stop  offset="0.8038" style="stop-color:#FFC244"/>
					<stop  offset="0.8667" style="stop-color:#FEBA46"/>
					<stop  offset="0.916" style="stop-color:#FCAD49"/>
					<stop  offset="0.958" style="stop-color:#F99A4D"/>
					<stop  offset="0.9955" style="stop-color:#F58152"/>
					<stop  offset="1" style="stop-color:#F57E53"/>
				</linearGradient>
				<path class="st19" d="M1003.59,3093.53c-183.2,0-373.96,16.12-404.47,47.33c1.19,1.1,2.3,2.27,3.33,3.51
					c25.72-21.67,183.23-43.48,401.14-43.48c223.5,0,383.54,22.95,402.92,45.15c0.95-1.22,1.97-2.38,3.07-3.48
					C1384.38,3110.25,1190.05,3093.53,1003.59,3093.53z"/>
			</g>
			<g>
				<linearGradient id="SVGID_19_" gradientUnits="userSpaceOnUse" x1="408.1807" y1="3117.5793" x2="1353.5647" y2="3117.5793">
					<stop  offset="0" style="stop-color:#FCB148"/>
					<stop  offset="0.0521" style="stop-color:#FDBA46"/>
					<stop  offset="0.1424" style="stop-color:#FFC244"/>
					<stop  offset="0.3183" style="stop-color:#FFC444"/>
					<stop  offset="0.4849" style="stop-color:#FDB946"/>
					<stop  offset="0.7754" style="stop-color:#F99C4D"/>
					<stop  offset="0.8658" style="stop-color:#F8924F"/>
					<stop  offset="1" style="stop-color:#F8924F"/>
				</linearGradient>
				<path class="st20" d="M478.43,3045.35v91.13c0,29.45,183.96,53.32,410.88,53.32c226.92,0,410.88-23.87,410.88-53.32v-91.13
					H478.43z"/>
				<linearGradient id="SVGID_20_" gradientUnits="userSpaceOnUse" x1="885.2174" y1="3011.0859" x2="935.057" y2="3428.3162">
					<stop  offset="0" style="stop-color:#FFDB44"/>
					<stop  offset="1" style="stop-color:#FEEF06"/>
				</linearGradient>
				<path class="st21" d="M1300.19,3045.35c0,29.45-183.96,53.32-410.88,53.32c-226.92,0-410.88-23.87-410.88-53.32
					c0-29.45,183.96-53.32,410.88-53.32C1116.23,2992.03,1300.19,3015.9,1300.19,3045.35z"/>
				<linearGradient id="SVGID_21_" gradientUnits="userSpaceOnUse" x1="883.0504" y1="2992.4792" x2="898.3569" y2="3120.6172">
					<stop  offset="0" style="stop-color:#FFDB44"/>
					<stop  offset="1" style="stop-color:#FEEF06"/>
				</linearGradient>
				<path class="st22" d="M889.31,3102.35c-200.97,0-411.12-19.2-411.12-56.22c0-2.03,0.73-5.61,2.76-5.61
					c2.03,0,1.16,2.79,1.16,4.83c0,23.48,167.23,49.64,407.2,49.64s407.2-26.16,407.2-49.64c0-2.03,0.35-3.94,2.38-3.94
					c2.03,0,1.54,2.71,1.54,4.75C1300.43,3083.18,1090.28,3102.35,889.31,3102.35z"/>
				<g>
					<path class="st18" d="M850.48,3048.32c4.03-2.79,8.32-5.54,12.91-8.26c4.55-2.71,10.47-5.17,17.65-7.36
						c7.22-2.19,16.25-3.97,27.09-5.36c10.84-1.38,24.39-2.11,40.57-2.19c15.88-0.08,30.77,0.43,44.72,1.51
						c13.91,1.08,26.18,2.71,36.78,4.87c10.55,2.16,19.17,4.83,25.82,8.01c6.6,3.19,10.53,6.83,11.8,10.94l46.26,0.47
						c3.36,0.02,6.33,0.29,8.87,0.82c2.59,0.53,3.84,1.19,3.84,2l0.02,3.81l-59.48-0.57c-2.09,4.67-7.4,8.93-15.95,12.8
						c-8.5,3.87-19.37,7.22-32.61,10.06l-21.66-3.01c-1.94-0.3-3.53-0.67-4.78-1.13c-1.25-0.45-1.86-0.95-1.86-1.49
						c0-0.73,1.67-1.57,5.02-2.5c3.35-0.94,7.13-2.11,11.34-3.49c4.21-1.38,8.33-3.02,12.41-4.91c4.04-1.89,6.74-4.14,8.14-6.76
						l-140.38-1.39c-3.69,2.71-7.85,5.38-12.4,8c-4.59,2.62-10.65,4.98-18.21,7.07c-7.56,2.09-16.98,3.79-28.25,5.1
						c-11.31,1.3-25.47,2-42.59,2.08c-12.87,0.06-25.39-0.42-37.66-1.46c-12.27-1.04-23.16-2.59-32.69-4.66
						c-9.52-2.07-17.32-4.63-23.45-7.68c-6.08-3.05-9.5-6.55-10.21-10.51l-38.09-0.39c-3.36-0.02-6.33-0.28-9-0.79
						c-2.63-0.51-3.96-1.18-3.97-2.03l-0.02-3.81l52.08,0.5c2.3-4.01,7.02-7.51,14.24-10.49c7.21-2.98,16.02-5.63,26.43-7.95
						l17.44,2.39c5.3,0.74,7.93,1.61,7.93,2.61c0,0.54-1.07,1.21-3.26,2.01c-2.23,0.8-4.81,1.76-7.82,2.87
						c-2.96,1.11-5.88,2.42-8.67,3.91c-2.83,1.49-4.93,3.18-6.34,5.08L850.48,3048.32z M722.01,3053.52
						c1.05,2.5,3.38,4.65,6.92,6.46c3.54,1.81,7.93,3.3,13.23,4.47c5.3,1.17,11.24,2.02,17.83,2.57c6.63,0.54,13.56,0.8,20.79,0.77
						c8.43-0.04,15.79-0.41,22.07-1.09c6.24-0.69,11.74-1.62,16.51-2.79c4.73-1.18,8.89-2.54,12.42-4.1
						c3.52-1.56,6.65-3.25,9.49-5.07L722.01,3053.52z M1027.62,3050.11c-1.05-2.53-3.6-4.75-7.56-6.66
						c-3.97-1.9-9.05-3.51-15.22-4.8c-6.16-1.3-13.35-2.26-21.57-2.89c-8.18-0.63-17.22-0.93-27.12-0.88
						c-8.78,0.04-16.39,0.44-22.72,1.18c-6.32,0.75-11.83,1.74-16.51,3c-4.64,1.25-8.64,2.71-11.86,4.38
						c-3.26,1.67-6.31,3.45-9.1,5.36L1027.62,3050.11z"/>
				</g>
				
					<linearGradient id="SVGID_22_" gradientUnits="userSpaceOnUse" x1="771.8102" y1="1020.6555" x2="787.0625" y2="1148.3395" gradientTransform="matrix(-1 0 0 -1 1669.249 4127.8389)">
					<stop  offset="3.597120e-03" style="stop-color:#F36F56"/>
					<stop  offset="0.3059" style="stop-color:#F99C4C"/>
					<stop  offset="0.545" style="stop-color:#FDB946"/>
					<stop  offset="0.6817" style="stop-color:#FFC444"/>
					<stop  offset="0.8038" style="stop-color:#FFC244"/>
					<stop  offset="0.8667" style="stop-color:#FEBA46"/>
					<stop  offset="0.916" style="stop-color:#FCAD49"/>
					<stop  offset="0.958" style="stop-color:#F99A4D"/>
					<stop  offset="0.9955" style="stop-color:#F58152"/>
					<stop  offset="1" style="stop-color:#F57E53"/>
				</linearGradient>
				<path class="st23" d="M889.37,2997.8c-183.2,0-373.96,16.12-404.47,47.33c1.19,1.1,2.3,2.28,3.33,3.51
					c25.72-21.67,183.23-43.48,401.14-43.48c223.5,0,383.54,22.95,402.92,45.15c0.95-1.22,1.97-2.38,3.07-3.48
					C1270.16,3014.52,1075.82,2997.8,889.37,2997.8z"/>
			</g>
			<g>
				<linearGradient id="SVGID_23_" gradientUnits="userSpaceOnUse" x1="506.7382" y1="3022.1333" x2="1452.1232" y2="3022.1333">
					<stop  offset="0" style="stop-color:#FCB148"/>
					<stop  offset="0.0521" style="stop-color:#FDBA46"/>
					<stop  offset="0.1424" style="stop-color:#FFC244"/>
					<stop  offset="0.3183" style="stop-color:#FFC444"/>
					<stop  offset="0.4849" style="stop-color:#FDB946"/>
					<stop  offset="0.7754" style="stop-color:#F99C4D"/>
					<stop  offset="0.8658" style="stop-color:#F8924F"/>
					<stop  offset="1" style="stop-color:#F8924F"/>
				</linearGradient>
				<path class="st24" d="M576.99,2949.91v91.13c0,29.45,183.96,53.32,410.88,53.32c226.92,0,410.88-23.87,410.88-53.32v-91.13
					H576.99z"/>
				<linearGradient id="SVGID_24_" gradientUnits="userSpaceOnUse" x1="983.7755" y1="2915.6401" x2="1033.6151" y2="3332.8704">
					<stop  offset="0" style="stop-color:#FFDB44"/>
					<stop  offset="1" style="stop-color:#FEEF06"/>
				</linearGradient>
				<path class="st25" d="M1398.75,2949.91c0,29.45-183.96,53.32-410.88,53.32c-226.92,0-410.88-23.87-410.88-53.32
					c0-29.45,183.96-53.32,410.88-53.32C1214.79,2896.58,1398.75,2920.46,1398.75,2949.91z"/>
				<linearGradient id="SVGID_25_" gradientUnits="userSpaceOnUse" x1="981.6088" y1="2897.0334" x2="996.9153" y2="3025.1711">
					<stop  offset="0" style="stop-color:#FFDB44"/>
					<stop  offset="1" style="stop-color:#FEEF06"/>
				</linearGradient>
				<path class="st26" d="M987.87,3006.9c-200.97,0-411.12-19.19-411.12-56.22c0-2.03,0.73-5.61,2.76-5.61
					c2.03,0,1.16,2.79,1.16,4.83c0,23.48,167.23,49.64,407.2,49.64s407.2-26.16,407.2-49.64c0-2.03,0.35-3.94,2.38-3.94
					c2.03,0,1.54,2.71,1.54,4.75C1398.99,2987.74,1188.84,3006.9,987.87,3006.9z"/>
				<g>
					<path class="st18" d="M949.04,2952.88c4.03-2.79,8.32-5.54,12.91-8.26c4.55-2.71,10.47-5.17,17.65-7.36
						c7.22-2.19,16.25-3.97,27.09-5.36c10.84-1.38,24.39-2.11,40.57-2.19c15.88-0.08,30.77,0.43,44.72,1.51
						c13.91,1.08,26.18,2.71,36.78,4.87c10.56,2.16,19.17,4.83,25.82,8.01c6.6,3.19,10.53,6.83,11.8,10.94l46.26,0.47
						c3.36,0.02,6.33,0.29,8.87,0.82c2.59,0.53,3.84,1.19,3.84,2l0.02,3.81l-59.48-0.57c-2.09,4.67-7.4,8.93-15.95,12.8
						c-8.5,3.87-19.37,7.22-32.61,10.06l-21.66-3.01c-1.94-0.3-3.53-0.67-4.78-1.13c-1.25-0.45-1.86-0.95-1.86-1.49
						c0-0.73,1.67-1.57,5.02-2.5c3.35-0.94,7.13-2.11,11.34-3.49c4.21-1.38,8.33-3.02,12.41-4.91c4.04-1.89,6.74-4.14,8.14-6.76
						l-140.39-1.39c-3.69,2.71-7.85,5.38-12.4,8c-4.59,2.62-10.65,4.98-18.21,7.07c-7.56,2.09-16.98,3.79-28.25,5.1
						c-11.31,1.31-25.47,2-42.59,2.08c-12.87,0.06-25.39-0.42-37.66-1.46c-12.27-1.04-23.17-2.59-32.69-4.66
						c-9.52-2.07-17.32-4.63-23.45-7.68c-6.08-3.05-9.5-6.55-10.21-10.51l-38.09-0.39c-3.36-0.02-6.33-0.28-9-0.79
						c-2.63-0.51-3.97-1.18-3.97-2.03l-0.02-3.81l52.08,0.5c2.3-4.01,7.02-7.51,14.24-10.49c7.21-2.98,16.02-5.63,26.43-7.95
						l17.44,2.39c5.3,0.74,7.93,1.61,7.93,2.61c0,0.54-1.07,1.21-3.26,2.01c-2.23,0.8-4.81,1.76-7.82,2.87
						c-2.96,1.11-5.88,2.42-8.67,3.91c-2.83,1.49-4.93,3.19-6.34,5.08L949.04,2952.88z M820.57,2958.07
						c1.05,2.5,3.38,4.65,6.92,6.46c3.54,1.81,7.93,3.3,13.23,4.47c5.3,1.17,11.24,2.02,17.83,2.57c6.63,0.54,13.56,0.8,20.79,0.77
						c8.43-0.04,15.79-0.41,22.07-1.09c6.24-0.69,11.74-1.62,16.51-2.79c4.73-1.18,8.9-2.54,12.42-4.1
						c3.52-1.56,6.65-3.25,9.49-5.07L820.57,2958.07z M1126.18,2954.66c-1.04-2.53-3.59-4.75-7.56-6.66
						c-3.97-1.9-9.06-3.51-15.22-4.8c-6.16-1.3-13.35-2.26-21.57-2.9c-8.18-0.63-17.22-0.93-27.12-0.88
						c-8.78,0.04-16.4,0.44-22.72,1.18c-6.32,0.74-11.83,1.74-16.51,3c-4.64,1.25-8.64,2.71-11.86,4.39
						c-3.26,1.67-6.31,3.45-9.1,5.36L1126.18,2954.66z"/>
				</g>
				
					<linearGradient id="SVGID_26_" gradientUnits="userSpaceOnUse" x1="673.2517" y1="1116.1014" x2="688.504" y2="1243.7854" gradientTransform="matrix(-1 0 0 -1 1669.249 4127.8389)">
					<stop  offset="3.597120e-03" style="stop-color:#F36F56"/>
					<stop  offset="0.3059" style="stop-color:#F99C4C"/>
					<stop  offset="0.545" style="stop-color:#FDB946"/>
					<stop  offset="0.6817" style="stop-color:#FFC444"/>
					<stop  offset="0.8038" style="stop-color:#FFC244"/>
					<stop  offset="0.8667" style="stop-color:#FEBA46"/>
					<stop  offset="0.916" style="stop-color:#FCAD49"/>
					<stop  offset="0.958" style="stop-color:#F99A4D"/>
					<stop  offset="0.9955" style="stop-color:#F58152"/>
					<stop  offset="1" style="stop-color:#F57E53"/>
				</linearGradient>
				<path class="st27" d="M987.92,2902.36c-183.2,0-373.96,16.12-404.47,47.33c1.19,1.1,2.3,2.28,3.33,3.51
					c25.72-21.67,183.23-43.48,401.14-43.48c223.5,0,383.54,22.95,402.92,45.15c0.95-1.22,1.97-2.38,3.07-3.48
					C1368.72,2919.07,1174.38,2902.36,987.92,2902.36z"/>
			</g>
			<g>
				<linearGradient id="SVGID_27_" gradientUnits="userSpaceOnUse" x1="566.5474" y1="2926.408" x2="1511.9313" y2="2926.408">
					<stop  offset="0" style="stop-color:#FCB148"/>
					<stop  offset="0.0521" style="stop-color:#FDBA46"/>
					<stop  offset="0.1424" style="stop-color:#FFC244"/>
					<stop  offset="0.3183" style="stop-color:#FFC444"/>
					<stop  offset="0.4849" style="stop-color:#FDB946"/>
					<stop  offset="0.7754" style="stop-color:#F99C4D"/>
					<stop  offset="0.8658" style="stop-color:#F8924F"/>
					<stop  offset="1" style="stop-color:#F8924F"/>
				</linearGradient>
				<path class="st28" d="M636.8,2854.18v91.13c0,29.45,183.96,53.32,410.88,53.32c226.92,0,410.88-23.87,410.88-53.32v-91.13H636.8
					z"/>
				<linearGradient id="SVGID_28_" gradientUnits="userSpaceOnUse" x1="1043.584" y1="2819.9138" x2="1093.4236" y2="3237.1445">
					<stop  offset="0" style="stop-color:#FFDB44"/>
					<stop  offset="1" style="stop-color:#FEEF06"/>
				</linearGradient>
				<ellipse class="st29" cx="1047.68" cy="2854.18" rx="410.88" ry="53.32"/>
				<linearGradient id="SVGID_29_" gradientUnits="userSpaceOnUse" x1="1041.4163" y1="2801.3066" x2="1056.7229" y2="2929.4453">
					<stop  offset="0" style="stop-color:#FFDB44"/>
					<stop  offset="1" style="stop-color:#FEEF06"/>
				</linearGradient>
				<path class="st30" d="M1047.67,2911.18c-200.97,0-411.12-19.2-411.12-56.22c0-2.03,0.73-5.61,2.76-5.61
					c2.03,0,1.16,2.8,1.16,4.83c0,23.48,167.23,49.64,407.2,49.64c239.97,0,407.2-26.16,407.2-49.64c0-2.03,0.35-3.94,2.38-3.94
					s1.54,2.71,1.54,4.75C1458.8,2892.01,1248.64,2911.18,1047.67,2911.18z"/>
				<g>
					<path class="st18" d="M1008.85,2857.15c4.03-2.79,8.32-5.54,12.91-8.26c4.55-2.71,10.48-5.17,17.65-7.36
						c7.22-2.19,16.25-3.97,27.09-5.36c10.84-1.38,24.39-2.11,40.57-2.19c15.88-0.08,30.77,0.43,44.72,1.51
						c13.91,1.08,26.18,2.71,36.78,4.87c10.55,2.16,19.17,4.83,25.82,8.01c6.6,3.19,10.53,6.83,11.8,10.94l46.26,0.47
						c3.36,0.02,6.33,0.29,8.87,0.82c2.58,0.53,3.84,1.19,3.84,2l0.02,3.81l-59.48-0.57c-2.09,4.67-7.4,8.93-15.95,12.8
						c-8.5,3.87-19.37,7.22-32.61,10.06l-21.66-3.01c-1.94-0.3-3.53-0.67-4.78-1.13c-1.25-0.45-1.85-0.95-1.86-1.49
						c0-0.73,1.67-1.57,5.02-2.5c3.35-0.94,7.13-2.11,11.34-3.49c4.21-1.38,8.33-3.02,12.41-4.91c4.04-1.88,6.74-4.14,8.14-6.76
						l-140.38-1.39c-3.69,2.71-7.85,5.38-12.4,8c-4.59,2.62-10.65,4.98-18.21,7.07c-7.56,2.09-16.98,3.79-28.25,5.1
						c-11.31,1.3-25.47,2-42.59,2.08c-12.87,0.06-25.39-0.43-37.66-1.46c-12.27-1.04-23.16-2.59-32.69-4.66
						c-9.52-2.07-17.32-4.63-23.45-7.68c-6.08-3.05-9.5-6.55-10.21-10.51l-38.09-0.39c-3.36-0.02-6.33-0.28-9-0.79
						c-2.63-0.51-3.96-1.18-3.97-2.03l-0.02-3.81l52.07,0.5c2.3-4.01,7.02-7.51,14.24-10.49c7.22-2.98,16.02-5.63,26.43-7.95
						l17.44,2.39c5.3,0.74,7.93,1.62,7.93,2.61c0,0.54-1.07,1.21-3.26,2.01c-2.23,0.8-4.81,1.76-7.82,2.87
						c-2.96,1.11-5.88,2.42-8.67,3.91c-2.83,1.49-4.93,3.19-6.34,5.08L1008.85,2857.15z M880.37,2862.34
						c1.05,2.5,3.38,4.65,6.92,6.46c3.54,1.82,7.93,3.3,13.23,4.47c5.3,1.17,11.24,2.02,17.83,2.57c6.63,0.55,13.56,0.8,20.79,0.77
						c8.43-0.04,15.79-0.41,22.07-1.09c6.24-0.69,11.74-1.62,16.51-2.8c4.73-1.18,8.9-2.54,12.42-4.1c3.52-1.56,6.65-3.25,9.49-5.07
						L880.37,2862.34z M1185.99,2858.94c-1.05-2.53-3.6-4.75-7.56-6.66c-3.97-1.9-9.05-3.51-15.21-4.8
						c-6.16-1.3-13.35-2.26-21.57-2.89c-8.18-0.63-17.22-0.93-27.12-0.88c-8.78,0.04-16.39,0.44-22.72,1.18
						c-6.32,0.75-11.83,1.74-16.51,3c-4.64,1.25-8.64,2.71-11.86,4.38c-3.26,1.67-6.31,3.46-9.1,5.36L1185.99,2858.94z"/>
				</g>
				
					<linearGradient id="SVGID_30_" gradientUnits="userSpaceOnUse" x1="613.4441" y1="1211.8273" x2="628.6964" y2="1339.5112" gradientTransform="matrix(-1 0 0 -1 1669.249 4127.8389)">
					<stop  offset="3.597120e-03" style="stop-color:#F36F56"/>
					<stop  offset="0.3059" style="stop-color:#F99C4C"/>
					<stop  offset="0.545" style="stop-color:#FDB946"/>
					<stop  offset="0.6817" style="stop-color:#FFC444"/>
					<stop  offset="0.8038" style="stop-color:#FFC244"/>
					<stop  offset="0.8667" style="stop-color:#FEBA46"/>
					<stop  offset="0.916" style="stop-color:#FCAD49"/>
					<stop  offset="0.958" style="stop-color:#F99A4D"/>
					<stop  offset="0.9955" style="stop-color:#F58152"/>
					<stop  offset="1" style="stop-color:#F57E53"/>
				</linearGradient>
				<path class="st31" d="M1047.73,2806.63c-183.2,0-373.96,16.12-404.47,47.33c1.2,1.1,2.3,2.27,3.34,3.51
					c25.72-21.67,183.23-43.48,401.14-43.48c223.5,0,383.54,22.95,402.92,45.15c0.95-1.22,1.97-2.38,3.07-3.48
					C1428.53,2823.35,1234.19,2806.63,1047.73,2806.63z"/>
			</g>
			<g>
				<linearGradient id="SVGID_31_" gradientUnits="userSpaceOnUse" x1="522.4024" y1="2823.1299" x2="1467.7875" y2="2823.1299">
					<stop  offset="0" style="stop-color:#FCB148"/>
					<stop  offset="0.0521" style="stop-color:#FDBA46"/>
					<stop  offset="0.1424" style="stop-color:#FFC244"/>
					<stop  offset="0.3183" style="stop-color:#FFC444"/>
					<stop  offset="0.4849" style="stop-color:#FDB946"/>
					<stop  offset="0.7754" style="stop-color:#F99C4D"/>
					<stop  offset="0.8658" style="stop-color:#F8924F"/>
					<stop  offset="1" style="stop-color:#F8924F"/>
				</linearGradient>
				<path class="st32" d="M592.65,2750.9v91.13c0,29.45,183.96,53.32,410.88,53.32s410.88-23.87,410.88-53.32v-91.13H592.65z"/>
				<linearGradient id="SVGID_32_" gradientUnits="userSpaceOnUse" x1="999.4396" y1="2716.6362" x2="1049.2792" y2="3133.8669">
					<stop  offset="0" style="stop-color:#FFDB44"/>
					<stop  offset="1" style="stop-color:#FEEF06"/>
				</linearGradient>
				<path class="st33" d="M1414.41,2750.9c0,29.45-183.96,53.32-410.88,53.32s-410.88-23.87-410.88-53.32
					c0-29.45,183.96-53.32,410.88-53.32S1414.41,2721.45,1414.41,2750.9z"/>
				<linearGradient id="SVGID_33_" gradientUnits="userSpaceOnUse" x1="997.2723" y1="2698.0286" x2="1012.579" y2="2826.1675">
					<stop  offset="0" style="stop-color:#FFDB44"/>
					<stop  offset="1" style="stop-color:#FEEF06"/>
				</linearGradient>
				<path class="st34" d="M1003.53,2807.9c-200.97,0-411.12-19.2-411.12-56.22c0-2.03,0.73-5.61,2.76-5.61
					c2.03,0,1.16,2.8,1.16,4.83c0,23.48,167.23,49.64,407.2,49.64c239.97,0,407.2-26.16,407.2-49.64c0-2.03,0.35-3.94,2.38-3.94
					s1.54,2.71,1.54,4.75C1414.65,2788.73,1204.5,2807.9,1003.53,2807.9z"/>
				<g>
					<path class="st18" d="M964.71,2753.87c4.03-2.79,8.32-5.54,12.91-8.26c4.55-2.71,10.47-5.17,17.65-7.36
						c7.22-2.19,16.25-3.97,27.08-5.36c10.84-1.38,24.39-2.11,40.57-2.19c15.88-0.08,30.77,0.43,44.72,1.51
						c13.91,1.08,26.18,2.71,36.78,4.87c10.55,2.16,19.17,4.83,25.82,8.01c6.6,3.18,10.53,6.83,11.8,10.94l46.26,0.47
						c3.36,0.02,6.33,0.29,8.87,0.82c2.58,0.53,3.84,1.19,3.84,2l0.02,3.81l-59.48-0.57c-2.09,4.67-7.4,8.93-15.95,12.8
						c-8.5,3.87-19.37,7.23-32.61,10.06l-21.66-3.01c-1.94-0.3-3.53-0.67-4.78-1.13c-1.25-0.45-1.85-0.95-1.86-1.49
						c0-0.73,1.67-1.57,5.02-2.5c3.35-0.94,7.13-2.11,11.34-3.49c4.21-1.38,8.34-3.02,12.41-4.91c4.04-1.89,6.74-4.14,8.14-6.76
						l-140.39-1.39c-3.69,2.71-7.85,5.38-12.4,8c-4.59,2.62-10.65,4.98-18.21,7.07c-7.56,2.09-16.98,3.79-28.25,5.1
						c-11.31,1.3-25.47,2-42.59,2.08c-12.87,0.06-25.39-0.43-37.66-1.46c-12.27-1.04-23.17-2.59-32.69-4.66
						c-9.52-2.07-17.32-4.63-23.45-7.68c-6.08-3.05-9.5-6.55-10.21-10.51l-38.09-0.39c-3.36-0.02-6.33-0.28-9-0.79
						c-2.63-0.51-3.97-1.18-3.97-2.03l-0.02-3.81l52.07,0.5c2.3-4.01,7.02-7.51,14.24-10.49c7.21-2.98,16.02-5.63,26.43-7.95
						l17.44,2.39c5.3,0.75,7.93,1.62,7.93,2.62c0,0.54-1.07,1.21-3.26,2.01c-2.23,0.8-4.81,1.76-7.82,2.87
						c-2.96,1.11-5.88,2.42-8.67,3.91c-2.83,1.49-4.93,3.18-6.34,5.08L964.71,2753.87z M836.23,2759.07
						c1.05,2.5,3.38,4.65,6.92,6.46c3.54,1.81,7.93,3.3,13.23,4.47c5.3,1.17,11.24,2.02,17.83,2.57c6.63,0.54,13.56,0.8,20.79,0.77
						c8.43-0.04,15.79-0.41,22.07-1.09c6.24-0.69,11.74-1.62,16.51-2.8c4.73-1.18,8.9-2.54,12.42-4.1c3.52-1.56,6.65-3.25,9.49-5.07
						L836.23,2759.07z M1141.84,2755.66c-1.04-2.53-3.6-4.75-7.56-6.66c-3.97-1.9-9.06-3.51-15.22-4.8
						c-6.16-1.3-13.35-2.26-21.58-2.89c-8.18-0.63-17.22-0.93-27.12-0.88c-8.78,0.04-16.39,0.44-22.72,1.18
						c-6.32,0.75-11.83,1.74-16.51,3c-4.64,1.25-8.64,2.72-11.86,4.38c-3.26,1.67-6.31,3.46-9.1,5.36L1141.84,2755.66z"/>
				</g>
				
					<linearGradient id="SVGID_34_" gradientUnits="userSpaceOnUse" x1="657.5875" y1="1315.1053" x2="672.8398" y2="1442.7889" gradientTransform="matrix(-1 0 0 -1 1669.249 4127.8389)">
					<stop  offset="3.597120e-03" style="stop-color:#F36F56"/>
					<stop  offset="0.3059" style="stop-color:#F99C4C"/>
					<stop  offset="0.545" style="stop-color:#FDB946"/>
					<stop  offset="0.6817" style="stop-color:#FFC444"/>
					<stop  offset="0.8038" style="stop-color:#FFC244"/>
					<stop  offset="0.8667" style="stop-color:#FEBA46"/>
					<stop  offset="0.916" style="stop-color:#FCAD49"/>
					<stop  offset="0.958" style="stop-color:#F99A4D"/>
					<stop  offset="0.9955" style="stop-color:#F58152"/>
					<stop  offset="1" style="stop-color:#F57E53"/>
				</linearGradient>
				<path class="st35" d="M1003.59,2703.35c-183.2,0-373.96,16.12-404.47,47.33c1.19,1.1,2.3,2.28,3.33,3.51
					c25.72-21.67,183.23-43.48,401.14-43.48c223.5,0,383.54,22.95,402.92,45.15c0.95-1.22,1.97-2.38,3.07-3.48
					C1384.38,2720.07,1190.05,2703.35,1003.59,2703.35z"/>
			</g>
			<g>
				<linearGradient id="SVGID_35_" gradientUnits="userSpaceOnUse" x1="408.1807" y1="2727.4033" x2="1353.5647" y2="2727.4033">
					<stop  offset="0" style="stop-color:#FCB148"/>
					<stop  offset="0.0521" style="stop-color:#FDBA46"/>
					<stop  offset="0.1424" style="stop-color:#FFC244"/>
					<stop  offset="0.3183" style="stop-color:#FFC444"/>
					<stop  offset="0.4849" style="stop-color:#FDB946"/>
					<stop  offset="0.7754" style="stop-color:#F99C4D"/>
					<stop  offset="0.8658" style="stop-color:#F8924F"/>
					<stop  offset="1" style="stop-color:#F8924F"/>
				</linearGradient>
				<path class="st36" d="M478.43,2655.18v91.14c0,29.45,183.96,53.32,410.88,53.32c226.92,0,410.88-23.87,410.88-53.32v-91.14
					H478.43z"/>
				<linearGradient id="SVGID_36_" gradientUnits="userSpaceOnUse" x1="885.2173" y1="2620.9097" x2="935.0571" y2="3038.1414">
					<stop  offset="0" style="stop-color:#FFDB44"/>
					<stop  offset="1" style="stop-color:#FEEF06"/>
				</linearGradient>
				<ellipse class="st37" cx="889.31" cy="2655.18" rx="410.88" ry="53.32"/>
				<linearGradient id="SVGID_37_" gradientUnits="userSpaceOnUse" x1="883.0504" y1="2602.3027" x2="898.3571" y2="2730.4414">
					<stop  offset="0" style="stop-color:#FFDB44"/>
					<stop  offset="1" style="stop-color:#FEEF06"/>
				</linearGradient>
				<path class="st38" d="M889.31,2712.17c-200.97,0-411.12-19.2-411.12-56.22c0-2.03,0.73-5.61,2.76-5.61
					c2.03,0,1.16,2.79,1.16,4.83c0,23.48,167.23,49.64,407.2,49.64s407.2-26.16,407.2-49.64c0-2.03,0.35-3.94,2.38-3.94
					c2.03,0,1.54,2.71,1.54,4.75C1300.43,2693.01,1090.28,2712.17,889.31,2712.17z"/>
				<g>
					<path class="st18" d="M850.48,2658.15c4.03-2.79,8.32-5.54,12.91-8.26c4.55-2.71,10.47-5.17,17.65-7.36
						c7.22-2.19,16.25-3.97,27.09-5.36c10.84-1.38,24.39-2.11,40.57-2.19c15.88-0.08,30.77,0.43,44.72,1.51
						c13.91,1.08,26.18,2.71,36.78,4.87c10.55,2.16,19.17,4.83,25.82,8.01c6.6,3.18,10.53,6.83,11.8,10.94l46.26,0.47
						c3.36,0.02,6.33,0.29,8.87,0.82c2.59,0.53,3.84,1.19,3.84,2l0.02,3.81l-59.48-0.57c-2.09,4.67-7.4,8.93-15.95,12.8
						c-8.5,3.87-19.37,7.23-32.61,10.06l-21.66-3.01c-1.94-0.3-3.53-0.67-4.78-1.13c-1.25-0.45-1.86-0.95-1.86-1.49
						c0-0.73,1.67-1.57,5.02-2.51c3.35-0.94,7.13-2.11,11.34-3.49c4.21-1.38,8.33-3.02,12.41-4.91c4.04-1.89,6.74-4.14,8.14-6.76
						l-140.38-1.39c-3.69,2.71-7.85,5.38-12.4,8c-4.59,2.62-10.65,4.98-18.21,7.07c-7.56,2.09-16.98,3.79-28.25,5.1
						c-11.31,1.31-25.47,2-42.59,2.08c-12.87,0.06-25.39-0.42-37.66-1.46c-12.27-1.04-23.16-2.59-32.69-4.66
						c-9.52-2.07-17.32-4.63-23.45-7.68c-6.08-3.05-9.5-6.55-10.21-10.51l-38.09-0.39c-3.36-0.02-6.33-0.28-9-0.79
						c-2.63-0.51-3.96-1.18-3.97-2.03l-0.02-3.81l52.08,0.5c2.3-4.01,7.02-7.51,14.24-10.49c7.21-2.98,16.02-5.63,26.43-7.95
						l17.44,2.39c5.3,0.74,7.93,1.61,7.93,2.61c0,0.54-1.07,1.21-3.26,2.01c-2.23,0.8-4.81,1.76-7.82,2.87
						c-2.96,1.11-5.88,2.41-8.67,3.91c-2.83,1.49-4.93,3.19-6.34,5.08L850.48,2658.15z M722.01,2663.34
						c1.05,2.5,3.38,4.65,6.92,6.46c3.54,1.81,7.93,3.3,13.23,4.47c5.3,1.17,11.24,2.02,17.83,2.57c6.63,0.55,13.56,0.8,20.79,0.77
						c8.43-0.04,15.79-0.41,22.07-1.09c6.24-0.69,11.74-1.62,16.51-2.8c4.73-1.18,8.89-2.54,12.42-4.1
						c3.52-1.56,6.65-3.25,9.49-5.07L722.01,2663.34z M1027.62,2659.93c-1.05-2.53-3.6-4.75-7.56-6.66
						c-3.97-1.9-9.05-3.51-15.22-4.8c-6.16-1.3-13.35-2.26-21.57-2.9c-8.18-0.63-17.22-0.93-27.12-0.88
						c-8.78,0.04-16.39,0.44-22.72,1.18c-6.32,0.75-11.83,1.74-16.51,3c-4.64,1.25-8.64,2.72-11.86,4.39
						c-3.26,1.67-6.31,3.45-9.1,5.36L1027.62,2659.93z"/>
				</g>
				
					<linearGradient id="SVGID_38_" gradientUnits="userSpaceOnUse" x1="771.8102" y1="1410.8319" x2="787.0625" y2="1538.5156" gradientTransform="matrix(-1 0 0 -1 1669.249 4127.8389)">
					<stop  offset="3.597120e-03" style="stop-color:#F36F56"/>
					<stop  offset="0.3059" style="stop-color:#F99C4C"/>
					<stop  offset="0.545" style="stop-color:#FDB946"/>
					<stop  offset="0.6817" style="stop-color:#FFC444"/>
					<stop  offset="0.8038" style="stop-color:#FFC244"/>
					<stop  offset="0.8667" style="stop-color:#FEBA46"/>
					<stop  offset="0.916" style="stop-color:#FCAD49"/>
					<stop  offset="0.958" style="stop-color:#F99A4D"/>
					<stop  offset="0.9955" style="stop-color:#F58152"/>
					<stop  offset="1" style="stop-color:#F57E53"/>
				</linearGradient>
				<path class="st39" d="M889.37,2607.63c-183.2,0-373.96,16.12-404.47,47.33c1.19,1.1,2.3,2.28,3.33,3.51
					c25.72-21.67,183.23-43.48,401.14-43.48c223.5,0,383.54,22.95,402.92,45.15c0.95-1.22,1.97-2.38,3.07-3.48
					C1270.16,2624.34,1075.82,2607.63,889.37,2607.63z"/>
			</g>
			<g>
				<linearGradient id="SVGID_39_" gradientUnits="userSpaceOnUse" x1="506.7382" y1="2631.9583" x2="1452.1232" y2="2631.9583">
					<stop  offset="0" style="stop-color:#FCB148"/>
					<stop  offset="0.0521" style="stop-color:#FDBA46"/>
					<stop  offset="0.1424" style="stop-color:#FFC244"/>
					<stop  offset="0.3183" style="stop-color:#FFC444"/>
					<stop  offset="0.4849" style="stop-color:#FDB946"/>
					<stop  offset="0.7754" style="stop-color:#F99C4D"/>
					<stop  offset="0.8658" style="stop-color:#F8924F"/>
					<stop  offset="1" style="stop-color:#F8924F"/>
				</linearGradient>
				<path class="st40" d="M576.99,2559.73v91.13c0,29.45,183.96,53.32,410.88,53.32c226.92,0,410.88-23.87,410.88-53.32v-91.13
					H576.99z"/>
				<linearGradient id="SVGID_40_" gradientUnits="userSpaceOnUse" x1="983.7754" y1="2525.4639" x2="1033.6151" y2="2942.6956">
					<stop  offset="0" style="stop-color:#FFDB44"/>
					<stop  offset="1" style="stop-color:#FEEF06"/>
				</linearGradient>
				<ellipse class="st41" cx="987.87" cy="2559.73" rx="410.88" ry="53.32"/>
				<linearGradient id="SVGID_41_" gradientUnits="userSpaceOnUse" x1="981.6088" y1="2506.8569" x2="996.9155" y2="2634.9956">
					<stop  offset="0" style="stop-color:#FFDB44"/>
					<stop  offset="1" style="stop-color:#FEEF06"/>
				</linearGradient>
				<path class="st42" d="M987.87,2616.73c-200.97,0-411.12-19.2-411.12-56.22c0-2.03,0.73-5.61,2.76-5.61
					c2.03,0,1.16,2.8,1.16,4.83c0,23.48,167.23,49.64,407.2,49.64s407.2-26.16,407.2-49.64c0-2.03,0.35-3.94,2.38-3.94
					c2.03,0,1.54,2.71,1.54,4.75C1398.99,2597.56,1188.84,2616.73,987.87,2616.73z"/>
				<g>
					<path class="st18" d="M949.04,2562.7c4.03-2.79,8.32-5.54,12.91-8.26c4.55-2.71,10.47-5.17,17.65-7.36
						c7.22-2.19,16.25-3.97,27.09-5.36c10.84-1.38,24.39-2.11,40.57-2.19c15.88-0.08,30.77,0.43,44.72,1.51
						c13.91,1.08,26.18,2.71,36.78,4.87c10.56,2.16,19.17,4.83,25.82,8.01c6.6,3.18,10.53,6.83,11.8,10.94l46.26,0.47
						c3.36,0.02,6.33,0.29,8.87,0.82c2.59,0.53,3.84,1.19,3.84,2l0.02,3.81l-59.48-0.57c-2.09,4.67-7.4,8.93-15.95,12.8
						c-8.5,3.87-19.37,7.23-32.61,10.06l-21.66-3.01c-1.94-0.3-3.53-0.67-4.78-1.13c-1.25-0.45-1.86-0.95-1.86-1.49
						c0-0.73,1.67-1.57,5.02-2.51c3.35-0.94,7.13-2.11,11.34-3.49c4.21-1.38,8.33-3.02,12.41-4.91c4.04-1.89,6.74-4.14,8.14-6.76
						l-140.39-1.39c-3.69,2.71-7.85,5.38-12.4,8c-4.59,2.62-10.65,4.98-18.21,7.07c-7.56,2.09-16.98,3.79-28.25,5.1
						c-11.31,1.31-25.47,2-42.59,2.08c-12.87,0.06-25.39-0.43-37.66-1.46c-12.27-1.04-23.17-2.59-32.69-4.66
						c-9.52-2.07-17.32-4.63-23.45-7.68c-6.08-3.05-9.5-6.55-10.21-10.51l-38.09-0.39c-3.36-0.02-6.33-0.28-9-0.79
						c-2.63-0.51-3.97-1.18-3.97-2.03l-0.02-3.81l52.08,0.5c2.3-4.01,7.02-7.51,14.24-10.49c7.21-2.98,16.02-5.63,26.43-7.95
						l17.44,2.39c5.3,0.74,7.93,1.61,7.93,2.62c0,0.54-1.07,1.21-3.26,2.01c-2.23,0.8-4.81,1.76-7.82,2.87
						c-2.96,1.11-5.88,2.42-8.67,3.91c-2.83,1.49-4.93,3.19-6.34,5.08L949.04,2562.7z M820.57,2567.89c1.05,2.5,3.38,4.65,6.92,6.46
						c3.54,1.82,7.93,3.3,13.23,4.47c5.3,1.17,11.24,2.02,17.83,2.57c6.63,0.55,13.56,0.8,20.79,0.77
						c8.43-0.04,15.79-0.41,22.07-1.09c6.24-0.69,11.74-1.62,16.51-2.8c4.73-1.18,8.9-2.54,12.42-4.1c3.52-1.56,6.65-3.25,9.49-5.07
						L820.57,2567.89z M1126.18,2564.49c-1.04-2.53-3.59-4.75-7.56-6.66c-3.97-1.9-9.06-3.51-15.22-4.8
						c-6.16-1.3-13.35-2.26-21.57-2.9c-8.18-0.63-17.22-0.93-27.12-0.88c-8.78,0.04-16.4,0.44-22.72,1.18
						c-6.32,0.75-11.83,1.74-16.51,3c-4.64,1.25-8.64,2.72-11.86,4.38c-3.26,1.67-6.31,3.46-9.1,5.36L1126.18,2564.49z"/>
				</g>
				
					<linearGradient id="SVGID_42_" gradientUnits="userSpaceOnUse" x1="673.2517" y1="1506.2778" x2="688.504" y2="1633.9615" gradientTransform="matrix(-1 0 0 -1 1669.249 4127.8389)">
					<stop  offset="3.597120e-03" style="stop-color:#F36F56"/>
					<stop  offset="0.3059" style="stop-color:#F99C4C"/>
					<stop  offset="0.545" style="stop-color:#FDB946"/>
					<stop  offset="0.6817" style="stop-color:#FFC444"/>
					<stop  offset="0.8038" style="stop-color:#FFC244"/>
					<stop  offset="0.8667" style="stop-color:#FEBA46"/>
					<stop  offset="0.916" style="stop-color:#FCAD49"/>
					<stop  offset="0.958" style="stop-color:#F99A4D"/>
					<stop  offset="0.9955" style="stop-color:#F58152"/>
					<stop  offset="1" style="stop-color:#F57E53"/>
				</linearGradient>
				<path class="st43" d="M987.92,2512.18c-183.2,0-373.96,16.12-404.47,47.33c1.19,1.1,2.3,2.28,3.33,3.51
					c25.72-21.67,183.23-43.48,401.14-43.48c223.5,0,383.54,22.95,402.92,45.15c0.95-1.22,1.97-2.38,3.07-3.48
					C1368.72,2528.9,1174.38,2512.18,987.92,2512.18z"/>
			</g>
			<g>
				<linearGradient id="SVGID_43_" gradientUnits="userSpaceOnUse" x1="455.4749" y1="2536.2319" x2="1400.859" y2="2536.2319">
					<stop  offset="0" style="stop-color:#FCB148"/>
					<stop  offset="0.0521" style="stop-color:#FDBA46"/>
					<stop  offset="0.1424" style="stop-color:#FFC244"/>
					<stop  offset="0.3183" style="stop-color:#FFC444"/>
					<stop  offset="0.4849" style="stop-color:#FDB946"/>
					<stop  offset="0.7754" style="stop-color:#F99C4D"/>
					<stop  offset="0.8658" style="stop-color:#F8924F"/>
					<stop  offset="1" style="stop-color:#F8924F"/>
				</linearGradient>
				<path class="st44" d="M525.73,2464v91.13c0,29.45,183.96,53.32,410.88,53.32c226.92,0,410.88-23.87,410.88-53.32V2464H525.73z"
					/>
				<linearGradient id="SVGID_44_" gradientUnits="userSpaceOnUse" x1="932.5116" y1="2429.738" x2="982.3515" y2="2846.9709">
					<stop  offset="0" style="stop-color:#FFDB44"/>
					<stop  offset="1" style="stop-color:#FEEF06"/>
				</linearGradient>
				<ellipse class="st45" cx="936.6" cy="2464" rx="410.88" ry="53.32"/>
				<linearGradient id="SVGID_45_" gradientUnits="userSpaceOnUse" x1="930.3446" y1="2411.1311" x2="945.6511" y2="2539.269">
					<stop  offset="0" style="stop-color:#FFDB44"/>
					<stop  offset="1" style="stop-color:#FEEF06"/>
				</linearGradient>
				<path class="st46" d="M936.6,2521c-200.97,0-411.12-19.2-411.12-56.22c0-2.03,0.73-5.61,2.76-5.61c2.03,0,1.16,2.79,1.16,4.83
					c0,23.48,167.23,49.64,407.2,49.64c239.97,0,407.2-26.16,407.2-49.64c0-2.03,0.35-3.94,2.38-3.94c2.03,0,1.54,2.71,1.54,4.75
					C1347.73,2501.84,1137.57,2521,936.6,2521z"/>
				<g>
					<path class="st18" d="M897.78,2466.98c4.03-2.79,8.32-5.54,12.91-8.26c4.55-2.71,10.48-5.17,17.65-7.36
						c7.22-2.19,16.25-3.97,27.09-5.36c10.84-1.38,24.39-2.11,40.57-2.19c15.88-0.08,30.77,0.43,44.72,1.51
						c13.91,1.08,26.18,2.71,36.78,4.87c10.55,2.16,19.17,4.83,25.82,8.01c6.6,3.19,10.53,6.83,11.8,10.94l46.26,0.47
						c3.36,0.02,6.33,0.29,8.87,0.82c2.59,0.53,3.84,1.19,3.84,2l0.02,3.81l-59.48-0.57c-2.09,4.66-7.4,8.93-15.95,12.8
						c-8.5,3.87-19.37,7.23-32.61,10.06l-21.66-3.01c-1.94-0.3-3.53-0.67-4.78-1.13c-1.25-0.45-1.86-0.95-1.86-1.49
						c0-0.73,1.67-1.57,5.02-2.51c3.35-0.94,7.13-2.11,11.34-3.49c4.21-1.38,8.33-3.02,12.41-4.91c4.04-1.89,6.74-4.14,8.14-6.76
						l-140.38-1.39c-3.69,2.71-7.85,5.38-12.4,8c-4.59,2.62-10.65,4.98-18.21,7.07c-7.56,2.09-16.98,3.79-28.25,5.1
						c-11.31,1.3-25.47,2-42.59,2.08c-12.87,0.06-25.39-0.42-37.66-1.46c-12.27-1.04-23.17-2.59-32.69-4.66
						c-9.52-2.07-17.32-4.63-23.45-7.68c-6.08-3.05-9.5-6.55-10.21-10.51l-38.09-0.39c-3.36-0.02-6.33-0.28-9-0.79
						c-2.63-0.51-3.96-1.18-3.97-2.03l-0.02-3.81l52.08,0.5c2.3-4.01,7.02-7.51,14.24-10.49c7.21-2.98,16.02-5.63,26.43-7.95
						l17.44,2.39c5.3,0.74,7.93,1.61,7.93,2.61c0,0.54-1.07,1.21-3.26,2.01c-2.23,0.8-4.81,1.76-7.82,2.87
						c-2.96,1.11-5.88,2.42-8.67,3.91c-2.83,1.49-4.93,3.18-6.34,5.08L897.78,2466.98z M769.3,2472.17c1.05,2.5,3.38,4.65,6.92,6.46
						c3.54,1.81,7.93,3.3,13.23,4.47c5.3,1.17,11.24,2.02,17.83,2.57c6.63,0.55,13.56,0.8,20.79,0.77
						c8.44-0.04,15.79-0.41,22.07-1.09c6.24-0.69,11.74-1.62,16.51-2.8c4.73-1.18,8.89-2.54,12.42-4.1
						c3.52-1.56,6.65-3.25,9.49-5.07L769.3,2472.17z M1074.92,2468.76c-1.04-2.53-3.59-4.75-7.56-6.66
						c-3.97-1.9-9.05-3.51-15.22-4.8c-6.16-1.3-13.35-2.26-21.57-2.9c-8.18-0.63-17.22-0.93-27.12-0.88
						c-8.78,0.04-16.39,0.44-22.72,1.18c-6.32,0.75-11.83,1.74-16.51,3c-4.64,1.25-8.64,2.72-11.86,4.38
						c-3.26,1.67-6.31,3.46-9.1,5.36L1074.92,2468.76z"/>
				</g>
				
					<linearGradient id="SVGID_46_" gradientUnits="userSpaceOnUse" x1="724.5156" y1="1602.0037" x2="739.7678" y2="1729.6874" gradientTransform="matrix(-1 0 0 -1 1669.249 4127.8389)">
					<stop  offset="3.597120e-03" style="stop-color:#F36F56"/>
					<stop  offset="0.3059" style="stop-color:#F99C4C"/>
					<stop  offset="0.545" style="stop-color:#FDB946"/>
					<stop  offset="0.6817" style="stop-color:#FFC444"/>
					<stop  offset="0.8038" style="stop-color:#FFC244"/>
					<stop  offset="0.8667" style="stop-color:#FEBA46"/>
					<stop  offset="0.916" style="stop-color:#FCAD49"/>
					<stop  offset="0.958" style="stop-color:#F99A4D"/>
					<stop  offset="0.9955" style="stop-color:#F58152"/>
					<stop  offset="1" style="stop-color:#F57E53"/>
				</linearGradient>
				<path class="st47" d="M936.66,2416.45c-183.2,0-373.96,16.12-404.47,47.33c1.19,1.1,2.3,2.28,3.33,3.51
					c25.72-21.67,183.23-43.48,401.14-43.48c223.5,0,383.54,22.95,402.92,45.15c0.95-1.22,1.97-2.38,3.07-3.48
					C1317.46,2433.17,1123.12,2416.45,936.66,2416.45z"/>
			</g>
			<g>
				
					<linearGradient id="SVGID_47_" gradientUnits="userSpaceOnUse" x1="1743.019" y1="2282.281" x2="2688.4075" y2="2282.281" gradientTransform="matrix(0.5796 0.8149 -0.8149 0.5796 2214.3765 -230.3409)">
					<stop  offset="0" style="stop-color:#FCB148"/>
					<stop  offset="0.0521" style="stop-color:#FDBA46"/>
					<stop  offset="0.1424" style="stop-color:#FFC244"/>
					<stop  offset="0.3183" style="stop-color:#FFC444"/>
					<stop  offset="0.4849" style="stop-color:#FDB946"/>
					<stop  offset="0.7754" style="stop-color:#F99C4D"/>
					<stop  offset="0.8658" style="stop-color:#F8924F"/>
					<stop  offset="1" style="stop-color:#F8924F"/>
				</linearGradient>
				<path class="st48" d="M1464.36,2528.25l-74.26,52.82c-24,17.07,63.18,180.81,194.71,365.72
					c131.53,184.92,257.61,320.98,281.61,303.91l74.26-52.82L1464.36,2528.25z"/>
				
					<linearGradient id="SVGID_48_" gradientUnits="userSpaceOnUse" x1="2220.0569" y1="2175.7979" x2="2269.8906" y2="2592.9788" gradientTransform="matrix(0.5796 0.8149 -0.8149 0.5796 2214.3765 -230.3409)">
					<stop  offset="0" style="stop-color:#FFDB44"/>
					<stop  offset="1" style="stop-color:#FEEF06"/>
				</linearGradient>
				<path class="st49" d="M1940.67,3197.89c-24,17.07-150.08-119-281.61-303.91c-131.53-184.92-218.7-348.65-194.71-365.72
					c24-17.07,150.08,119,281.61,303.91C1877.5,3017.08,1964.67,3180.82,1940.67,3197.89z"/>
				
					<linearGradient id="SVGID_49_" gradientUnits="userSpaceOnUse" x1="2217.8901" y1="2157.2" x2="2233.1941" y2="2285.3167" gradientTransform="matrix(0.5796 0.8149 -0.8149 0.5796 2214.3765 -230.3409)">
					<stop  offset="0" style="stop-color:#FFDB44"/>
					<stop  offset="1" style="stop-color:#FEEF06"/>
				</linearGradient>
				<path class="st50" d="M1656.07,2896.11c-116.49-163.77-222.65-346.14-192.48-367.6c1.66-1.18,4.99-2.66,6.17-1
					c1.18,1.66-1.61,2.56-3.26,3.74c-19.13,13.61,56.48,165.05,195.57,360.59c139.09,195.55,257.34,316.66,276.48,303.05
					c1.66-1.18,3.41-2,4.59-0.34c1.18,1.66-1.32,2.83-2.97,4.01C1909.99,3220.01,1772.56,3059.87,1656.07,2896.11z"/>
				<g>
					<path class="st18" d="M1677.59,2833.15c4.61,1.67,9.34,3.57,14.21,5.73c4.85,2.13,10.28,5.54,16.23,10.12
						c5.97,4.61,12.66,10.94,20.06,18.97c7.41,8.03,15.86,18.65,25.3,31.79c9.27,12.89,17.49,25.32,24.69,37.32
						c7.18,11.96,12.97,22.9,17.35,32.79c4.36,9.85,7.17,18.43,8.44,25.68c1.23,7.22,0.54,12.54-2.07,15.96l26.43,37.97
						c1.93,2.75,3.43,5.33,4.47,7.7c1.07,2.41,1.25,3.82,0.59,4.29l-3.09,2.22l-34.01-48.8c-5.01,1-11.57-0.85-19.68-5.57
						c-8.09-4.68-17.12-11.6-27.1-20.74l-10.1-19.4c-0.88-1.75-1.5-3.27-1.85-4.55c-0.35-1.28-0.3-2.06,0.14-2.38
						c0.6-0.43,2.25,0.45,4.95,2.64c2.71,2.18,5.85,4.59,9.42,7.22c3.57,2.63,7.29,5.04,11.19,7.27c3.87,2.2,7.28,3.09,10.23,2.72
						l-80.24-115.2c-4.35-1.43-8.93-3.28-13.7-5.47c-4.8-2.22-10.23-5.79-16.32-10.74c-6.09-4.95-12.93-11.64-20.53-20.06
						c-7.62-8.46-16.39-19.59-26.39-33.5c-7.51-10.45-14.37-20.94-20.64-31.54c-6.27-10.6-11.31-20.38-15.15-29.34
						c-3.83-8.96-6.27-16.8-7.34-23.56c-1.04-6.73-0.17-11.54,2.65-14.41l-21.76-31.26c-1.93-2.75-3.44-5.32-4.57-7.79
						c-1.11-2.44-1.33-3.92-0.65-4.41l3.09-2.22l29.78,42.72c4.61-0.45,10.19,1.37,16.8,5.52c6.61,4.15,13.88,9.79,21.8,16.93
						l8.16,15.6c2.46,4.75,3.28,7.39,2.47,7.98c-0.44,0.31-1.6-0.17-3.53-1.49c-1.95-1.36-4.22-2.9-6.87-4.71
						c-2.63-1.77-5.38-3.4-8.22-4.8c-2.86-1.44-5.46-2.17-7.82-2.22L1677.59,2833.15z M1598.89,2731.47
						c-1.43,2.3-1.83,5.45-1.25,9.38c0.57,3.93,1.91,8.38,4.03,13.37c2.12,4.99,4.87,10.33,8.24,16.02
						c3.4,5.72,7.2,11.52,11.43,17.39c4.92,6.85,9.48,12.63,13.68,17.35c4.18,4.68,8.12,8.63,11.85,11.83
						c3.7,3.17,7.23,5.78,10.54,7.74c3.31,1.97,6.5,3.54,9.63,4.79L1598.89,2731.47z M1778.81,2978.53
						c1.46-2.32,1.79-5.68,1.04-10.02c-0.75-4.34-2.39-9.41-4.91-15.18c-2.51-5.77-5.89-12.19-10.14-19.26
						c-4.23-7.03-9.23-14.57-15-22.61c-5.12-7.13-9.86-13.11-14.13-17.83c-4.27-4.72-8.27-8.63-12.01-11.72
						c-3.71-3.06-7.22-5.46-10.44-7.12c-3.25-1.69-6.47-3.14-9.64-4.31L1778.81,2978.53z"/>
				</g>
				
					<linearGradient id="SVGID_50_" gradientUnits="userSpaceOnUse" x1="-562.4606" y1="1855.5052" x2="-547.2112" y2="1983.1653" gradientTransform="matrix(-0.5796 -0.8149 0.8149 -0.5796 -181.2018 3522.6223)">
					<stop  offset="3.597120e-03" style="stop-color:#F36F56"/>
					<stop  offset="0.3059" style="stop-color:#F99C4C"/>
					<stop  offset="0.545" style="stop-color:#FDB946"/>
					<stop  offset="0.6817" style="stop-color:#FFC444"/>
					<stop  offset="0.8038" style="stop-color:#FFC244"/>
					<stop  offset="0.8667" style="stop-color:#FEBA46"/>
					<stop  offset="0.916" style="stop-color:#FCAD49"/>
					<stop  offset="0.958" style="stop-color:#F99A4D"/>
					<stop  offset="0.9955" style="stop-color:#F58152"/>
					<stop  offset="1" style="stop-color:#F57E53"/>
				</linearGradient>
				<path class="st51" d="M1741.3,2835.55c-106.19-149.29-229.89-295.39-273.01-302.17c-0.2,1.61-0.52,3.2-0.93,4.75
					c32.56,8.4,141.64,124.11,267.94,301.68c129.55,182.13,203.61,325.84,196.75,354.51c1.54,0.07,3.08,0.22,4.62,0.49
					C1948.39,3155.55,1849.37,2987.49,1741.3,2835.55z"/>
			</g>
		</g>
	</g>
</g>
</svg>
